<svg xmlns="http://www.w3.org/2000/svg" viewBox="0 0 2752 1536"><defs><mask id="logo-mask"><rect width="2752" height="1536" fill="#fff" /><path fill="#000" d="M1287.5 297.2c-3.7 1.3-7.2 4.4-9.3 8.3-1.4 2.5-1.7 6.2-1.7 21.5 0 16.8.2 18.9 2.1 22.4 3.5 6.8 7.4 8.1 24.4 8.1 16.4 0 19.7-1 23.4-7.4 4.3-7.4 4-38-.4-45.9-3.7-6.7-6.6-7.7-22-7.9-7.9-.1-14.7.2-16.5.9m238-1.2c-6.5 1-9.6 2.3-11.8 4.8-2.6 2.9-4.6 8.9-4.7 13.9v4.3h52.3l-.6-6.5c-.8-8.6-2.8-12.2-8-14.5-5-2.2-19.7-3.3-27.2-2m817.1 964c.3 5.2.1 12.6-.5 16.5-.5 3.8-.8 7.2-.5 7.5 1.2 1.1 6.2-6 6.9-9.8.8-4.7-1.4-14.2-4.5-20l-2-3.7z"/></mask></defs><g stroke-width="0"><path d="M1171 272.5c0 11.8.2 21.5.5 21.5s2.5-1.5 4.9-3.4c6.8-5.1 14.8-6.9 29.8-6.5 11.5.4 12.9.6 18.3 3.4 7 3.6 10.9 9 12.5 17.4.5 2.9 1 18.6 1 34.8v29.4l-7.7-.3-7.8-.3-.5-31c-.4-27.2-.7-31.4-2.3-34.2-2.9-5.5-5.9-6.7-17-7.1-12.6-.6-19.6.9-24.4 5.1-7 6.1-6.7 4-7.3 65.4 0 2.2-.4 2.3-7.5 2.3h-7.5V251h15zm299.8 37.7-.3 58.3-7.7.3-7.8.3V252h16zm-47.6-25.1c8.2 2.1 13.5 10 14.5 21.8l.6 7.1H1423v-3.3c-.1-5.1-3.4-11.3-7.1-13.2-2.5-1.4-5.1-1.6-11.4-1.3-9.3.5-13.7 2.4-17.2 7.6-3.6 5.4-4.3 11.9-4.3 39.3v26l-7.7-.3-7.8-.3v-83l7.3-.3 7.2-.3v10.5l3.8-3.6c2-2.1 5.5-4.5 7.7-5.4 7.1-3 20.7-3.6 29.7-1.3m-308.7.4c3.3.9 7.7 2.7 9.7 4 4.8 3.2 8.6 10.7 9.5 18.5l.6 6.1-7.9-.3-7.9-.3-.7-4.9c-.8-6-4.5-10.2-10.2-11.7-2.3-.6-8.9-.9-15.1-.7-18.5.6-22 3.7-23.7 21.3-1.3 12.5.1 27.9 2.9 32.8 1 1.8 3.9 4.2 6.3 5.5 4.2 2.1 5.5 2.3 18 2 10.9-.2 14.1-.6 16.3-2.1 3.6-2.4 5.7-5.7 6.3-10.3 1.2-9 .6-8.4 9.1-8.4h7.6l-.6 7.4c-.6 8.5-3 13.9-8.1 18.4-5.5 4.8-12.1 6.4-28.6 6.9-34.1 1.1-44.1-6.8-45.7-36.2-1-18.5 2.1-34 8-40.3 2.7-2.9 10.3-6.9 15.4-8.1 6.7-1.6 32.2-1.3 38.8.4m213 1c6.8 2.5 13.7 9.6 16.1 16.6 1.6 4.6 1.9 8.3 1.9 24.9 0 18.4-.1 19.8-2.4 24.8-3.1 6.9-9.8 12.7-17 15-8.2 2.5-39.4 2.5-46.8-.1-12.6-4.4-17.5-11.6-19.4-28.2-.6-5.5-.8-14.2-.4-19.5 1.5-21.8 6.9-30.1 22.7-34.5 7.9-2.2 38.4-1.5 45.3 1m227.9-1c15.2 4 21.5 15 21.6 37.7v6.8h-68.3l.5 8.3c.5 10.6 2.5 14.3 9.3 17.7 4.6 2.3 6.1 2.5 18 2.5 18.2-.1 22.9-2.5 24.2-12.5l.6-4.1 7.6.3 7.6.3-.2 5.2c-.4 9.5-5.6 16.2-15.4 20-6.8 2.6-41.2 2.6-48.8-.1-6.9-2.4-13.3-8.2-16.1-14.8-5.1-11.9-4.9-40.8.4-52.2 5.8-12.7 14.6-16.4 38.6-16.5 10-.1 16.4.4 20.4 1.4m61.8 33.8c7.8 18.6 14.4 33.4 14.8 33s2.6-6.2 5-12.8c3.9-10.8 17.8-48.4 19.5-52.8.6-1.4 2-1.7 8.6-1.7 4.3 0 7.9.3 7.9.8 0 .8-15.4 40.8-30.6 79.3-6.7 17.1-9.3 22.6-12.4 26.2-5.2 5.9-11.8 8.6-22.6 9.4l-8.4.6V389h4.5c2.5 0 6.1-.6 8-1.4 3.8-1.6 8.6-7.7 11-14l1.7-4.3-3.7-7.3c-4.3-8.6-33.5-75-33.5-76.2 0-.5 3.6-.8 8.1-.6l8.1.3zm766.8 68.5c23.8 6.3 38.5 13 42.9 19.6 2.2 3.3 2.7 5.3 3 12.3.3 8 .2 8.3-2.6 11.1-4.1 4.2-13.3 5.7-30.5 4.9-20.9-.9-32.7-4.7-45.5-14.9-8.1-6.4-11.7-7.4-19-5.3-11 3.2-20.7 17-26.8 38-4.1 14.3-6.6 30.7-6.8 44.5-.2 19.4 2.9 27.6 15.7 40.8 18.9 19.6 55.3 39.7 135.1 74.7 27.1 11.9 42.7 19.8 73.2 37.1 46.4 26.5 66.4 38.8 68.3 42.4.8 1.5-1.2 6.3-10.9 25.7-13.2 26.6-20.4 39.7-46.4 85.3-30.8 53.9-50 86.9-78 134-14.8 25-33.4 56.3-41.2 69.5-43.7 73.8-76.9 128.8-82.1 136.2-4.4 6.1-7.7 8.4-9.5 6.6-1.3-1.3 1.8-9.4 13.1-33.8 47.7-103.2 72.6-177.8 82.1-246 3.2-22.9 3.2-59.2.1-70.9-2.7-9.7-5.7-14.9-12.7-22.1-9.1-9.4-12-10.2-39.5-11.5-61.6-2.8-104.8-8.9-134-18.8-36.7-12.5-44.3-31.2-20.4-50.2 18.1-14.4 46.3-26.4 57.6-24.5 5.1.9 9.8 4.9 9.8 8.3 0 3.9-8 10.8-20 17.4-12.6 6.8-15.2 9-14.8 12.6.2 2.1 1.4 3.2 4.8 4.9 6.2 3 43 12.8 57.3 15.3 28.7 4.9 71.8 7.5 109.7 6.7 38-.8 60.3-3.9 89-12.2 19.5-5.7 37-13.6 37-16.7 0-7.3-61.1-42.4-106-60.8-20.5-8.4-61.8-27.3-81-37.1-34.5-17.5-52.6-29.5-68-44.9-8.6-8.6-11.3-11.9-14.3-18.1-7.3-15.3-10.1-31.6-10.1-59.9 0-17.6.2-19.1 3.2-30.5 3.3-12.5 9.5-26.6 15.9-36.2 11.2-16.9 28.6-29.3 47.9-34.2 11.5-2.9 12.5-3 28.4-2.6 12.2.3 16.3.8 26 3.3m-682.2 17.3c1.6.6 4.1 2.7 5.5 4.7 8.4 12.6 17.3 30.2 28 55.2 27.3 63.9 60.3 135.4 74.7 162.1 32.6 60.5 52 86.9 71.9 97.9 3.5 1.9 8 4.9 10 6.7l3.6 3.1.3 14.9c.4 18.9.1 19.6-10.9 20.1-8.2.4-14.3-.5-66.9-10.1-19.5-3.6-48.5-8.2-64.5-10.2-31.8-3.9-39.1-5.4-44.7-9.1-5.3-3.4-7.1-7.4-6.6-14.8.7-11 6.1-15.6 18.1-15.6 9.2 0 20.3 2.1 52.7 10.1 24.9 6.1 48.1 10.1 49.5 8.7.5-.5-21.7-44.4-61.8-122.3-19.3-37.6-38.3-77.2-50.7-106.2-2.5-5.6-4.6-10-4.8-9.8s-1.2 5.4-2.3 11.7c-2.1 12.3-16.4 77.4-23.4 106.3-14.2 58.8-25.2 89.8-50 140.8-3.2 6.4-9.5 8.4-50 16.1-20.8 3.9-67.1 11.8-91.9 15.7-6.3 1-8.3 1.7-10.1 3.8-1.3 1.4-4.5 5.2-7.2 8.3-3.3 3.8-5.5 7.5-6.7 11.5-1 3.2-3.7 10.7-6.1 16.8-2.4 6-6.8 19.6-9.9 30.1-3 10.5-6.4 21.3-7.5 24-3.9 10-11.9 26.1-16.7 33.9-2.8 4.4-8.4 14.5-12.6 22.5s-10.6 19.7-14.2 26c-3.7 6.3-7.1 13.3-7.6 15.5-2.8 11.2-6.6 21.1-10.7 27.7-2.6 4-6.7 13-9.3 20-4.9 13.2-5.9 15.1-12.3 24.1-2.9 4-4.7 8.5-7.6 18.8-3 11-4.5 14.6-7.8 19-5.6 7.5-6.7 9.8-10.9 24-4.1 14-7 20.3-10.9 23.9-3.8 3.6-5.1 6.4-6.8 15.8-2 10.4-17.6 58.1-21.8 66.4-1.7 3.5-5.4 10.3-8.2 15.2l-5.1 8.9-2.4-7.9-2.4-7.9 4.2-10c2.3-5.5 5.7-15.9 7.5-23 1.8-7.2 4.8-18.6 6.8-25.5s5.9-21.1 8.7-31.5c2.8-10.5 7.3-25.8 10-34 2.7-8.3 5.8-18.6 7-23 4.7-16.9 15.6-40.4 35.8-76.7 11.9-21.5 20-35.5 45.2-78.3 23.5-39.9 33.5-61.8 39-86 3.2-13.7 7.6-26.3 13-37.1 2.7-5.4 4.8-9.9 4.7-10s-4.2.4-9.2 1.2c-4.9.7-20.5 2.7-34.5 4.4s-27.3 3.3-29.6 3.6l-4 .5-5.8 12.7c-3.3 7-8.9 17.9-12.6 24.2s-8.5 14.9-10.5 19c-2.1 4.1-7.3 13.3-11.6 20.5-6.6 11-8.2 14.7-10.9 24.3-3.6 13.5-4.7 16.3-9.4 23.5-5.1 8-6.9 11.9-11.1 23.7-2.5 7.1-5.5 13-9.2 18.3-4.8 6.9-5.8 9.3-8.8 20.7-3.7 14.4-3.3 13.5-9.1 21-3.4 4.4-5.4 8.8-9.7 21.5-5.8 17.3-7 19.8-12.1 26.2-2.7 3.3-3.7 5.9-4.9 12.7-.9 4.7-5.9 21.3-11.1 36.9-7.1 21.4-11.2 31.9-16.6 42.7-4.9 9.9-7.4 13.9-8 12.9-.4-.8-1.6-4.6-2.5-8.4l-1.8-7 4.5-11.5c2.5-6.3 5.5-15.7 6.7-20.8 1.1-5.2 3.9-15.5 6.1-23 2.1-7.6 6.6-24.1 10-36.7 3.3-12.7 8.3-30 11-38.5 2.6-8.5 5.8-19 6.9-23.2 4.2-15.8 26.3-58.6 60.4-117.3 22.1-38.1 32-55.4 37-64.5l4.6-8.5-26.7-.1c-26.5 0-39.6-1.1-56.9-4.7l-6.3-1.4-7 11.9c-8.4 14-9.2 15.7-12 26.8-2.2 8.7-3.7 12.1-10.7 25-2.3 4.1-5.8 12.4-7.9 18.5-2.4 7.1-5.4 13.5-8.4 18-6.5 9.7-7.3 11.5-10.8 23.9-2.4 8.2-4.3 12.7-8.1 18.5-5.9 9-7.6 12.9-12.4 28.1-2.8 9-4.6 12.8-8.1 17.3-3.6 4.6-4.7 7.1-6 13.4-1.6 8-4.5 16.8-16 49.5-5.9 16.9-14.4 35.8-19.4 43.2l-2 2.8-.7-4.3c-.4-2.4-1.4-6.1-2.2-8.1-1.5-3.7-1.4-4.1 3.1-15.4 2.6-6.4 6.4-18 8.6-25.8 2.1-7.8 7.7-28.5 12.4-46.1 4.8-17.6 11-39.4 14-48.5 2.9-9.1 6.8-21.1 8.6-26.8 1.8-5.6 7.4-18.7 12.5-29 9.2-18.4 35.3-65.8 47.4-86 3.3-5.6 6.1-10.6 6.1-11.1s-2.4-1.7-5.2-2.6c-8.1-2.7-24.4-10.8-33.3-16.6-15.4-10.2-30.5-27.9-40-46.9-11-21.9-16.2-46.1-17.2-80-1.8-58.5 13.3-104.2 47.1-143.3 7-8.1 25.2-23.7 36.1-30.9 21.4-14.2 52.8-27.1 78.5-32.2 20.7-4.1 31.9-5.1 57.5-5 63.4.1 92.8 12.7 101.9 43.3 1.8 6.2 2.1 19.7.5 25.4-1.9 7-12.3 16.1-19.2 16.9-2.8.3-3 0-6.6-10.2-7.5-21.1-16.4-33.7-27.6-38.9-10.5-5-17.8-6.3-38.3-6.8-36.3-1-68.7 5.6-98.7 20.2-16.7 8.1-28.1 16.3-40.3 29-16.5 17.1-28.8 38-37.2 63.1-5.9 18-8.1 32-8.7 56.9-1.3 49.4 7.9 80 31.3 104.5 8.7 9.1 15 13.3 27.8 18.4 9.6 3.9 11.3 4.2 11.8 2.3.2-.6 4.4-9.1 9.5-18.7 13-24.9 17.8-36.9 22.8-56.7 6.7-26.4 13.6-40.6 32.6-67.3 6.1-8.5 12.4-18.1 14-21.3 5.7-11.2 22.5-36.4 23.6-35.3.2.2-2 6.8-4.7 14.7-2.8 7.9-6 18.2-7.2 22.9-2.3 9.8-2.8 10.9-7.8 17.2-2.3 2.9-4.3 7-5.4 11.2-1.6 5.7-2.8 7.6-9.5 14.9-7.3 8-7.9 9-10.5 17.8-1.6 5.2-4.3 13-6.1 17.4-1.9 4.4-5.2 14.7-7.4 22.8-5 18.1-10.1 31.5-19.7 51.5-4.8 10-6.9 15.4-6.1 15.7.7.2 5.9 1.1 11.7 1.9 17.2 2.5 43.4 3.9 57.7 3.1l13.3-.7 2.5-7.9c1.3-4.3 3.6-12.4 5-18 4.2-16.4 9.5-26.4 28.7-53.7 5.1-7.3 12.1-18.1 15.6-24 6.3-10.7 22.1-33.7 22.7-33 .2.2-2.3 7.9-5.6 17.1-3.2 9.2-6.9 20.6-8 25.3-1.6 6.2-3.2 9.9-5.8 13.3-1.9 2.5-4.5 7.4-5.8 10.9-1.7 4.5-4.3 8.6-9.3 14.4-6 6.9-7.4 9.2-9.1 15.2-1.1 3.9-3.4 10.5-5.1 14.6-4 9.8-8.9 24.2-8.4 24.7 1.6 1.6 88.4-9.8 90-11.9.2-.1 2.7-4.6 5.6-9.8 7.5-13.5 22.3-35 24.1-35 .4 0-.6 3.5-2.3 7.7-4.3 11.4-11.9 33.6-11.5 34 .7.6 31.5-8.6 48.2-14.5 18.5-6.5 46.4-17.2 53.2-20.4 7.1-3.4 9.8-7.4 14.2-21.6 10.1-32.3 26.2-85.8 39-129.7 7.7-26.4 17.9-60.5 22.6-75.9 4.7-15.3 8.5-29 8.5-30.3 0-1.4-1.8-8.6-4-16.1-2.8-9.3-3.9-14.7-3.5-16.8 1.1-6 10.7-14.9 19.4-18 4.5-1.6 6-1.7 9.9-.3M524.7 424.2c.7.6 1.8 2.8 2.3 5 1.6 5.8-.2 16.1-5.5 31.8-11.6 34.2-15.7 56.4-20.5 109.5-13.6 152.1-22.4 202.6-41.3 237.5-8.7 16-16.6 22-24.9 19.1-5.7-2-26-14.3-36.1-21.9-11.2-8.5-24.7-21.5-33.1-31.9-6.3-7.9-17-25.1-21.8-35.1-1.6-3.5-3.1-6.2-3.3-6-1.8 1.9-12.5 104.3-12.5 119.8 0 12.5.9 20.6 5.6 48.5 16.7 100.1 43.6 197.9 75.3 273.2 4.7 11.1 6.2 17.3 4.4 17.3-4.4 0-17.2-18.4-50.1-72.2-46.3-75.7-96.4-169.5-123.9-231.8-13.8-31.3-33-82.4-43.7-116-18.6-58.9-19.1-60.5-39.5-135-3.8-14-11.5-41-17.1-60-13.3-45.9-15.4-54.1-14.6-59.5 1.2-7.9 8.4-16.8 19-23.7 9.8-6.3 17.9-5 22 3.7 2.3 4.7 4 14.2 7.6 42.5 3.6 27.8 6.7 44.7 12.1 66.5 13.5 53.6 23 81.2 40.5 116.6 17 34.5 24.9 46.4 41.3 63.1 10.2 10.2 15.9 14.3 17.6 12.6 2-2 7.6-35.4 12-71.8 9-74.5 13.5-94.3 26.2-114.7 4.9-8 7.4-10.3 11.4-10.3 6.9 0 10.4 8.8 22.4 57.3 10.4 42.1 14 53.8 22 70.2 12.2 25.2 28.4 44.7 49.3 59.3l10.3 7.2 2.4-5.3c4.9-10.8 14.2-44.9 18.9-69.2 8.2-42.9 14.9-98.4 20.1-166 4.2-54.6 6.3-72 11.1-90.8 3.8-15.1 10.2-30.5 15-36.5 3.8-4.6 15.1-6.4 19.1-3m1449.1 3.8c4.6 2.6 8.4 7.6 10 13 .6 1.9 1.8 8.9 2.7 15.5s1.9 12.3 2.1 12.6c.5.8 5 1.2 43.9 3.9 77.3 5.4 113.3 10.2 145.3 19.4 25.5 7.4 37.5 13.8 44.1 23.7 4.5 6.8 5.9 12.5 3.9 16.6-2.2 4.7-5.9 5.8-18.8 5.8h-11.5l-19-7.7c-39.7-16.1-64-19.7-170.2-25.3-9.2-.5-11.3-.4-11.3.7 0 .8 2.7 14.9 6 31.3 3.3 16.5 11.2 57 17.5 90s14.8 76.4 18.9 96.5c10.4 51 11.2 60 6.5 69.1-5.4 10.7-20 11.1-39.1 1.2-3.7-2-8.6-5.5-10.8-7.9-4.7-5.2-4.9-7.1-2.4-25.9 2.8-20.9.9-38.9-8.7-80.4-6.7-29.3-7.8-35.3-10.9-63.4-5.3-46.9-11.6-83.2-18.6-107.4l-1.6-5.5-22.6.4c-20.4.4-23.3.7-28.7 2.6-3.3 1.3-6.3 2.6-6.8 3.1s.5 3.7 2.1 7.2c1.7 3.5 2.8 6.7 2.5 7.1-.7 1.3-9.6.9-17-.6-3.7-.8-12.4-2.2-19.3-3.1-29.7-3.8-43.5-9-47-17.6-3.6-8.7 6.3-15.8 35.3-25.4 24.7-8.1 30.8-8.9 66.5-9.1 26.7-.1 31.5-.3 32.9-1.6 1.3-1.3 1.3-2.8.4-10.4-2.3-18.4-1-27.6 4.2-30.3 3.6-1.8 14.8-.7 19.5 1.9M670.7 478.5c4.6 3 7.5 11.6 9.3 27.4.8 7.6.6 15.6-1.5 44.9-1.3 19.6-3.6 53.8-5 76-2.7 42.9-4.5 61.5-10 105-3.8 29.5-4.1 35.7-2.3 39.7 1.8 3.9 5.2 4.2 14.3 1.1 16-5.5 55.5-21.2 78-30.9 43.4-18.8 45.3-19.4 58.1-18.3 7.9.6 19.7 4.3 24.2 7.4 6.1 4.4 6.4 12.3.8 23.2-2.9 5.8-6.4 7.7-15.6 8.5-13.9 1.2-21 3.6-78.5 25.7-47.9 18.5-55.4 21.1-84.1 29.3-33 9.5-37.2 9.3-39.4-2.4-1.6-8.5-1.2-13.2 2-23.7 7.2-23.2 12-57.9 15.5-110.9 1.7-26.3 2-105 .5-136.5-1.9-39.3-1.3-45.7 5.1-55.3 5.7-8.6 13.8-13.1 21.8-12.2 2.5.3 5.5 1.2 6.8 2M873.5 491c47.9 5.4 87.9 22.8 177.4 77.2 13.7 8.3 38.7 25.6 48.1 33.2 33 26.8 51.8 59.1 53.7 92.6 1.3 23.7-6.9 43.4-22.5 54.2-5.1 3.5-32.4 16.8-45.7 22.3-25.6 10.5-91.6 35.8-99.2 38-8.8 2.6-15.9 3.5-43.8 5.5-8.2.6-25.8 2.5-39 4.1-28.3 3.5-53.8 4.7-60.5 2.9-2.7-.7-5.7-2.5-7.6-4.6-4.1-4.3-6.8-12.1-5.5-15.7 1.8-4.7 4.6-5.7 16.6-5.7 16.9-.1 44.7-1.7 57.5-3.5 12.7-1.8 59.1-11.3 60.2-12.3 1.5-1.6-5.6-20.8-24.7-66.7-30.8-74-32.8-79.5-36.6-101.3-2.6-15.3-2.5-25.9.2-32.2 1.8-4.1 3-5.3 7.2-7.5 5.8-2.8 12-3.2 17.2-1.1 5.4 2.3 6.2 4.6 6.8 18.6.4 10.5 1.1 14.4 4 24.5 6.9 23.1 13 40.1 26.9 74.4 19.1 47.3 24.4 61.3 27 71.9 1.3 5.2 2.8 9.2 3.5 9.2 7.4.1 46.8-10.7 75.3-20.5 34.1-11.9 55.2-24.9 61-37.8 3.8-8.2 1.9-21.6-4.9-36.2-21.8-46.4-100.9-108.8-180.6-142.4-29.9-12.7-46.5-17.7-65.9-20.1-32.9-4.2-62.4 6.6-85 31.1-13.1 14.1-18 25.6-18 41.9-.1 10.5.6 13 7 27.2 7.4 16.4 6.9 21.8-2.2 21.8-7.4 0-8.6-1.8-16-25-3.6-11.3-6.9-23.4-7.2-27-1-9.3.4-19.9 3.9-30.4 4.8-14.4 10-22.6 21.9-34.7 8.8-8.8 11.9-11.3 19.5-15.1 20-10.2 43.2-13.8 70-10.8m-298.6 11.5c3.5 1.8 6.6 8 8 16 1.5 8.4 3.1 46.6 3.1 75 0 30.9 1.5 75.5 4 121.5 2.3 41.7 2.3 41.8 5.6 60.2 2 11 2.3 14.5 1.5 17.6-2.3 8.4-10.1 11.8-23.5 10.1-12.2-1.5-13.1-3.1-16.1-26.6l-1.8-14.1 2.3-6.9 2.3-6.8-.7-57.5c-.4-31.6-1.3-74.4-2-95l-1.3-37.5-3.2-7c-2.4-5.3-3.4-9.2-4.2-17-.5-5.5-1.7-12.3-2.6-15.1-2.7-8.8-1.1-11.2 10.4-16 6.6-2.7 14.1-3.1 18.2-.9m1756.8 687.8c4.5 14.7 9.4 25.8 17.7 39.5 12 20 15 29.2 14.4 44.2-.5 11.3-3.3 18-10.7 25.5-6.9 7.1-13.7 10-23.6 10-9.8 0-16.8-2.9-24.5-10.1-7.4-6.9-11.3-15.4-11.8-25.8-.7-12.6 1.1-17.3 15.1-40 6.7-10.8 8.9-17.3 17.8-52 .6-2.1 1.3-3.5 1.6-3.2.4.3 2.2 5.7 4 11.9"/></g><g fill="#555" stroke-width="0"><path d="M1159.8 251.7c2.3.2 5.9.2 8 0 2-.2.1-.4-4.3-.4s-6.1.2-3.7.4m310.7 58.3c0 32.2.1 45.3.2 29.2.2-16 .2-42.4 0-58.5-.1-16-.2-2.9-.2 29.3m-103 17c0 22.8.1 32.2.2 20.7.2-11.4.2-30 0-41.5-.1-11.4-.2-2-.2 20.8m-241-35c1 1.1 2 2 2.3 2s-.3-.9-1.3-2-2-2-2.3-2 .3.9 1.3 2m102.5-1.6c0 .2.8 1 1.8 1.7 1.5 1.3 1.6 1.2.3-.4s-2.1-2.1-2.1-1.3m338 1c0 .2.8 1 1.8 1.7 1.5 1.3 1.6 1.2.3-.4s-2.1-2.1-2.1-1.3m-368.7 4.3c.9.2 2.3.2 3 0 .6-.3-.1-.5-1.8-.5-1.6 0-2.2.2-1.2.5m102 0c1.5.2 3.9.2 5.5 0 1.5-.2.2-.4-2.8-.4s-4.3.2-2.7.4m241.5 0c.7.3 1.6.2 1.9-.1.4-.3-.2-.6-1.3-.5-1.1 0-1.4.3-.6.6m-365.9 7c-1.3 1.6-1.2 1.7.4.4s2.1-2.1 1.3-2.1c-.2 0-1 .8-1.7 1.7m-57.8 8.9c0 1.1.3 1.4.6.6.3-.7.2-1.6-.1-1.9-.3-.4-.6.2-.5 1.3m458.2 10.4c0 4.7.2 6.6.4 4.2.2-2.3.2-6.1 0-8.5-.2-2.3-.4-.4-.4 4.3m-405.1-5c0 1.4.2 1.9.5 1.2.2-.6.2-1.8 0-2.5-.3-.6-.5-.1-.5 1.3m-119.1 1.6c0 1.1.3 1.4.6.6.3-.7.2-1.6-.1-1.9-.3-.4-.6.2-.5 1.3m16 0c0 1.1.3 1.4.6.6.3-.7.2-1.6-.1-1.9-.3-.4-.6.2-.5 1.3m154.3 24.4c0 14 .2 19.8.3 12.7.2-7 .2-18.4 0-25.5-.1-7-.3-1.2-.3 12.8m106.8-22.5c0 1.6.2 2.2.5 1.2.2-.9.2-2.3 0-3-.3-.6-.5.1-.5 1.8m163.2 6c0 4.9.1 7.1.3 4.8s.2-6.4 0-9-.3-.8-.3 4.2m-233.1 1c0 4.4.2 6.1.4 3.7.2-2.3.2-5.9 0-8-.2-2-.4-.1-.4 4.3m248.9 5.5c0 1.9.2 2.7.5 1.7.2-.9.2-2.5 0-3.5-.3-.9-.5-.1-.5 1.8m-179 1c0 1.9.2 2.7.5 1.7.2-.9.2-2.5 0-3.5-.3-.9-.5-.1-.5 1.8m-261.1 2.6c0 1.1.3 1.4.6.6.3-.7.2-1.6-.1-1.9-.3-.4-.6.2-.5 1.3m51 4c0 1.1.3 1.4.6.6.3-.7.2-1.6-.1-1.9-.3-.4-.6.2-.5 1.3m447.7 2.1c1.7.2 4.7.2 6.5 0 1.7-.2.3-.4-3.3-.4s-5 .2-3.2.4m-474.5 16c1.5.2 3.7.2 5 0 1.2-.2 0-.4-2.8-.4-2.7 0-3.8.2-2.2.4m-576 64c.9.2 2.3.2 3 0 .6-.3-.1-.5-1.8-.5-1.6 0-2.2.2-1.2.5m839.5 7c.7.3 1.6.2 1.9-.1.4-.3-.2-.6-1.3-.5-1.1 0-1.4.3-.6.6M527.2 434c0 1.9.2 2.7.5 1.7.2-.9.2-2.5 0-3.5-.3-.9-.5-.1-.5 1.8m849.5 24.7c1.8.2 5 .2 7 0 2.1-.2.7-.4-3.2-.4-3.8 0-5.5.2-3.8.4m514.1 10c.7.3 1.6.2 1.9-.1.4-.3-.2-.6-1.3-.5-1.1 0-1.4.3-.6.6m38 0c.6.2 1.8.2 2.5 0 .6-.3.1-.5-1.3-.5s-1.9.2-1.2.5m15 0c.6.2 1.8.2 2.5 0 .6-.3.1-.5-1.3-.5s-1.9.2-1.2.5m50 2c.7.3 1.6.2 1.9-.1.4-.3-.2-.6-1.3-.5-1.1 0-1.4.3-.6.6m30 2c.7.3 1.6.2 1.9-.1.4-.3-.2-.6-1.3-.5-1.1 0-1.4.3-.6.6m238.3 4.9c0 1.1.3 1.4.6.6.3-.7.2-1.6-.1-1.9-.3-.4-.6.2-.5 1.3m-1052.7 11.6-1.9 2.3 2.3-1.9c2.1-1.8 2.7-2.6 1.9-2.6-.2 0-1.2 1-2.3 2.2m494.6 1.3c0 .8.2 1.5.4 1.5s.6-.7 1-1.5c.3-.8.1-1.5-.4-1.5-.6 0-1 .7-1 1.5m-860.2.2c.7.3 1.6.2 1.9-.1.4-.3-.2-.6-1.3-.5-1.1 0-1.4.3-.6.6m22 0c.7.3 1.6.2 1.9-.1.4-.3-.2-.6-1.3-.5-1.1 0-1.4.3-.6.6m1432.3 1.9c0 1.1.3 1.4.6.6.3-.7.2-1.6-.1-1.9-.3-.4-.6.2-.5 1.3m-35.9 2.9c0 1.6.2 2.2.5 1.2.2-.9.2-2.3 0-3-.3-.6-.5.1-.5 1.8m-1016.3 11.2-3.4 3.8 3.8-3.4c3.4-3.3 4.2-4.1 3.4-4.1-.2 0-1.9 1.7-3.8 3.7m681.9-3c2.3.2 5.9.2 8 0 2-.2.1-.4-4.3-.4s-6.1.2-3.7.4m78 2c.6.2 1.8.2 2.5 0 .6-.3.1-.5-1.3-.5s-1.9.2-1.2.5m22 1c.6.2 1.8.2 2.5 0 .6-.3.1-.5-1.3-.5s-1.9.2-1.2.5m18 1c.7.3 1.6.2 1.9-.1.4-.3-.2-.6-1.3-.5-1.1 0-1.4.3-.6.6m170.2 1.7c0 .2.8 1 1.8 1.7 1.5 1.3 1.6 1.2.3-.4s-2.1-2.1-2.1-1.3m-1535.7 7.1c0 3.3.2 4.5.4 2.7s.2-4.5 0-6-.4 0-.4 3.3m-44.2 12.1c0 1.1.3 1.4.6.6.3-.7.2-1.6-.1-1.9-.3-.4-.6.2-.5 1.3m43 7c0 1.1.3 1.4.6.6.3-.7.2-1.6-.1-1.9-.3-.4-.6.2-.5 1.3m1635.9 4.9c1.9 1.9 3.6 3.5 3.9 3.5s-1-1.6-2.9-3.5-3.6-3.5-3.9-3.5 1 1.6 2.9 3.5m-1834.9 2.1c0 1.1.3 1.4.6.6.3-.7.2-1.6-.1-1.9-.3-.4-.6.2-.5 1.3m198 7c0 1.1.3 1.4.6.6.3-.7.2-1.6-.1-1.9-.3-.4-.6.2-.5 1.3m-40.9 3.9c0 1.6.2 2.2.5 1.2.2-.9.2-2.3 0-3-.3-.6-.5.1-.5 1.8m734.3 1.5c-.3.5-.1 1 .4 1 .6 0 1.1-.5 1.1-1 0-.6-.2-1-.4-1-.3 0-.8.4-1.1 1m-3.7 6.6c-1.6.8-2.8 1.7-2.8 2s.5.2 1.1-.1c.6-.4.5.2-.2 1.3-.7 1.2-1.6 2-2 1.9s-.7.2-.7.6c-.1.5-.9 1.5-1.9 2.4-1 .8-1.1 1.1-.3.7s.3.4-1.2 1.9c-2.9 2.7-3.7 4.3-1.5 3.1.6-.4-.1.5-1.6 1.9-1.5 1.5-2.6 3.1-2.3 3.6s-.1 1.1-.9 1.5c-.9.3-1.2 1.2-.8 2.2.4 1.2.3 1.5-.5 1-1.1-.6-1.3-.2-1.2 1.9.1.3-.6 1.2-1.4 2.1-.8.8-1.2 2.2-.9 3.2.3.9.2 1.4-.2 1-.7-.7-7.5 8.2-7.5 9.8 0 .4-.8 1.3-1.7 2.1-1.2.9-1.3 1.2-.3.8.8-.4.4.3-1 1.4s-2.1 2.1-1.5 2.1c.5 0-.1.7-1.3 1.6-1.2.8-2.2 2.4-2.2 3.5 0 1-.4 1.8-.9 1.7-.5-.2-.9.1-.9.6s-.7 1.3-1.6 1.8-1.4 1.3-1.1 1.8c.3.4-.2 1.1-1.1 1.4-.8.3-1.3 1-1 1.5s-.1 1.2-1 1.5c-.9.4-1.4.9-1.1 1.3.4.3 0 1.1-.8 1.7-.7.6-1.5 1.7-1.7 2.5s-.9 2.2-1.6 3c-.7.9-1.2 2-1.1 2.5 0 .5-.4 1.2-.9 1.5-.6.3-1.2 1.3-1.4 2.1s-.9 2.1-1.6 2.8c-.7.8-1 1.8-.7 2.3.4.5.1.9-.5.9s-.8.4-.5 1c.3.5.1 1-.5 1s-.8.4-.5 1c.3.5.1 1-.5 1-.7 0-1 .7-.6 1.5.3.8.1 1.5-.5 1.5s-.7.4-.4 1c.3.5.1 1-.5 1s-.8.4-.5 1c.3.5.1 1-.5 1-.7 0-1 .7-.6 1.5.3.8.1 1.5-.5 1.5s-.8.4-.4.9c.3.5.1 1.2-.4 1.6-.6.3-.8 1.2-.4 2 .3.8 0 1.5-.7 1.5s-.9.8-.5 2c.4 1.1.2 2-.4 2s-.8 1.3-.5 3.2c.5 2.6.3 3-.6 1.8s-1-.8-.5 1.9c.5 2.4.4 3.1-.4 2.6s-1 .1-.5 2.1.4 2.5-.6 1.9c-.9-.5-1-.2-.5 1.4.4 1.3.2 2.1-.5 2.1s-.9.8-.5 2.1c.5 1.6.4 1.9-.5 1.4s-1-.2-.5 1.4c.3 1.1.2 2.1-.3 2.1-.6 0-.8 1-.4 2.2.3 1.3.1 1.9-.5 1.5-1.4-.9-2.3 1.5-1.6 4.1.2 1.1 0 2.3-.6 2.6-.7.5-.9 0-.5-1.1.5-1.5.4-1.6-.5-.3-.6.8-.8 2.3-.5 3.4.4 1.1.2 1.6-.4 1.2-1.2-.7-2.5 2.2-1.5 3.6.3.6.1.8-.4.5-1.3-.8-2.4 1.8-1.7 3.8.4.8-.1 1.7-1 2.1-.9.3-1.3 1-1 1.5s0 .9-.6.9-.8.4-.5 1c.3.5.2 1-.4 1s-.8.7-.5 1.5c.4.8-.1 1.7-1 2.1-.9.3-1.3 1-1 1.5s0 .9-.6.9-.8.4-.5 1c.3.5.1 1-.5 1s-.8.4-.5 1c.3.5.1 1-.6 1s-1 .3-.6.6c.3.3-.4 1.5-1.5 2.6s-1.7 2.6-1.4 3.4.2 1.3-.2 1c-1.1-.7-4.4 6.2-3.7 7.5.4.5 0 1.2-.9 1.5-.8.3-1.2 1.2-1 1.9.3.7 0 1.6-.7 2.1-.8.5-1 .3-.4-.7s.5-1.1-.4-.3c-2.3 2.1 0 4.2 6.7 5.9 3.7.9 7.2 1.9 7.9 2.1s1.5-.2 1.9-.8c.5-.7.2-.8-.7-.4-.8.5-.8.2.2-.6.9-.7 1.4-1.9 1.2-2.5-.3-.7.2-1.6 1.1-1.9s1.3-1 1-1.5 0-.9.6-.9.8-.5.5-1c-.3-.6-.2-1 .3-1 .6 0 1.3-.7 1.6-1.6.4-1 .2-1.3-.7-.9-.6.4-.5.1.3-.7.8-.7 1.5-1.9 1.6-2.6.2-2.8.4-3.3 1.3-2.8.5.3 1.2-.1 1.5-1 .3-.8.2-1.2-.4-.9s-.7-.1-.4-.9c.3-.9 1-1.6 1.6-1.6.5 0 .6-.5.3-1-.3-.6-.1-1 .5-1s.9-.4.6-.9c-.9-1.4.5-4.2 1.6-3.5.6.4.7-.2.3-1.6s-.3-2 .3-1.6c.5.3 1.3-.1 1.6-1 .3-.8.2-1.2-.4-.9s-.7-.1-.4-.9c.3-.9 1-1.6 1.5-1.6.4 0 .5-.7.2-1.7-.5-1.2-.3-1.4.7-.8s1.2.4.7-.8c-.3-1-.2-1.7.3-1.7s.6-.7.3-1.7c-.5-1.1-.3-1.4.6-.8 1 .6 1.1.2.6-1.5s-.4-2.1.6-1.5c.9.6 1.1.3.6-.8-.3-1-.2-1.7.4-1.7s.8-.9.4-2.1c-.5-1.6-.4-1.9.5-1.4s1 .1.5-1.5-.4-2 .5-1.5 1 .2.5-1.4c-.4-1.3-.2-2.1.5-2.1.6 0 .8-1.1.4-2.8-.4-2.1-.3-2.4.6-1.2s1 .7.5-2-.4-3.2.5-2 1 .9.5-1.3c-.4-1.9-.2-2.6.5-2.2.7.5.9-.2.4-2.1s-.4-2.5.4-2 1 .2.6-.8c-.4-.9-.1-1.6.6-1.6s1-.7.6-1.5c-.3-.8-.1-1.5.5-1.5s.8-.9.4-2.1c-.5-1.3-.3-1.9.3-1.5 1.2.7 2.3-1.9 1.6-3.9-.4-.8.1-1.7 1-2.1.9-.3 1.3-1 1-1.5s0-.9.6-.9c.7 0 1-.7.6-1.5-.3-.8-.1-1.5.5-1.5s.8-.4.4-.9c-.3-.5-.1-1.2.4-1.6.6-.3.8-1.2.4-2-.3-.8 0-1.5.6-1.5.7 0 .9-1 .7-2.5-.3-1.4-.1-2.3.5-2 .9.6 1.4-1.4 1.1-4.8-.1-1.1.2-1.5.9-1.1s1 .1.7-.7.2-2 1.1-2.7c1.3-1.1 1.3-1.2.1-.7-.8.4-.4-.3 1-1.6 1.4-1.2 2.4-2.6 2.2-3-.1-.5.3-.8 1-.7.7.2 1.2-.4 1.3-1.2 0-.8.5-1.5 1-1.5 1.9 0 3.5-1.6 2.9-2.7-.4-.6-.2-.8.3-.5 1 .6 4.2-3.2 4.4-5 0-.5.4-1.3.9-1.8.4-.6.6-1.8.5-2.8-.2-1 .1-1.4.7-1.1.7.5.9-.2.4-2-.5-2-.4-2.6.5-2 .9.5 1 .2.6-.9-.4-1-.1-1.7.5-1.7s.9-.3.5-.6c-.3-.3.4-1.6 1.7-2.8 1.8-1.8 1.9-1.9.1-.7-1.1.8-.4-.2 1.7-2.2 2-1.9 3.4-3.8 3-4.1-.3-.3 0-.6.7-.6s.9-.5.6-1c-.3-.6-.1-1 .5-1s.8-1.1.4-2.8c-.4-2.1-.3-2.4.5-1.2.8 1.1.9.7.4-1.9-.4-2.5-.3-3.2.6-2.7.9.6 1 0 .5-2-.5-1.9-.4-2.5.5-2 .9.6 1 0 .5-2-.5-1.9-.4-2.5.4-2s1 .2.6-.8c-.3-.9-.1-1.6.6-1.6s.9-.8.5-2.1c-.5-1.6-.4-1.9.5-1.4s1 .1.5-1.5c-.5-1.5-.4-2 .4-1.6.7.5.9.1.5-.8-.3-.9-.1-1.6.5-1.6s.8-.7.5-1.5c-.4-.8-.1-1.5.6-1.5s1-.7.6-1.6c-.4-1-.2-1.3.6-.8s.9.2.5-.9c-.3-1-.2-1.7.3-1.7.6 0 1-.5 1-1.1 0-.5-.6-.7-1.2-.4-.7.4-.4-.1.6-.9 2.7-2.2 1.7-2.7-1.6-1M1294 727c0 .5-.5 1-1.1 1-.5 0-.7-.5-.4-1 .3-.6.8-1 1.1-1 .2 0 .4.4.4 1m-19.5 27c.3.5.1 1-.4 1-.6 0-1.1-.5-1.1-1 0-.6.2-1 .4-1 .3 0 .8.4 1.1 1m9.5 3c0 .5-.2 1-.4 1-.3 0-.8-.5-1.1-1-.3-.6-.1-1 .4-1 .6 0 1.1.4 1.1 1M585.4 570.5c0 5.5.1 7.6.3 4.7s.2-7.4 0-10-.3-.2-.3 5.3m-107.3-.9c0 1.1.3 1.4.6.6.3-.7.2-1.6-.1-1.9-.3-.4-.6.2-.5 1.3m22 5c0 1.1.3 1.4.6.6.3-.7.2-1.6-.1-1.9-.3-.4-.6.2-.5 1.3m57.2 13.9c0 2.7.2 3.8.4 2.2.2-1.5.2-3.7 0-5-.2-1.2-.4 0-.4 2.8m117.9 4.5c0 1.4.2 1.9.5 1.2.2-.6.2-1.8 0-2.5-.3-.6-.5-.1-.5 1.3m-199.1.6c0 1.1.3 1.4.6.6.3-.7.2-1.6-.1-1.9-.3-.4-.6.2-.5 1.3M638.4 608c0 9.1.2 12.8.3 8.2.2-4.5.2-11.9 0-16.5-.1-4.5-.3-.8-.3 8.3m35.7 1.6c0 1.1.3 1.4.6.6.3-.7.2-1.6-.1-1.9-.3-.4-.6.2-.5 1.3m437.4 3.4c1 1.1 2 2 2.3 2s-.3-.9-1.3-2-2-2-2.3-2 .3.9 1.3 2m42.6 2.6c0 1.1.3 1.4.6.6.3-.7.2-1.6-.1-1.9-.3-.4-.6.2-.5 1.3m-35.6 4.4c1 1.1 2 2 2.3 2s-.3-.9-1.3-2-2-2-2.3-2 .3.9 1.3 2m-36.5-.6c0 .2.8 1 1.8 1.7 1.5 1.3 1.6 1.2.3-.4s-2.1-2.1-2.1-1.3m-523.8 3.1c0 1.6.2 2.2.5 1.2.2-.9.2-2.3 0-3-.3-.6-.5.1-.5 1.8m114.9 3.1c0 1.1.3 1.4.6.6.3-.7.2-1.6-.1-1.9-.3-.4-.6.2-.5 1.3m-34.7 8.4c0 5.2.1 7.4.3 4.7.2-2.6.2-6.8 0-9.5-.2-2.6-.3-.4-.3 4.8m805.7-4.6c-.9 1.1-.9 1.6 0 2.2.7.4.9.3.5-.4-.3-.5 0-1.2.6-1.5.7-.2 1-.7.7-1.1s-1.2 0-1.8.8M586.2 632c0 1.9.2 2.7.5 1.7.2-.9.2-2.5 0-3.5-.3-.9-.5-.1-.5 1.8m508.3 0c1 1.1 2 2 2.3 2s-.3-.9-1.3-2-2-2-2.3-2 .3.9 1.3 2m103.8 3.5c0 3.3.2 4.5.4 2.7s.2-4.5 0-6-.4 0-.4 3.3m242.6-1.8c-.1.5-.1 1.1 0 1.5 0 .5-.3.8-.8.8-1.1 0-11.4 14.9-11.4 16.7 0 .7-.3 1.1-.5.8-.8-.7-4.2 4.7-3.6 5.7.3.4.1.8-.5.8-1.2 0-4.5 6-3.4 6 .5 0 0 .5-1 1.1-.9.6-1.4 1.5-1.1 2.1.4.6-.1 1.7-1.1 2.5-1.1.7-1.6 1.3-1.3 1.3s-.7 1.4-2.3 3.1-2.9 4-2.9 5-.4 1.8-.9 1.7c-.5-.2-.9.1-.9.5-.1.5-.9 1.5-1.9 2.4-1.1.8-1.2 1.2-.3.8.8-.4.6.2-.6 1.2-2.9 2.5-8.3 9.9-6.4 8.8.8-.5 0 .6-1.7 2.4-3.1 3-3.8 4.3-3.4 6.4.1.5-.3.6-.9.2-.9-.5-1.2.1-.9 2.2 0 .3-.6 1-1.5 1.5s-1.4 1.3-1.1 1.9c.4.5.1.9-.6.9s-.9.3-.6.7c.4.3-.1 1.1-.9 1.8-.9.6-1.8 2.2-1.9 3.6-.4 3.9-.5 4-1.4 3.5-1.1-.7-2.3 2.2-1.5 3.5.3.5 0 .9-.6.9s-.8.5-.5 1c.9 1.5-.5 5.1-1.6 4.4-.6-.3-.7.5-.3 2.2.5 2.1.4 2.5-.6 1.9s-1.2-.4-.7.8c.3.9.2 1.9-.4 2.2-.5.4-.7 1.7-.5 3.1q.45 2.4-.6 1.8c-.7-.5-.9-.1-.5.9.3.9.2 1.9-.3 2.2-.6.4-.7 1.8-.4 3.3.5 2.2.3 2.4-.6 1.2s-1-.9-.5 1.3c.4 1.9.2 2.6-.4 2.2-.7-.4-.9.5-.5 2.3.5 2.2.1 3.5-1.5 5.1l-2.1 2.1h7.9c8.6 0 10.4-1 9.5-5.1-.4-1.7-.3-2 .4-1.1.7 1.1 1.1.7 1.6-1.3.4-1.5.5-3 .2-3.2-.3-.3.2-1.2 1-2 .8-.9 1.3-2.2 1-2.9-.7-1.8.4-4.5 1.5-3.9.9.6 2.5-4.2 2-6.4-.1-.7.2-1 .7-.7.6.3 1.3-.1 1.6-1 .9-2.4.7-3.1-.5-1.4-.9 1.2-1 1.2-.5-.3.3-1 .6-2.4.6-3 0-.7.5-.6 1.1.3.8 1.1.9.8.4-1.3-.4-2-.2-2.7.6-2.2s.9.1.4-1.4c-.3-1.1-.2-2.1.3-2.1.6 0 .8-1 .4-2.2-.4-1.6-.2-1.9.8-1.3s1.2.4.7-.8c-.4-1-.1-1.7.5-1.7s.8-.3.5-.7c-.4-.3.1-1.2 1.1-2 1.1-.9 1.1-1.2.2-.7-.8.4.4-1 2.7-3 2.4-2.1 4.2-4.1 4-4.6-.1-.5 1.5-2.4 3.7-4.4 2.7-2.5 3.7-4.2 3.3-5.6-.3-1 .1-2.5.9-3.1.9-.7 1.2-2 .8-3.2-.4-1.3-.2-1.7.5-1.3.6.4 1.1.2 1.1-.3 0-1.9.4-2.5 3-4.9 1.4-1.3 1.8-2.1 1-1.7s-.6-.2.6-1.2c1.1-1 1.8-2.5 1.6-3.2-.3-.8 0-1.1.6-.7 1.3.8 2.4-3.7 1.5-6-.5-1.3-.3-1.5.7-.9s1.1.2.6-1.9q-.6-2.7.3-2.1c.7.4.9-.5.5-2.4-.5-2.3-.2-3.2 1-3.7 1-.4 1.5-1.2 1.2-2-.3-.7-.2-1.4.2-1.6 1.2-.5 8.2-20.9 7.6-21.9-.3-.5 0-.9.5-.9.6 0 1.1-.5 1.1-1 0-1.1-2.9-1.4-3.1-.3m-29.9 74.6c0 .2-1 1.2-2.2 2.3l-2.3 1.9 1.9-2.3c1.8-2.1 2.6-2.7 2.6-1.9m-739.9-50.7c0 1.1.3 1.4.6.6.3-.7.2-1.6-.1-1.9-.3-.4-.6.2-.5 1.3m-83.9 8.9c0 1.6.2 2.2.5 1.2.2-.9.2-2.3 0-3-.3-.6-.5.1-.5 1.8m50-.5c0 1.4.2 1.9.5 1.2.2-.6.2-1.8 0-2.5-.3-.6-.5-.1-.5 1.3m-77.9 5c0 3.6.2 5 .4 3.2.2-1.7.2-4.7 0-6.5-.2-1.7-.4-.3-.4 3.3m28.8 17.6c0 1.1.3 1.4.6.6.3-.7.2-1.6-.1-1.9-.3-.4-.6.2-.5 1.3m1617.3 13.6-2.9 3.3 3.3-2.9c3-2.8 3.7-3.6 2.9-3.6-.2 0-1.6 1.5-3.3 3.2m-1616.3 5.4c0 1.1.3 1.4.6.6.3-.7.2-1.6-.1-1.9-.3-.4-.6.2-.5 1.3m917.4.3c-.3.5 0 1.3.6 1.7.7.4.9.3.5-.4-.3-.5 0-1.3.6-1.5.9-.4 1-.6.1-.6-.6-.1-1.4.3-1.8.8m-3.6 4.8c-1.3 1.6-1.2 1.7.4.4.9-.7 1.7-1.5 1.7-1.7 0-.8-.8-.3-2.1 1.3m-1.6 6c-.3 1-1.5 2.6-2.5 3.7-1.3 1.2-1.8 2.6-1.4 4.2.6 2.4-.9 4.3-1.7 2.2-.3-.9-1-.7-2.2.7-1.4 1.7-1.6 1.7-1.1.2.8-2.4.1-2.1-1.9.9-.9 1.5-1.2 2.3-.6 2 1.4-.9 1.4-.3-.1 2.9-.6 1.4-1.5 2.5-2 2.5s-.6-.5-.3-1c.3-.6.4-1 .1-1s-1 1-1.7 2.1c-.8 1.5-.8 1.9 0 1.5.6-.4 1.1 0 1.1.9 0 1-.6 1.5-1.3 1.2-1-.4-1.3.2-.9 1.9.3 1.7.8 2.2 1.6 1.5s1.2-.4 1.3 1.2c.2 1.7 0 1.9-.7.7-.9-1.3-1.4-.8-1.2 1.2.1.3-.5.9-1.4 1.2-1.2.4-1.2.2-.4-1.4.7-1.4.7-2 0-2-.5 0-1 .6-1 1.2 0 1-.2 1-.9 0-.7-1.1-.9-1-1.4.3-.5 1.1-.3 1.4.5.9s.9-.2.5.9c-.8 2-.6 2 6.4.6 5.2-1 5.5-1.2 5.3-4-.1-1.6.2-3.2.7-3.5s.9-1.4.9-2.5.7-1.9 1.6-1.9c1.1 0 1.4-.6.9-2.1s-.4-1.9.4-1.4 1-.1.5-1.9c-.4-1.8-.2-2.8.9-3.2 1.2-.4 1.4-1.1.6-3.1-1.3-3.4-1.1-4.1.6-1.9.8 1.1 1.5 1.6 1.6 1 .4-3.5.5-8.4.2-8.4-.2 0-.6.8-1 1.7m.7 4.3c0 .5-.2 1-.4 1-.3 0-.8-.5-1.1-1-.3-.6-.1-1 .4-1 .6 0 1.1.4 1.1 1m-10.4 20.9c0 1.1-.5 1.7-1.3 1.4-1-.4-1.1-.9-.2-1.9 1.5-1.8 1.5-1.8 1.5.5m6.3-24.2c-1.3 1.6-1.2 1.7.4.4.9-.7 1.7-1.5 1.7-1.7 0-.8-.8-.3-2.1 1.3M590.2 726c0 1.4.2 1.9.5 1.2.2-.6.2-1.8 0-2.5-.3-.6-.5-.1-.5 1.3m1613.3 6c1 1.1 2 2 2.3 2s-.3-.9-1.3-2-2-2-2.3-2 .3.9 1.3 2m-974.5.3c0 .2 1.5 1.6 3.3 3.3l3.2 2.9-2.9-3.3c-2.8-3-3.6-3.7-3.6-2.9m1112.8 3.4c.7.3 1.6.2 1.9-.1.4-.3-.2-.6-1.3-.5-1.1 0-1.4.3-.6.6m14 1c.7.3 1.6.2 1.9-.1.4-.3-.2-.6-1.3-.5-1.1 0-1.4.3-.6.6m91 0c.7.3 1.6.2 1.9-.1.4-.3-.2-.6-1.3-.5-1.1 0-1.4.3-.6.6m-74 1c.6.2 1.8.2 2.5 0 .6-.3.1-.5-1.3-.5s-1.9.2-1.2.5m61 0c.7.3 1.6.2 1.9-.1.4-.3-.2-.6-1.3-.5-1.1 0-1.4.3-.6.6m-1615 25c.7.3 1.6.2 1.9-.1.4-.3-.2-.6-1.3-.5-1.1 0-1.4.3-.6.6m1519 2c.7.3 1.6.2 1.9-.1.4-.3-.2-.6-1.3-.5-1.1 0-1.4.3-.6.6m-1006.5 1c.9.2 2.3.2 3 0 .6-.3-.1-.5-1.8-.5-1.6 0-2.2.2-1.2.5m28 0c.9.2 2.5.2 3.5 0 .9-.3.1-.5-1.8-.5s-2.7.2-1.7.5m995.5 0c.7.3 1.6.2 1.9-.1.4-.3-.2-.6-1.3-.5-1.1 0-1.4.3-.6.6m23 1c.6.2 1.8.2 2.5 0 .6-.3.1-.5-1.3-.5s-1.9.2-1.2.5M405.5 770c1 1.1 2 2 2.3 2s-.3-.9-1.3-2-2-2-2.3-2 .3.9 1.3 2M267 786.2c4.1 4.5 5 5.3 5 4.5 0-.2-2.1-2.3-4.7-4.7l-4.8-4.5zm111.5 1.8c2.7 2.7 5.1 5 5.4 5s-1.7-2.3-4.4-5c-2.7-2.8-5.1-5-5.4-5s1.7 2.2 4.4 5m1096.8-4.3c.9.2 1.4.9 1.1 1.5-.4.7-.2.8.4.4 2-1.2 1.3-2.6-1-2.5-1.8.1-1.9.2-.5.6m-5.5 1c.6.2 1.8.2 2.5 0 .6-.3.1-.5-1.3-.5s-1.9.2-1.2.5m-5.5 1c.9.2 2.3.2 3 0 .6-.3-.1-.5-1.8-.5-1.6 0-2.2.2-1.2.5m-867.1 2.8c0 1.6.2 2.2.5 1.2.2-.9.2-2.3 0-3-.3-.6-.5.1-.5 1.8m858.6-1.8c.6.2 1 .8.8 1.1-.2.4.2 1.2.9 1.9 1 1 1.4.9 1.9-.3.3-.9.1-1.2-.4-.9-.6.3-1 .1-1-.6 0-.6.8-.9 2-.6 1.1.3 2 .1 2-.4s-1.7-.9-3.7-.8c-2.1 0-3.2.3-2.5.6m-205.4 1.8c.3.8 0 1.4-.7 1.2-.7-.1-1.1.4-.9 1 .1.7-.3 1.3-.9 1.3-.5 0-.7.4-.4 1 .3.5.1 1-.5 1s-.9.4-.6.9-.1 1.1-.9 1.5c-.9.3-1.2 1.2-.8 2.2.4 1.1.2 1.5-.4 1.1s-1 .1-.9 1.1c0 .9-.4 1.6-1.1 1.5-.6-.1-1.4.4-1.7 1.2s0 1.5.7 1.6c.7 0 .1.5-1.2 1-1.9.8-2.1 1.2-1.1 2.4.7.8.8 1.5.3 1.5s-1.8.7-2.9 1.6c-1 .8-1.3 1.3-.6.9 1-.5 1-.1.1 1.9-.7 1.4-1.5 2.4-1.9 2.1-.3-.2-1.5 1-2.5 2.7s-1.3 2.8-.8 2.5c.6-.4.8.3.6 1.8-.4 1.6-1 2.2-2.1 1.8-1-.4-1.3-.2-.8.5.4.7.3 1.2-.3 1.2-1.3 0-4.2 5.5-3.4 6.4.4.3.1.6-.6.6s-.9.4-.6 1c.3.5.1 1-.5 1s-.9.4-.6.9-.1 1.1-.9 1.5c-.9.3-1.2 1.2-.8 2.2.4 1.2.3 1.5-.5 1-1.1-.6-1.4 0-1.1 2 0 .4-.3 1-.8 1.3-.4.3-1.5 1.5-2.3 2.5-1.3 1.8-1.3 1.9 0 1.2.9-.4.8-.2-.2.7-1 .8-1.5 1.7-1.1 2 .3.4.1.7-.6.7s-.9.4-.6 1c.3.5.2 1-.4 1-1.3 0-4.2 5.5-3.4 6.4.4.3.1.6-.6.6s-.9.4-.6 1c.3.5.1 1-.5 1s-.8.4-.5 1c.3.5.2 1-.2 1-1 0-4.4 5.5-4.2 6.7.3 2-.2 3.4-1.1 2.8s-1.4.8-1.1 2.7c0 .5-.4.8-1 .8-.5 0-.7.5-.4 1.1.4.6-.2 1.9-1.4 3s-1.9 2.4-1.6 2.9c.3.4.1 1-.4 1.2-.5.1-1.1 1-1.3 1.8s-.9 2.1-1.6 2.8c-.7.8-1 1.8-.7 2.3.4.5.1.9-.5.9-.7 0-.9.7-.6 1.6s.2 1.2-.5.8c-.6-.3-1 .1-.9 1.2.4 3.2 0 4.5-.9 4-1.1-.7-2.3 2.2-1.5 3.5.3.5 0 .9-.6.9s-.8.5-.5 1c.9 1.5-.5 5.1-1.7 4.4-.6-.4-.8.1-.3 1.6.5 1.4.3 2-.3 1.6-.9-.5-3.7 8.5-3.7 11.9 0 .5-.4 1.3-.8 1.6-.5.4-1 1.8-1 3.3-.1 1.4-.6 2.6-1 2.6-.5 0-.5 1-.2 2.1.5 1.6.4 1.9-.5 1.4s-1-.1-.5 1.5c.5 1.5.4 2-.4 1.6-1-.7-1.5.8-1.4 4.1.1.7-.4 1.3-.9 1.3s-.6 1-.3 2.1c.5 1.5.4 1.9-.4 1.4s-1 .2-.6 2.2c.5 2.3.4 2.5-.5 1.3-1-1.2-1.1-1.1-.7.7.3 1.2 0 2.4-.5 2.5-.5.2-1.1 1.6-1.1 3.1-.1 1.5-.6 2.7-1.1 2.7-.4 0-.5 1.2-.2 2.6.5 1.9.3 2.4-.5 1.8-.9-.5-1-.1-.7 1.4.4 1.2.2 2.2-.4 2.2-.5 0-.6 1-.3 2.1.5 1.5.4 1.9-.4 1.4s-1 .1-.5 2.1c.5 1.9.4 2.5-.5 2-.9-.6-1 0-.5 2s.4 2.5-.6 1.9c-.9-.5-1-.2-.5 1.4.4 1.3.2 2.1-.5 2.1-.6 0-.8 1-.4 2.6.5 2 .4 2.5-.5 2-.9-.6-1 0-.5 2 .5 1.9.4 2.5-.5 2-.9-.6-1 0-.6 2.1.5 2.2.4 2.5-.5 1.3s-1-.9-.5 1.3c.4 2.1.3 2.7-.6 2.1-.9-.5-1 .1-.5 2 .4 1.8.3 2.5-.4 2.1-.5-.3-1-.2-1 .4 0 .5-.3 1.8-.6 2.8-.5 1.5-.4 1.6.6.3s1.1-1.2.6.3c-.3 1-.6 2.3-.6 2.8 0 .6-.5.7-1.2.3-.8-.5-.9-.2-.5.9.3.9.2 1.9-.4 2.3-.6.3-.8 1.2-.5 2s.1 1.4-.4 1.4c-.6 0-1 .5-1 1.1 0 .5.4.8.9.5.5-.4.4 1-.1 2.9-.6 1.9-1.5 3.2-2.1 2.8-.5-.3-.6.4-.2 1.7.5 1.7.4 2.1-.6 1.5-.9-.6-1.1-.2-.7 1.3.4 1.2.2 2.2-.4 2.2s-.7 1.1-.4 2.6c.5 1.9.3 2.4-.5 1.8-.9-.5-1-.1-.7 1.4.4 1.2.2 2.2-.4 2.2s-.8.9-.5 2 .1 2-.5 2-.8.9-.5 2c.3 1.3.1 1.8-.6 1.3-.6-.4-.8 0-.4 1 .3 1 .2 1.7-.4 1.7s-.8.9-.4 2.1c.5 1.3.3 1.9-.3 1.5-1.1-.7-2.5 2.1-1.6 3.5.3.5.1.9-.4.9-1.3 0-3.4 5.9-2.5 7.3.4.6.1.7-.7.2-1-.6-1.2-.4-.7.8.3 1 .2 1.7-.3 1.7-1.9 0-2.1 4.6-.4 8.5 1 2.2 1.6 4.8 1.5 5.9-.2 1.1.2 1.6.8 1.2s1.1-.2 1.1.3c0 .6.4 1.1.9 1.1 1.2 0 9.2-15.6 8.4-16.4-.3-.3-.2-.6.4-.6s1.4-.7 1.7-1.6c.4-1 .2-1.3-.7-.9-.6.4-.5.1.4-.7.9-.7 1.4-1.9 1.1-2.7s0-1.1.6-.7c1.3.8 2.3-1.9 1.5-4.1-.5-1.2-.3-1.4.7-.8s1.2.4.7-.8c-.3-1-.2-1.7.4-1.7s.8-.9.4-2.1c-.5-1.6-.4-1.9.6-1.4.9.6 1.1.3.6-.8-.3-1-.2-1.7.4-1.7s.8-.9.4-2.1c-.5-1.6-.4-1.9.6-1.4.9.6 1.1.3.6-.8-.3-1-.2-1.7.4-1.7s.8-.9.4-2.1c-.5-1.6-.4-1.9.5-1.4s1 .1.5-1.5c-.5-1.4-.3-2 .3-1.6.6.3 1.5-.8 2.1-2.4.6-1.8.6-2.8.1-2.5-.6.3-.7-.1-.4-.9.3-.9 1.1-1.6 1.7-1.6s.7-.3.4-.7c-.4-.3-.1-1.3.6-2.1.9-1.2.9-1.4 0-.9-.8.5-.7-.6.3-3.8.9-2.5 2-4.3 2.5-3.9.5.3.6-.3.2-1.2q-.75-1.8.6-.9c1 .6 1.1.2.6-1.5-.5-1.6-.4-2 .5-1.5s1 .1.5-1.5c-.5-1.7-.4-2.1.6-1.5.9.6 1.1.2.7-1.3-.4-1.4-.2-2 .5-1.5.6.4.8-.2.5-1.5-.4-1.2-.2-2.2.4-2.2s.7-1.3.3-3.1c-.5-2.3-.4-2.9.4-2.4s1-.1.5-2.1c-.5-2.1-.4-2.5.6-1.9s1.1.2.6-2c-.5-1.9-.2-3.3 1-4.6.9-1.1 1.3-1.9.8-1.9s.2-.7 1.5-1.6c1.8-1.3 2-1.8 1-2.5-1.1-.7-.9-.9.5-.9 1.1 0 1.6-.3 1.3-.7-.4-.3.4-1.6 1.6-2.7 1.3-1.2 2.1-2.8 1.9-3.5-.3-.8 0-1.1.5-.8.6.4.8-.4.5-1.8-.3-1.7.1-2.7 1.2-3.1.9-.3 1.6-1 1.6-1.6 0-.5-.4-.6-1-.3s-.7-.1-.4-.9c.3-.9 1.1-1.3 1.6-1 .6.4.7-.2.3-1.6-.5-1.7-.4-2.1.6-1.5.9.6 1.1.4.6-.8-.3-.9-.2-1.9.4-2.2.5-.4.7-1 .4-1.5s0-1.2.6-1.5c.5-.4.8-1.3.5-2.1s-.1-1.4.5-1.4.9-.7.5-1.5c-.3-.8-.1-1.5.5-1.5s.8-.4.5-.9c-.8-1.3.4-4.2 1.5-3.5.8.5 1.3-.9 1-2.9 0-.4.3-.7.8-.7s1.7-1.2 2.7-2.8c1.3-1.9 1.3-2.4.3-1.7-.8.5-.3-.1 1.1-1.4s1.8-2 1-1.6c-.8.3-.6-.1.5-1s1.9-2.1 1.8-2.6c-.2-.5.2-.9.8-.9.5 0 .7-.5.4-1-.3-.6-.1-1 .5-1 .7 0 1-.7.7-1.5-.4-.8-.2-1.7.4-2.1.6-.3.8-1.2.5-2s-.1-1.4.5-1.4.8-.9.4-2c-.4-1.2-.2-2 .5-2s.9-.8.5-2.1c-.5-1.6-.4-1.9.5-1.4 1 .6 1.1.1.6-1.9-.4-1.8-.3-2.5.4-2.1.9.6 1.4-1 1.3-4.2-.1-.7.3-1 .8-.7s1-.1 1-.8c.1-.7.2-1.8.3-2.3 0-.6 1.7-2.7 3.6-4.7 4.3-4.4 8.4-12.3 7.6-14.4-.3-.8-.2-1.3.3-1 1.1.7 2.4-4.1 1.5-5.6-.5-.7-.2-.8.6-.3 1 .6 1.2.3.8-1.3-.4-1.4-.2-2 .5-1.5.6.4.8 0 .4-1-.8-2 .2-4.9 1.3-4.2.5.3.8-.6.7-1.9-.1-1.4.3-2.5.8-2.6 1.4-.1 4.4-6.2 3.8-7.7-.3-.6.4-1.7 1.5-2.4s1.8-1.8 1.5-2.5c-.2-.6.1-1.5.8-2 .8-.5 1-.3.5.7-.4.8 0 .5.8-.5 1.2-1.5 1.3-2.2.4-2.7-.9-.6-.8-1 .4-1.4 1-.4 1.4-1.3 1.1-2.2-.5-1.2-.3-1.4.6-.8 1 .6 1.1.2.6-1.5-.5-1.6-.4-2 .4-1.5s1-.1.5-2.1c-.5-2.1-.4-2.5.6-1.9.9.6 1.1.4.6-.4-1.1-1.8.3-8.3 1.6-7.5.7.4.8-.1.3-1.6s-.4-2 .4-1.6c.7.5.9.1.5-.8-.3-.9-.1-1.6.5-1.6s.8-.7.4-1.7c-.4-1.1-.3-1.4.5-.9 1.1.6 1.4.1 1.1-2 0-.3.8-1.2 1.8-2.1 1.1-.9 1.2-1.2.3-.8-1.2.5-1.2.4.1-.7.9-.7 1.4-1.8 1.2-2.5-.2-.6.1-1.5.8-1.9.8-.4.9-.3.5.4s-.5 1.2-.3 1.2c.3 0 1.4-1.6 2.6-3.6 1.2-1.9 1.5-3.2.9-2.9-.7.4-.4-.1.6-.9 1.1-.9 1.6-1.6 1.1-1.6s0-.7 1.1-1.6c1-.8 1.2-1.3.4-.9-1 .4-.9.2.2-.8 1-.8 1.5-1.7 1.1-2-.3-.4 0-.7.8-.8 1.4 0-15.7-4.8-17.5-4.9-.4 0-.6.7-.2 1.5m-108.1 272c-.3.9-.8 1.4-1 1.1-.3-.3-.2-.9.2-1.5.9-1.6 1.5-1.3.8.4m328.8-269.1c-1.3 1.4-2.9 2.2-3.7 1.9s-1.4 0-1.4.6c0 2 2.6 1.1 5.5-1.9 1.6-1.7 2.6-3 2.4-3-.3 0-1.6 1.1-2.8 2.4m-16.2 1.4c.7.5 1.1 1.4.7 2-.3.6-.2 1.3.2 1.6.5.3.9-.4.8-1.6 0-1.2-.8-2.3-1.6-2.5-1.2-.4-1.3-.3-.1.5m-590.1 1.9c1.2.2 3 .2 4 0 .9-.3-.1-.5-2.3-.4-2.2 0-3 .2-1.7.4"/><path d="M1452 796.9c-.7 1.9-1.8 3-2.6 2.7-.7-.3-1.5.2-1.8 1-.9 2.4-.7 3.1.5 1.4.8-1.2.9-1 .4.8-1.3 4.6-4.6 11.2-5.6 11.2-.6 0-.5.8.2 2.2 1 1.8.9 2-.5 1.5-1.4-.6-1.6-.3-1.1 1.4.5 1.6.4 1.9-.5 1.4s-1-.2-.5 1.4c.8 2.6-.3 6.3-1.6 5.5-.7-.4-.8.8-.4 3.3.5 2.8.4 3.4-.4 2.3-.9-1.3-1.1-1.3-1.1.1 0 .8.6 2.1 1.3 2.8 1 1.1.9 1.3-.6.7-1.6-.5-1.8-.2-1.2 2.7.5 2.5.4 2.9-.5 1.7s-1-.9-.5 1.3c.3 1.7.2 2.6-.4 2.3-.5-.4-.7.3-.3 1.6.3 1.4.2 1.9-.6 1.4-1.7-1-1.5.9.1 2.3 1.1.8 1.6.5 2.6-1.5 1-2.2 1.4-2.4 2.7-1.3 1.2 1 1.7 1 2.7-.1.9-1 .9-1.1 0-.6-.7.4-1.3.2-1.3-.3 0-.6.5-1.1 1-1.1.6 0 1-.5 1-1 0-.7-.6-.7-1.9 0-1.5.7-2.2.7-2.7-.2-.4-.7-.4-1 .1-.6 1 .9 3.7-1.1 3-2.2-.3-.4.1-1.3.9-1.9 1-.9 1.3-.7 1.2 1.1-.1 1.3.4 3.7 1.1 5.5.8 2 .9 3.4.3 3.8-.6.3-1 .1-1-.5 0-.7-.7-.9-1.6-.6-.9.4-2.2.2-2.9-.4-.8-.7-1.5-.3-2.3 1.5-1 2.2-1.5 2.4-3.2 1.5-2.2-1.2-2.7-.1-.7 1.9 1 1.1.9 1.3-.6.8-1.4-.6-1.7-.3-1.2 1.2.7 2.2-.4 5.3-1.6 4.5-.5-.3-.6.3-.2 1.2.4 1.2.3 1.5-.6 1-.9-.6-1-.1-.5 1.8s.2 2.6-.9 2.6c-1 0-1.3.7-1 2 .3 1.2-.1 2.2-1 2.6-.9.3-1.3 1.2-1 2 .3.7-.2 1.7-1.1 2s-1.3 1-1 1.5 0 .9-.6.9-.8.4-.5 1c.3.5.2 1-.4 1s-.8.8-.4 1.7c.3 1 .2 1.5-.2 1-1.3-1.1-4.3 4.2-3.8 6.6.4 1.8.3 1.9-.6.7-.7-1-1.1-1.1-1.1-.3 0 2.1-.3 2.7-1.7 4.1-.7.8-1 1.8-.7 2.4.4.6-.1 1.7-1.1 2.5-1.1.7-1.6 1.3-1.2 1.3s-.2.9-1.3 2c-1.2 1.2-1.8 2.5-1.5 3 .4.6.1 1-.5 1s-.9.4-.6.9-.1 1.2-1 1.5c-.9.4-1.4.9-1.1 1.2.3.4-.1 1.3-.9 2.1s-1.2 1.8-.9 2.3c.3.4-.2 1-1 1.4-.9.3-1.2 1.2-.8 2.2.4 1.2.3 1.5-.5 1-1.1-.7-1.6.5-1.3 3.1.1.6-.4 1.5-1 1.9-.8.5-.9.3-.4-.6s.4-1.1-.4-.6c-.6.4-.8 1.2-.5 1.8.4.6-.2 1.8-1.4 2.7-1.1.9-2.2 2.3-2.4 3.1s-1 2.1-1.8 2.8c-.8.8-.9 1.1-.3.7.9-.4 1.1-.1.7 1-.4.9-.9 1.3-1.2 1-.9-.9-4.1 4.7-3.5 6.2.3.8 0 1.3-.8 1.1-.7-.2-1.3.4-1.4 1.2 0 .8-1 2.5-2.3 3.8-1.2 1.2-2 2.7-1.7 3.2.4.6.1 1-.6 1s-1 .3-.6.6c.3.3-.3 1.4-1.4 2.5s-1.7 2.4-1.4 2.8c.2.5-.2 1.2-1.1 1.5-.9.4-1.4 1.3-1 2.2.3.8.2 1.2-.4.9-.9-.6-1.4.8-1.1 2.7 0 .5-.3.8-.9.8-.5 0-1.6 1.3-2.5 3-.9 1.6-1.3 3-1 3s-.4.9-1.5 2c-1.2 1.2-1.8 2.5-1.5 3 .4.6.1 1-.5 1s-.9.4-.6.9-.1 1.2-1 1.5c-.9.4-1.4.9-1.1 1.2.3.4-.1 1.3-.9 2.1s-1.2 1.8-.9 2.3c.3.4-.2 1.1-1.1 1.4-.9.4-1.4 1.3-1 2.2.3.8.2 1.2-.4.9-.9-.5-1.1-.1-1 2 0 .3-.9 1.5-2 2.7-2 2.2-2.4 3.2-2.1 5.6.1.7-.5 1.5-1.3 1.8-.9.3-1.3 1-1 1.6.3.5-.6 2-2.1 3.4-1.4 1.3-2.3 2.9-1.9 3.6.4.6-.1 1.7-1.1 2.5-1.1.7-1.5 1.3-1 1.3s0 .7-1.1 1.6c-1 .8-1.3 1.3-.7.9.9-.4 1.1-.1.7.9-.3.9-1 1.4-1.4 1.1s-1.1.2-1.4 1.1c-.3.8-.2 1.2.4.9s.7.1.4.9c-.3.9-1 1.3-1.5 1-.9-.5-1.3.9-1 3.5.2.7-.2 1-.8.6-1-.5-1.3.1-1 2.1 0 .4-.4 1-.9 1.3-.6.3-1.2 1.3-1.4 2.1s-.9 2.1-1.6 2.8c-.7.8-1 1.8-.7 2.3.4.5.1.9-.5.9-.7 0-.9.7-.6 1.6.3.8.2 1.3-.3 1-1-.7-3.3 4.9-2.4 5.8.4.3.1.6-.6.6s-.9.4-.6 1c.3.5.1 1-.5 1-.7 0-.9.7-.6 1.6.3.8.2 1.3-.3 1-1.1-.7-2.3 2.2-1.5 3.5.3.5 0 .9-.6.9s-.8.4-.5 1c.3.5.1 1-.5 1-.7 0-.9.8-.5 2.1.5 1.3.3 1.9-.3 1.5-1.1-.7-2.5 2.1-1.6 3.5.3.5 0 .9-.6.9-.7 0-1 .7-.6 1.5.3.8.1 1.5-.5 1.5-.5 0-.7 1.1-.3 2.6.5 2 .4 2.5-.6 1.9-.9-.5-1-.2-.5 1.5.5 1.6.4 2-.5 1.5-.9-.6-1 .1-.5 2.6.5 2.7.4 3.1-.5 1.9-1-1.2-1.1-1.1-.7.7.3 1.3.1 2.3-.5 2.3-.5 0-.6 1-.3 2.1.5 1.6.4 1.9-.6 1.4-.9-.6-1.1-.3-.6.8.3 1 .2 1.7-.4 1.7s-.8.9-.4 2.1c.5 1.6.4 1.9-.6 1.4-.9-.6-1.1-.3-.6.8.3 1 .2 1.7-.4 1.7s-.8.9-.4 2.1c.5 1.6.4 1.9-.6 1.4-.9-.6-1.1-.3-.6.8.3 1 .2 1.7-.4 1.7s-.8.9-.4 2.1c.5 1.6.4 1.9-.5 1.4s-1-.1-.5 1.5c.5 1.7.4 2.1-.6 1.5-.9-.6-1.1-.2-.7 1.3.4 1.2.2 2.2-.4 2.2s-.8.9-.5 2c.3 1.2.1 1.8-.5 1.4s-.8.1-.3 1.5c.4 1.3.2 2.1-.5 2.1s-1 .7-.6 1.5c.3.8 0 1.5-.5 1.5-.6 0-.9.9-.6 2s.1 2-.5 2c-.5 0-.6 1-.3 2.1.5 1.6.4 1.9-.5 1.4-1-.6-1.1-.1-.6 1.9s.3 2.6-.5 2.1-.9-.1-.4 1.4c.4 1.3.2 2.1-.5 2.1-.6 0-.8 1.1-.4 2.7.4 2.2.3 2.5-.6 1.3s-1-.7-.5 2 .4 3.2-.5 2-1-.7-.5 2 .4 3.2-.5 2-1-.9-.5 1.3c.4 2.1.3 2.7-.6 2.1-.9-.5-1-.1-.7 1.4.3 1.2.2 2.2-.3 2.4-.6.2-1.1 1.5-1.3 2.9-.1 1.3-.6 3-1 3.7s-.4 1.6-.1 2.2c.3.5.1 1-.5 1-.7 0-.9.8-.5 2.1.5 1.5.4 1.9-.4 1.5-.6-.4-1.1-.2-1.1.3 0 .6.4 1.1 1 1.1.5 0 .7.7.4 1.5-.4.8-1 1.2-1.5.9-.6-.3-.7.6-.4 2.3.5 2.2.4 2.5-.5 1.3s-1-.9-.5 1.3c.4 2.1.3 2.7-.6 2.1-.9-.5-1-.1-.7 1.4.4 1.2.2 2.5-.3 2.8-.6.3-.7 1.4-.4 2.5.4 1.1.2 1.9-.5 1.9-.8 0-1 .9-.6 2.6.5 1.8.3 2.4-.5 1.8-.9-.5-1 .1-.5 2 .5 2 .3 2.6-.5 2.1-.7-.5-.9-.1-.5 1.2.8 2.6-.3 5.5-1.8 4.6-.6-.4-.6 0 .2.9 1.1 1.4.9 1.9-1 3.2-1.2.9-1.8 1.6-1.3 1.6.6 0 .3.5-.5 1-1.1.7-1.1 1-.2 1 .7 0 1 .5.7 1-.4.6-1.1.7-1.7.4-.7-.5-.9-.1-.5.9.3 1 .2 1.7-.3 1.7-1.4 0-3.2 6.8-2.5 9.2.4 1.3 1.5 3.2 2.4 4.2 1.3 1.5 1.3 1.8.1 1.1s-1.3-.6-.3.7c.7.8 1 1.8.6 2.1-.3.4-.1 1.3.5 2 .7.8.9 1.7.5 2-.3.4-.4.7-.1.7 1.2 0 5.8-9.2 5.1-10.3-.3-.6-.1-.7.5-.3.7.4 1.3.1 1.4-.6 0-.7.2-2 .2-2.8.1-.8.7-1.4 1.3-1.3s1.4-.4 1.7-1.3c.3-.8.1-1.2-.4-.9-.6.3-.7-.1-.4-.9.3-.9.9-1.4 1.3-1.1.4.2.7-.6.7-1.8-.1-1.2.4-2.1 1.1-2 .8.2 1-.4.6-1.4-.4-1.1-.3-1.4.5-.9s1 .1.5-1c-.4-1.1-.2-1.5.4-1.1s1.4 0 1.7-.9c.9-2.4.7-3.1-.4-1.4-.7 1-1 1.1-1 .2 0-.7.6-1.5 1.4-1.8s1.2-1.2.9-2 0-1.4.6-1.4.8-.7.4-1.7c-.5-1.1-.3-1.4.6-.8 1 .6 1.1.2.6-1.5-.5-1.6-.4-2 .5-1.5s1 .2.6-1.2c-.8-2.4.2-5.5 1.5-4.7.6.3.7-.5.3-2.2-.5-2.1-.4-2.5.6-1.9s1.2.4.7-.8c-.3-1-.2-1.7.3-1.7.6 0 1-.5 1-1.1 0-.5-.6-.7-1.2-.4-.7.4-.5 0 .6-.9 1-.8 1.5-1.9 1.1-2.5-.3-.6-.1-1.1.5-1.1.7 0 1-.7.6-1.5-.3-.8-.1-1.5.5-1.5s.8-.8.4-1.9c-.7-2.4.4-5.3 1.8-4.4.6.4.8 0 .4-1s-.2-1.7.4-1.7.9-.7.5-1.5c-.3-.8-.1-1.5.4-1.5s.7-.7.4-1.5c-.4-.9 0-1.5.7-1.5 1.1 0 1.1-.2-.1-1s-1.2-1 .2-1.5c1.3-.5 1.6-1.5 1.2-3.8-.5-2.5-.3-2.9.6-1.7.8 1.2.9.6.5-2.5-.5-3.1-.4-3.7.5-2.5.8 1.1.9.6.4-2.4s-.4-3.7.6-3.1c.9.5 1 .2.5-1.4-.4-1.2-.2-2.1.4-2.1s.7-.7.4-1.7c-.5-1.2-.3-1.4.7-.8.8.5 1.1.3.8-.6-.3-.8.5-1.9 1.6-2.5 1.2-.6 2-1.6 1.8-2.3-.1-.7.2-1 .7-.7s1.5-.2 2.2-1.1c1.2-1.4 1.2-1.6-.1-.9-.8.4-.7.1.4-.8 1-.8 1.5-2 1-2.7-.5-.8-.3-1 .6-.4 1 .6 1.2.4.7-.9-.4-.9-.3-1.5.2-1.1 1.2.7 3.5-6.1 2.5-7.6-.5-.8-.3-.9.6-.4 1 .6 1.2.3.8-1.3-.4-1.2-.2-2.2.4-2.2.5 0 .6-1 .3-2.1-.5-1.5-.4-1.9.4-1.4s1-.1.5-2.1-.4-2.5.6-1.9c.9.5 1 .2.5-1.5s-.4-2.1.6-1.5c.9.6 1.1.3.6-.8-.3-1-.2-1.7.4-1.7s.7-.5.4-1c-.3-.6.1-1.8 1-2.7 1.3-1.3 1.4-1.8.3-2.4-1.2-.8-.4-1.3 1.5-1 .5.1.5-.4.1-1-.4-.7.5-2.3 2.2-3.8 1.7-1.4 2.5-2.4 1.9-2.1s.1-.5 1.5-1.8c1.4-1.2 2.4-2.7 2.2-3.2-.1-.6.2-1 .8-1 .5 0 .7-.7.4-1.5-.4-.8-.1-1.5.5-1.5s1.1-.5 1.1-1.1c0-.5-.4-.7-1-.4s-.7-.1-.4-.9c.3-.9 1.1-1.6 1.6-1.6.6 0 .8-.7.5-1.5-.4-.8-.1-1.7.4-2.1.6-.3.8-1.8.5-3.3-.5-2-.4-2.3.5-1.1.8 1.2.9.9.4-1.3-.4-1.9-.2-2.6.5-2.2s.9-.3.5-2.2c-.5-2.2-.4-2.5.5-1.3s1.1 1 .6-1c-.4-1.8.2-3.2 2-4.9 1.3-1.3 2.2-2.6 1.9-2.9s.5-1.2 1.6-2c1.7-1.2 1.8-1.6.8-2.3-1.1-.7-1.1-.9.2-.9.9 0 2.3-.8 3-1.8 1.2-1.5 1.2-1.6-.1-.7-.9.5-.7.2.3-.8 1.1-.9 1.6-1.7 1.2-1.7-.3 0 .1-.7 1-1.6s1.4-2.3 1.1-3.1-.2-1.2.3-.8c.8.5 2.7-5.1 1.9-5.7-.1-.2.5-1.4 1.5-2.8 2-2.9 2.2-4.4.5-3.5-.7.4-.4-.1.7-1 1.7-1.4 1.8-1.7.5-2.5s-1.2-1 .4-1q1.8 0 1.2-1.5c-.3-.8-.1-1.5.4-1.5s.7-.7.4-1.5c-.4-.8.1-1.7 1-2.1s2.1-1.5 2.7-2.6c.9-1.6.8-1.9-.3-1.3-.7.3-.4-.2.8-1.2 1.1-1 1.9-2.4 1.7-3s.1-1.5.8-1.9c.8-.4.9-.3.5.4s-.5 1.2-.2 1.2c1 0 3.7-6.1 3.1-7-.3-.6-.1-1 .5-1s.8-.5.5-1c-.3-.6-.1-1 .5-1 .7 0 .9-.8.5-2.1-.5-1.6-.4-1.9.5-1.4s1 .1.5-1.5c-.5-1.7-.4-2 .5-1.5 1 .6 1.1.1.6-1.9s-.4-2.6.5-2c.9.5 1-.1.5-2-.5-2-.4-2.6.5-2 .9.5 1 .1.7-1.4-.4-1.2-.2-2.2.4-2.2.5 0 .6-.5.3-1-.3-.6-.2-1 .4-1s.8-.7.5-1.5c-.4-.8.1-1.7.9-2.1.9-.3 1.3-1.2 1.1-1.9-.3-.7.3-1.8 1.4-2.4s2.2-1.8 2.6-2.6c.4-1.1.2-1.4-.7-.9-.6.4 0-.4 1.6-1.9 2.8-2.7 3.6-4.3 1.5-3.2-.7.4-.5 0 .4-.8 1-.8 1.5-1.7 1.1-2-.3-.4-.1-.7.5-.7s1.6-1 2.3-2.1c.8-1.5.8-1.9 0-1.5-1.8 1.2-1.2-.2 1.4-3 1.3-1.4 2.2-3 1.9-3.5s-.1-.9.5-.9 1.5-1 2.1-2.3c1.1-2.1 1-2.1-.4-.3-.9 1.1-1.6 1.5-1.6.8 0-.6 1-1.8 2.2-2.6 1.2-.9 1.7-1.6 1-1.6s-1-.5-.7-1c.4-.6 1.1-.8 1.6-.5s.6-.2.2-1.1c-.4-1.1-.2-1.5.4-1.1s1.4 0 1.7-.9c.4-1 .2-1.3-.7-.8-.6.4-.2-.3 1.1-1.5 2.4-2.4 2.9-3.6 1-2.6-.7.4-.5 0 .4-.8 1-.8 1.4-1.7 1-2.1-.3-.4.4-1.5 1.6-2.5 1.3-.9 2.4-2.5 2.6-3.5.1-1 .9-2.2 1.7-2.7s1-.9.5-.9c-.6 0-.1-.7 1-1.6 1-.8 1.2-1.3.4-.9-1.3.6-1.3.5 0-.7.8-.7 2.2-2.2 3-3.2 1.3-1.8 1.3-1.9 0-1.1-.8.4-.5-.2.8-1.4 2.4-2.4 2.9-3.6 1-2.6-.7.4-.5 0 .4-.8 1-.8 1.5-1.7 1.1-2-.3-.4-.1-.7.5-.7s.9-.7.5-1.7-.2-1.4.4-1 1.4 0 1.7-.9c.4-1 .2-1.3-.7-.8-.6.4-.4-.2.6-1.3.9-1.1 1.4-2.3 1-2.6-.3-.4-.1-.7.6-.7.8 0 1.1-.6.7-1.6-.3-.8-.2-1.3.3-1 .9.6 3.5-4.4 2.6-5.2-.3-.3-.5.1-.5.8s-.2 1.1-.5.8c-.7-.7.5-3.9 1.4-3.4.3.2.7-1 .7-2.7.1-1.6.9-3.6 1.8-4.2 1.9-1.4 2.2-2.9.4-2-.7.4-.5 0 .4-.8 1.1-.9 1.5-2.1 1.1-3.7s-.3-2.1.6-1.6c.9.6 1 0 .6-2.1-.5-2.2-.4-2.5.5-1.3s1 .9.5-1.3c-.4-1.9-.2-2.6.5-2.2s.9-.3.5-2.2c-.5-2.2-.4-2.5.5-1.3s1 1.1.5-.7c-.9-3.1 1.4-11.1 2.6-9.2 1.1 1.7 1.1.1-.1-2.6-.7-1.8-.9-1.8-2.1 1-.6 1.6-1.1 3.6-1 4.2.1.7-.3 1.3-.9 1.3-.5 0-1-.9-1-2s.5-2 1-2c.6 0 1-.5 1-1.1 0-.5-.4-.7-1-.4-.5.3-1 .1-1-.4 0-.6.6-1.1 1.4-1.1 1 0 1.3-.8 1-2.5-.6-3.3 1.1-3.2 3.1.2 1.4 2.5 1.5 2.5.9.4-.4-1.6-.3-2.1.5-1.6s1-.1.5-1.9c-.4-1.9-.2-2.8 1.1-3.2.9-.4 1.4-1.3 1.1-2-.3-.8-.1-1.4.5-1.4s.8-.4.5-.9c-.9-1.4 1.5-7.2 2.7-6.4q.9.45.3-.6c-1-1.5.3-5.3 1.5-4.5.6.3.7-.5.4-2.3-.5-2.1-.4-2.4.4-1.3.6.8 1.1 1 1.1.4 0-.5-.5-1.5-1.2-2.2-.6-.6-.8-1.5-.4-1.9s1.1-.1 1.7.7q1.05 1.65.3-1.5c-1-5.2-1.4-5.7-3.3-5.2-1.7.4-3.7-1.6-5.2-5.2-.3-.9-1-.3-1.9 1.8m3.4 2c.4.5-.1.8-.9.7-2.1-.3-3.1-1.6-1.2-1.6.9 0 1.8.4 2.1.9m-11.8 52.9c.1.7 0 .8-.3.2-.2-.5-.9-.8-1.4-.4-.5.3-.9 0-.9-.6 0-1.5 2.3-.7 2.6.8m-5.6 3.2c0 .5-.5 1-1.1 1-.5 0-.7-.5-.4-1 .3-.6.8-1 1.1-1 .2 0 .4.4.4 1m5 1c0 .5-.5 1-1.1 1-.5 0-.7-.5-.4-1 .3-.6.8-1 1.1-1 .2 0 .4.4.4 1m-59.6 92.6c.3.8.2 1.2-.4.9s-1-1-1-1.6c0-1.4.7-1.1 1.4.7m-99 258.2c.3.5-.1.9-.9.9s-1.2-.4-.9-.9c.3-.4.7-.8.9-.8s.6.4.9.8m3.9 4.2c-.3 1.1-.7 2-.9 2s-.4-.9-.4-2 .4-2 .9-2 .7.9.4 2M1464 796c0 .5.5 1 1.1 1 .5 0 .7.5.3 1.2s-.3.8.5.4c.9-.6.9-1.1 0-2.2-1.4-1.7-1.9-1.8-1.9-.4m-96.2.7c-6.4.4-6.9.6-8.3 3.4-.9 1.6-2 2.7-2.4 2.4-.5-.3-.7.4-.4 1.5.4 1.4 0 2-1 2-.9 0-1.9.5-2.3 1.2s-.3.8.4.4c1.5-.9 1.5.3 0 3.7-.7 1.5-1.8 2.5-2.4 2.3-.7-.3-1 .3-.7 1.5.3 1.1 0 1.9-.6 1.9-.7 0-.9-.5-.5-1.2s.3-.8-.4-.4c-.6.4-.8 1.4-.5 2.3.4 1.1.3 1.4-.5.9s-1-.1-.5 1c.4 1.1.3 1.5-.4 1.1-.7-.5-.9 0-.6 1.3.3 1.2 0 2-.7 2s-1 .8-.7 1.9c.3 1.5 0 1.9-1.3 1.6s-1.6.1-1.3 1.6c.3 1 .1 1.9-.5 1.9-.5 0-1.2.9-1.5 2.1s-1 1.8-1.5 1.5c-.6-.3-.8.2-.5 1.3.3 1-.1 2.2-.8 2.7q-1.35.75-.6-.9c.9-2.4 0-2.1-1.4.4-.8 1.7-.8 2 .1 1.4.8-.5 1.1-.3.8.6-.3.8-1 1.3-1.6 1.2-.6-.2-.9.3-.6 1.1s0 1.7-.7 2.2c-.8.5-1 .3-.4-.6.5-.9.4-1.1-.4-.6-.6.4-.9 1.1-.6 1.6s-.1 2.2-1 3.7c-1 1.7-1.4 2-1.1.8.6-2 .6-2-.9-.1-1.2 1.6-1.2 2.2-.2 3.5 1 1.2.9 1.4-.5.8-1-.3-1.7-.3-1.7.1.3 2-.2 3.3-1.1 2.7s-1.4.8-1.1 2.7c0 .5-.3.8-.9.8-.5 0-1.4 1-2.1 2.1-.8 1.6-.8 2 .1 1.4.7-.4.5.6-.4 2.4-.9 1.7-1.9 3.1-2.2 3.1s-.2-.5.2-1.2c.4-.6.3-.8-.4-.5-.5.4-.8 1.6-.5 2.7.4 1.4 0 2-1 2-.9 0-2.1 1-2.8 2.1-.7 1.5-.8 1.9 0 1.5.7-.5.9-.1.5.8-.3.9-.9 1.4-1.3 1.2-.4-.3-1.3.4-2 1.6-1 1.6-1 1.9.1 1.3.7-.3.4.1-.6.9-1.1.9-1.6 1.6-1.2 1.6s0 .7-.8 1.6c-.9.8-1.3 2-1 2.6.4.6.2.8-.3.5-1.1-.7-4 5-3.5 6.6.1.5-.2.6-.8.2-.9-.5-1.5.9-.7 1.8.1.2-.6 1.1-1.6 2.1-.9 1-1.5 2.1-1.2 2.6.3.4-.2 1.1-1.1 1.4-.9.4-1.4 1.3-1 2.2.3.8.2 1.2-.4.9-1-.6-1.4.8-1 3.5.1.8-.2 1.2-.6.7-1-1-4.4 4.3-3.7 5.9.3.8-.2 1.7-1.1 2s-1.3 1-1 1.5 0 .9-.6.9-.8.4-.5 1c.3.5.2 1-.4 1s-1.5 1-2.2 2.1c-.7 1.5-.8 1.9 0 1.5.7-.5.9-.1.5.8-.3.9-1 1.3-1.5 1-.8-.5-1.3.9-1 2.8 0 .5-.4.8-1 .8-.5 0-.7.4-.4 1 .3.5.2 1-.4 1s-1.5 1-2.2 2.1c-.7 1.5-.8 1.9 0 1.5.7-.5.9-.1.5.8-.3.9-1 1.3-1.5 1-.9-.5-1.3.9-1 3.5.2.7-.2 1-.8.6-1-.5-1.3.1-1 2.1 0 .3-.7 1.1-1.7 1.8-1.1.8-1.4 1.8-.9 2.6q.75 1.35-.3.6c-1.2-.7-1.6.5-1.3 3.3.2.7-.2 1-.7.7-1.2-.7-2.4 2.2-1.5 3.6.4.7.1.8-.7.3-1-.6-1.2-.4-.7.9.5 1.1.3 1.5-.5 1s-.9-.2-.5 1c.4 1 .3 1.5-.3 1.1-.9-.6-1.2-.2-1.4 2.7-.1.7-.7 1.9-1.4 2.6-.7.8-1 1.8-.7 2.3.4.5.1.9-.5.9-.7 0-.9.7-.6 1.6.4 1 .2 1.3-.6.8s-.9-.2-.4 1.1c.4 1.2 0 2.4-1.4 3.7-1.1 1-2 2.4-2 3.1s.4.6 1-.3c.7-1 1-1.1 1-.2 0 .7-.7 1.5-1.5 1.8-1 .4-1.3 1.3-.9 2.6.4 1.4.2 1.8-.5 1.3-.8-.5-1 .1-.5 2.1.5 1.9.4 2.5-.5 2-.9-.6-1 0-.5 2 .5 1.9.4 2.5-.5 2-.9-.6-1 0-.5 2 .5 2.1.4 2.5-.6 1.9s-1.2-.4-.6 1c.8 2.2-2.2 11.7-3.5 10.9-.6-.3-.7.5-.3 2.2.5 1.8.3 2.5-.3 2.1s-1.4.1-1.8 1c-.3 1-.2 1.9.4 2.1.5.2.7 1 .4 1.8-.3.7-.9 1.1-1.4.8s-.9-.1-.9.5c0 .5.6 1.2 1.3 1.4.7.3.4.6-.6.6-1.4.1-1.7.6-1.2 2.2s.4 1.9-.6 1.4c-.9-.6-1.1-.2-.7 1.3.4 1.2.2 2.2-.4 2.2s-.8.7-.5 1.5c.4.8.1 1.7-.4 2.1-.6.3-.9 1.5-.6 2.5.3 1.2.1 1.7-.5 1.3-.7-.5-.9.2-.4 2 .5 2 .4 2.6-.5 2-.9-.5-1 .1-.5 2 .5 2 .3 2.6-.5 2.1s-.9.2-.4 2.6c.4 2.3.3 2.9-.3 2-.8-1-1.1-.6-1.7 1.7-.3 1.8-.3 3.7.1 4.3.5.8.3.9-.6.4-1-.6-1.1-.2-.6 1.9.5 1.9.3 2.6-.4 2.1s-.9.2-.4 2.1c.5 2.1.4 2.5-.6 1.9s-1.2-.4-.7.8c.3.9.2 1.9-.4 2.3-.5.3-.7 1.5-.3 2.6.4 1.5.3 1.8-.7 1.3-.9-.6-1.1-.2-.7 1.3.3 1.2.1 2.3-.4 2.4-.6.2-1.1 1.8-1.2 3.6 0 1.8-.5 3.2-1 3.2-.4 0-.6.7-.2 1.5.3.8 0 1.5-.5 1.5-.6 0-.9.9-.6 2 .3 1 .1 2-.4 2.2-.6.2-1.1 1.5-1.3 2.9-.1 1.3-.6 3-1 3.7s-.4 1.6-.1 2.2c.3.5.1 1-.5 1s-.8 1-.4 2.6c.5 2 .4 2.5-.6 1.9-.9-.5-1-.2-.5 1.4.4 1.3.2 2.1-.5 2.1-.6 0-1 .8-.9 1.7.1 1-.1 2.5-.4 3.3-1.3 3.4-2.6 9.4-2.1 10.2.3.4.1.8-.4.8-1.2 0-4.3 8-3.6 9.1.3.5.1.9-.4.9-1.1 0-4.2 8.3-4.2 11.2 0 1 .4 1.8.9 1.8s.7.9.4 2 0 2 .6 2c.5 0 .8.7.5 1.5-.4.8-.1 1.5.5 1.5s1 1 .8 2.1c-.1 1.2.5 2.4 1.3 2.6 1.3.4 1.3.3 0-.6s-1.3-1.1.3-1.1c1.5 0 2.2-1.1 1.8-3.3 0-.4.4-.7 1-.7.5 0 .7-.5.4-1-.3-.6-.1-1 .6-1s1-.3.6-.6c-.3-.4.1-1.3.9-2.1s1.2-1.9.9-2.4c-.4-.5-.1-.9.5-.9s.8-.5.5-1c-.3-.6-.1-1 .5-1s.8-.5.5-1c-.3-.6-.2-1 .3-1 .6 0 1.3-.7 1.6-1.6.4-1 .2-1.3-.7-.9-.6.4-.5.1.3-.7.8-.7 1.5-1.9 1.6-2.6.2-2.8.4-3.3 1.3-2.8 1.2.8 2.2-2 1.4-4.1-.4-1.1-.3-1.4.5-.9q1.2.75.6-.9c-.4-.9.1-2.4 1.1-3.5s1.8-3.1 1.8-4.5.4-2.5.9-2.5.6-1 .3-2.1c-.5-1.6-.4-1.9.5-1.4 1 .6 1.1.1.6-1.9s-.3-2.6.5-2.1.9.1.4-1.5-.4-2 .5-1.5 1 .1.5-1.5c-.5-1.7-.4-2.1.6-1.5.9.6 1.1.3.6-.8-.3-1-.2-1.7.4-1.7s.8-.9.4-2.1-.3-1.9.2-1.6c1.2.8 3.6-5.9 2.7-7.4-.4-.8-.3-.9.4-.5s1.3.1 1.3-.8c.2-1.7.5-3.3.9-4.1.1-.3.3-.8.5-1.3.1-.4.5-1.5.9-2.4s.4-2.2 0-2.9c-.5-.8-.3-.9.6-.4 1 .6 1.1.2.6-1.9-.5-2-.3-2.6.5-2.1s.9-.1.4-2.4c-.4-2.1-.3-3.1.5-3.1.9 0 1-1.2.6-3.8-.5-2.8-.4-3.4.4-2.2 1 1.2 1.1 1.1.7-.8-.3-1.2-.1-2.2.4-2.2.4 0 .6-.6.3-1.3-.3-.8 1.3-2.9 3.5-4.9 2.2-1.9 3.8-3.8 3.4-4.2-.3-.3-.1-.6.6-.6s.9-.5.6-1c-.3-.6-.2-1 .3-1 .6 0 1.3-.7 1.6-1.6.4-1 .2-1.3-.7-.8-.6.4-.4-.2.6-1.3 1.1-1.2 1.5-2.7 1.1-3.8-.5-1.3-.4-1.6.4-1.1s1 .2.6-.8c-.3-.9-.1-1.6.6-1.6.6 0 .9-.4.5-.9-.3-.5-.1-1.2.5-1.6s.8-1.1.5-1.6c-.4-.5-.1-.9.5-.9.7 0 1-.6.7-1.4-.3-.7 0-1.9.6-2.6.9-1 .9-1.1-.3-.5-1 .6-.9.1.4-1.3 1-1.2 1.9-3.3 1.9-4.7s.3-2.5.6-2.5c.4 0 1.6-1.9 2.6-4.2 1-2.4 2.8-5 3.9-6 1.2-1 1.7-1.7 1.1-1.8-.5 0 .1-.7 1.3-1.6 1.2-.8 2-2 1.7-2.5-.4-.5-.1-.9.5-.9s.8-.5.5-1c-.3-.6-.1-1 .5-1 .8 0 .9-1.1.5-3.3-.5-2.5-.4-2.9.5-1.7s1 .9.5-1.3c-.4-2.1-.3-2.7.6-2.1.9.5 1-.1.5-2-.5-2-.4-2.6.5-2 .9.5 1-.1.5-2s-.3-2.6.4-2.1.9-.2.4-2.1c-.5-2.1-.4-2.5.6-1.9s1.2.3.8-1.3c-.4-1.2-.2-2 .3-1.6.8.5 1.4-1.7 1-3.9-.1-.5.3-.6.9-.2.5.3 1 0 1-.8s.7-1.7 1.5-2.1c.8-.3 1.5-1.2 1.5-2.1 0-.8.5-1.5 1.1-1.5.5 0 .7-.5.4-1-.3-.6-.2-1 .3-1 1.3 0 4.3-4.7 4.5-7.1.1-1 .5-1.9 1-1.9s.5-1 .2-2.1c-.5-1.6-.4-1.9.6-1.4.9.6 1.1.3.6-.8-.4-1-.2-1.7.4-1.7s.9-.7.5-1.5c-.3-.8-.1-1.5.5-1.5s.9-.7.5-1.5c-.3-.8-.1-1.5.5-1.5s.8-.7.5-1.6c-.4-1-.2-1.3.6-.8s.9.2.5-.9c-.3-1-.2-1.7.3-1.7s.6-.7.3-1.7c-.4-1-.2-1.4.4-1s1.4 0 1.7-.9c.4-1 .2-1.3-.7-.9-.6.4-.4 0 .5-.8 1-.8 1.5-1.7 1.1-2-.3-.4-.2-.7.4-.7 1.1 0 4.1-4 4.5-6.1.2-.7 1.1-2.1 2.1-3.1 1-1.1 1.6-2.6 1.3-3.4-.4-1-.2-1.2.6-.8.8.5.9.2.5-.9-.4-1-.2-1.7.4-1.7s.9-.7.5-1.5c-.3-.8-.1-1.5.5-1.5s.9-.6.6-1.4-.1-1.6.5-1.8 1.1-2.2 1.2-4.5c0-2.3.5-3.9 1-3.6.5.4.6-.6.2-2.1-.5-2-.3-2.6.5-2.1s.9.1.4-1.5-.4-2 .5-1.5c.8.5 1.1 0 .8-1.3-.2-1.2.6-2.8 1.7-3.7s1.4-1.4.8-1c-.9.4-1.1.1-.7-.9.3-.9 1-1.3 1.5-1s.6-.1.3-.9.9-2.9 2.8-4.8c1.8-1.8 2.7-2.9 1.9-2.5-.9.6-1.2.5-.9-.5.3-.8 1.1-1.3 1.7-1.1.7.1 1-.2.6-.8-.3-.5.1-1.3.9-1.6.9-.3 1.3-1 1-1.5s0-.9.6-.9.9-.4.6-.9.1-1.2 1-1.5c.9-.4 1.4-1.3 1-2.2-.3-.8-.2-1.2.3-.9.9.5 2.7-3.2 2.3-4.8-.1-.4.4-.7 1.1-.7.8 0 .7-.4-.3-1-1.3-.8-1.3-1 .2-1 1.2 0 1.5-.5 1.1-1.7-.4-1.1-.3-1.4.5-.9s1 .1.5-1c-.4-1-.2-1.5.4-1.1.5.3.9-.4.9-1.6-.1-1.2.4-2.1 1.1-2 .7.2 1-.4.7-1.2-.4-.9 0-1.5 1-1.5s1.3-.5.9-1.7c-.5-1.2-.3-1.4.7-.8q1.35.75.6-.3c-.4-.7-.3-1.2.2-1.2.6 0 .8-.9.5-2-.3-1.2 0-2 .6-2 .7 0 .9.5.5 1.2-.5.7-.3.8.5.4.7-.5 1-1 .7-1.4-.3-.3.2-1.1 1.2-1.9 1.6-1.2 1.5-1.3-.3-.6-1.8.6-1.8.5-.6-1 .7-.9 1.8-1.4 2.4-1 .6.3.7.1.3-.5-.4-.7-.3-1.2.3-1.2s.8-.6.5-1.4 0-1.7.7-2.2c.8-.5 1-.3.4.6-.5.8-.4 1.1.3.6.6-.4.9-1.3.6-2.1-.3-.7-.1-2.2.6-3.2.9-1.6 1-1.5.5.7-.5 1.9-.4 2.2.4 1 .6-.8.8-2.3.5-3.2-.3-1 .3-2.1 1.3-2.7 1.1-.6 1.3-1.1.5-1.1-.7 0-1-.5-.7-1 .4-.6 1.1-.8 1.6-.5s.6-.2.2-1.1c-.4-1.1-.2-1.5.4-1.1s1.4 0 1.7-.9c.3-.8.2-1.2-.4-.9-.6.4-.6-.2-.1-1.7.5-1.3 1.4-2.2 2-2.1.6.2 1.1-.2 1.1-.7 0-.6-.5-1-1-1-.7 0-.7-.6 0-2 .7-1.2.7-2 .1-2-.5 0-1.3.9-1.6 2s-1.1 2-1.7 2c-.7 0-.6-.5.1-1.4 1.5-1.8.4-2.5-3.1-2-1.6.1-2.8-.1-2.8-.5s1.9-.8 4.3-.8c6.3-.2 8.6-.6 8.1-1.5-.3-.4-.8-.7-1.2-.6s-3.7.3-7.4.5m-.1 4.9c-.3.3-1.2.4-1.9.1-.8-.3-.5-.6.6-.6 1.1-.1 1.7.2 1.3.5m-11.6 9.7c-1 .9-1.1.8-.5-.6.3-1 .9-1.5 1.2-1.2s0 1.1-.7 1.8m-4.7 11.5c.3.5-.1.9-.9.9s-1.2-.4-.9-.9c.3-.4.7-.8.9-.8s.6.4.9.8m3.3 2.4c.2 1.7 0 1.9-.7.8-.5-.8-.6-1.8-.4-2.2.8-1.2 1-1 1.1 1.4m-6.3 8.6c.3.5-.1.9-.9.9s-1.2-.4-.9-.9c.3-.4.7-.8.9-.8s.6.4.9.8m-6.4 5.1c0 .4-.6.8-1.4.8s-1.2-.6-.9-1.4c.5-1.3 2.3-.9 2.3.6m9.5 0c.3.5.2 1.2-.3 1.5s-.9-.1-.9-.9c0-1.7.3-1.9 1.2-.6m.3-41.2c.7.3 1.6.2 1.9-.1.4-.3-.2-.6-1.3-.5-1.1 0-1.4.3-.6.6m108.9.9c.3.8 1.1 1.4 1.9 1.4s1.4.5 1.4 1.2c0 .6.3.9.6.5.3-.3.1-1.3-.4-2.3-1.2-2.1-4.3-2.8-3.5-.8m-632.6 5c0 1.1.3 1.4.6.6.3-.7.2-1.6-.1-1.9-.3-.4-.6.2-.5 1.3m-248.3.1c.7.3 1.6.2 1.9-.1.4-.3-.2-.6-1.3-.5-1.1 0-1.4.3-.6.6m-248.7 2.9c0 1.1.3 1.4.6.6.3-.7.2-1.6-.1-1.9-.3-.4-.6.2-.5 1.3m629.7 6.1c.6.2 1.8.2 2.5 0 .6-.3.1-.5-1.3-.5s-1.9.2-1.2.5m1459.3 2.9c0 1.1.3 1.4.6.6.3-.7.2-1.6-.1-1.9-.3-.4-.6.2-.5 1.3m-1551.3 6.1c.7.3 1.6.2 1.9-.1.4-.3-.2-.6-1.3-.5-1.1 0-1.4.3-.6.6m-242 3c.6.2 1.8.2 2.5 0 .6-.3.1-.5-1.3-.5s-1.9.2-1.2.5m1793.3 21.9c0 1.1.3 1.4.6.6.3-.7.2-1.6-.1-1.9-.3-.4-.6.2-.5 1.3M407 1186.4c0 .2.8 1 1.8 1.7 1.5 1.3 1.6 1.2.3-.4s-2.1-2.1-2.1-1.3m1935.1 74.2c0 1.1.3 1.4.6.6.3-.7.2-1.6-.1-1.9-.3-.4-.6.2-.5 1.3m0 11c0 1.1.3 1.4.6.6.3-.7.2-1.6-.1-1.9-.3-.4-.6.2-.5 1.3"/></g><path fill="#d4d4d4" d="M1156.5 310c0 32.2.1 45.3.2 29.2.2-16 .2-42.4 0-58.5-.1-16-.2-2.9-.2 29.3m299-7.5c0 26.9.1 37.8.2 24.2.2-13.7.2-35.7 0-49-.1-13.3-.2-2.2-.2 24.8m-370.7-17.8c.7.3 1.6.2 1.9-.1.4-.3-.2-.6-1.3-.5-1.1 0-1.4.3-.6.6m19 0c.7.3 1.6.2 1.9-.1.4-.3-.2-.6-1.3-.5-1.1 0-1.4.3-.6.6m92 0c.7.3 1.6.2 1.9-.1.4-.3-.2-.6-1.3-.5-1.1 0-1.4.3-.6.6m14 0c.7.3 1.6.2 1.9-.1.4-.3-.2-.6-1.3-.5-1.1 0-1.4.3-.6.6m83 0c.7.3 1.6.2 1.9-.1.4-.3-.2-.6-1.3-.5-1.1 0-1.4.3-.6.6m20 0c.7.3 1.6.2 1.9-.1.4-.3-.2-.6-1.3-.5-1.1 0-1.4.3-.6.6m212 0c.6.2 1.8.2 2.5 0 .6-.3.1-.5-1.3-.5s-1.9.2-1.2.5m19 0c.7.3 1.6.2 1.9-.1.4-.3-.2-.6-1.3-.5-1.1 0-1.4.3-.6.6m-162.6 8.3c0 1.9.2 2.7.5 1.7.2-.9.2-2.5 0-3.5-.3-.9-.5-.1-.5 1.8m-294.4 2.7c.7.3 1.6.2 1.9-.1.4-.3-.2-.6-1.3-.5-1.1 0-1.4.3-.6.6m301.6 5.5-1.9 2.3 2.3-1.9c2.1-1.8 2.7-2.6 1.9-2.6-.2 0-1.2 1-2.3 2.2m-255.3 9.4c0 1.1.3 1.4.6.6.3-.7.2-1.6-.1-1.9-.3-.4-.6.2-.5 1.3m304.1 1.4c0 1.4.2 1.9.5 1.2.2-.6.2-1.8 0-2.5-.3-.6-.5-.1-.5 1.3m124 4c0 1.9.2 2.7.5 1.7.2-.9.2-2.5 0-3.5-.3-.9-.5-.1-.5 1.8m-286.1-.4c0 1.1.3 1.4.6.6.3-.7.2-1.6-.1-1.9-.3-.4-.6.2-.5 1.3m70.2 4.4c0 2.5.2 3.5.4 2.2.2-1.2.2-3.2 0-4.5-.2-1.2-.4-.2-.4 2.3m37 1.5c0 2.7.2 3.8.4 2.2.2-1.5.2-3.7 0-5-.2-1.2-.4 0-.4 2.8m0 12c0 3.8.2 5.3.4 3.2.2-2 .2-5.2 0-7-.2-1.7-.4-.1-.4 3.8m134-3.8c.9.2 2.3.2 3 0 .6-.3-.1-.5-1.8-.5-1.6 0-2.2.2-1.2.5m44 0c3.2.2 8.1.2 11 0s.3-.3-5.8-.3c-6 0-8.4.1-5.2.3m-215.1 6.8c0 1.6.2 2.2.5 1.2.2-.9.2-2.3 0-3-.3-.6-.5.1-.5 1.8m-220.4 1.2c.7.3 1.6.2 1.9-.1.4-.3-.2-.6-1.3-.5-1.1 0-1.4.3-.6.6m4 0c.7.3 1.6.2 1.9-.1.4-.3-.2-.6-1.3-.5-1.1 0-1.4.3-.6.6m4.9 1.4c.4 1.3.8 1.8 1.1 1 .2-.7-.1-1.8-.6-2.3-.8-.8-.9-.4-.5 1.3m359.4 1.5c0 1.1.3 1.4.6.6.3-.7.2-1.6-.1-1.9-.3-.4-.6.2-.5 1.3m68 4c0 1.1.3 1.4.6.6.3-.7.2-1.6-.1-1.9-.3-.4-.6.2-.5 1.3m-178.7 14.9c0 4.9.1 7.1.3 4.8s.2-6.4 0-9-.3-.8-.3 4.2m129.6-7.1c0 .2.8 1 1.8 1.7 1.5 1.3 1.6 1.2.3-.4s-2.1-2.1-2.1-1.3m-175.1 8.3c-1.3 1.6-1.2 1.7.4.4.9-.7 1.7-1.5 1.7-1.7 0-.8-.8-.3-2.1 1.3m164.6.3c1 1.1 2 2 2.3 2s-.3-.9-1.3-2-2-2-2.3-2 .3.9 1.3 2m-409.8 8.7c1.8.2 5 .2 7 0 2.1-.2.7-.4-3.2-.4-3.8 0-5.5.2-3.8.4m208.1 0c2.3.2 6.1.2 8.5 0 2.3-.2.4-.4-4.3-.4s-6.6.2-4.2.4m228.5 0c.9.2 2.3.2 3 0 .6-.3-.1-.5-1.8-.5-1.6 0-2.2.2-1.2.5m16 0c.9.2 2.3.2 3 0 .6-.3-.1-.5-1.8-.5-1.6 0-2.2.2-1.2.5m807.5 15c1.8.2 4.5.2 6 0s0-.4-3.3-.4-4.5.2-2.7.4m-752.8 5.1c0 .4 1.8.6 4 .4s4-.6 4-.8-1.8-.4-4-.4-4 .3-4 .8m28.9 2.9c-1.3 1.6-1.2 1.7.4.4.9-.7 1.7-1.5 1.7-1.7 0-.8-.8-.3-2.1 1.3m-28.8 4.9c0 1.1.3 1.4.6.6.3-.7.2-1.6-.1-1.9-.3-.4-.6.2-.5 1.3m692.8 11.1c-1.3 1.6-1.2 1.7.4.4s2.1-2.1 1.3-2.1c-.2 0-1 .8-1.7 1.7m-613.5 5.5-1.9 2.3 2.3-1.9c2.1-1.8 2.7-2.6 1.9-2.6-.2 0-1.2 1-2.3 2.2m642 8-2.9 3.3 3.3-2.9c1.7-1.7 3.2-3.1 3.2-3.3 0-.8-.8-.1-3.6 2.9m-360.1 3.5c.9.2 2.3.2 3 0 .6-.3-.1-.5-1.8-.5-1.6 0-2.2.2-1.2.5m-611.5 5c.7.3 1.6.2 1.9-.1.4-.3-.2-.6-1.3-.5-1.1 0-1.4.3-.6.6m45 0c.7.3 1.6.2 1.9-.1.4-.3-.2-.6-1.3-.5-1.1 0-1.4.3-.6.6m1001.5 5c.9.2 2.3.2 3 0 .6-.3-.1-.5-1.8-.5-1.6 0-2.2.2-1.2.5m13.5 0c.7.3 1.6.2 1.9-.1.4-.3-.2-.6-1.3-.5-1.1 0-1.4.3-.6.6m-459.5 5.3c0 3 .2 4.3.4 2.7.2-1.5.2-3.9 0-5.5-.2-1.5-.4-.2-.4 2.8m-585.5 17.7c.7.3 1.6.2 1.9-.1.4-.3-.2-.6-1.3-.5-1.1 0-1.4.3-.6.6m534 10c.6.2 1.8.2 2.5 0 .6-.3.1-.5-1.3-.5s-1.9.2-1.2.5m18.5 0c.9.2 2.5.2 3.5 0 .9-.3.1-.5-1.8-.5s-2.7.2-1.7.5m84.5 3c.7.3 1.6.2 1.9-.1.4-.3-.2-.6-1.3-.5-1.1 0-1.4.3-.6.6m15 1c.6.2 1.8.2 2.5 0 .6-.3.1-.5-1.3-.5s-1.9.2-1.2.5m15 1c.7.3 1.6.2 1.9-.1.4-.3-.2-.6-1.3-.5-1.1 0-1.4.3-.6.6m13 1c.6.2 1.8.2 2.5 0 .6-.3.1-.5-1.3-.5s-1.9.2-1.2.5m14 1c.7.3 1.6.2 1.9-.1.4-.3-.2-.6-1.3-.5-1.1 0-1.4.3-.6.6m12 1c.7.3 1.6.2 1.9-.1.4-.3-.2-.6-1.3-.5-1.1 0-1.4.3-.6.6m11 1c.7.3 1.6.2 1.9-.1.4-.3-.2-.6-1.3-.5-1.1 0-1.4.3-.6.6m11 1c.7.3 1.6.2 1.9-.1.4-.3-.2-.6-1.3-.5-1.1 0-1.4.3-.6.6m10 1c.7.3 1.6.2 1.9-.1.4-.3-.2-.6-1.3-.5-1.1 0-1.4.3-.6.6m-625.7 11.9c0 1.1.3 1.4.6.6.3-.7.2-1.6-.1-1.9-.3-.4-.6.2-.5 1.3m-604.3.1c.7.3 1.6.2 1.9-.1.4-.3-.2-.6-1.3-.5-1.1 0-1.4.3-.6.6m329.1 7c-1.3 1.6-1.2 1.7.4.4s2.1-2.1 1.3-2.1c-.2 0-1 .8-1.7 1.7m-1069 4c-1.3 1.6-1.2 1.7.4.4s2.1-2.1 1.3-2.1c-.2 0-1 .8-1.7 1.7m434.9-1c.7.3 1.6.2 1.9-.1.4-.3-.2-.6-1.3-.5-1.1 0-1.4.3-.6.6m1346 2c.6.2 1.8.2 2.5 0 .6-.3.1-.5-1.3-.5s-1.9.2-1.2.5m37.2-.3c0 .2.7.7 1.6 1 .8.3 1.2.2.9-.4-.6-1-2.5-1.4-2.5-.6m313.1 1.2c0 1.1.3 1.4.6.6.3-.7.2-1.6-.1-1.9-.3-.4-.6.2-.5 1.3m-267.8.1c.9.2 2.5.2 3.5 0 .9-.3.1-.5-1.8-.5s-2.7.2-1.7.5M636.2 507c0 1.4.2 1.9.5 1.2.2-.6.2-1.8 0-2.5-.3-.6-.5-.1-.5 1.3m1381.1-1.3c.9.2 2.3.2 3 0 .6-.3-.1-.5-1.8-.5-1.6 0-2.2.2-1.2.5m20.5 1c.6.2 1.8.2 2.5 0 .6-.3.1-.5-1.3-.5s-1.9.2-1.2.5m17 1c.7.3 1.6.2 1.9-.1.4-.3-.2-.6-1.3-.5-1.1 0-1.4.3-.6.6m14 1c.7.3 1.6.2 1.9-.1.4-.3-.2-.6-1.3-.5-1.1 0-1.4.3-.6.6m-1210 2c.6.2 1.8.2 2.5 0 .6-.3.1-.5-1.3-.5s-1.9.2-1.2.5m10.5 0c.9.2 2.3.2 3 0 .6-.3-.1-.5-1.8-.5-1.6 0-2.2.2-1.2.5m1221.5 0c.7.3 1.6.2 1.9-.1.4-.3-.2-.6-1.3-.5-1.1 0-1.4.3-.6.6m-1545.7 2.9c0 1.1.3 1.4.6.6.3-.7.2-1.6-.1-1.9-.3-.4-.6.2-.5 1.3m91.1 3.4c0 1.9.2 2.7.5 1.7.2-.9.2-2.5 0-3.5-.3-.9-.5-.1-.5 1.8m147.2.2-2.9 3.3 3.3-2.9c3-2.8 3.7-3.6 2.9-3.6-.2 0-1.6 1.5-3.3 3.2m1074.4 2.5c.7.3 1.6.2 1.9-.1.4-.3-.2-.6-1.3-.5-1.1 0-1.4.3-.6.6m8 1c.7.3 1.6.2 1.9-.1.4-.3-.2-.6-1.3-.5-1.1 0-1.4.3-.6.6m-1383.7 3.9c0 1.1.3 1.4.6.6.3-.7.2-1.6-.1-1.9-.3-.4-.6.2-.5 1.3m1409.2.1c.9.2 2.5.2 3.5 0 .9-.3.1-.5-1.8-.5s-2.7.2-1.7.5M679.2 528c0 1.4.2 1.9.5 1.2.2-.6.2-1.8 0-2.5-.3-.6-.5-.1-.5 1.3m-96.1 1.6c0 1.1.3 1.4.6.6.3-.7.2-1.6-.1-1.9-.3-.4-.6.2-.5 1.3m-33.9 5.4c0 1.4.2 1.9.5 1.2.2-.6.2-1.8 0-2.5-.3-.6-.5-.1-.5 1.3m-68 2c0 1.4.2 1.9.5 1.2.2-.6.2-1.8 0-2.5-.3-.6-.5-.1-.5 1.3m156 2c0 1.9.2 2.7.5 1.7.2-.9.2-2.5 0-3.5-.3-.9-.5-.1-.5 1.8m-134.1-.4c0 1.1.3 1.4.6.6.3-.7.2-1.6-.1-1.9-.3-.4-.6.2-.5 1.3m175.1 3.4c0 1.4.2 1.9.5 1.2.2-.6.2-1.8 0-2.5-.3-.6-.5-.1-.5 1.3m-93.9 5c0 2.5.2 3.5.4 2.2.2-1.2.2-3.2 0-4.5-.2-1.2-.4-.2-.4 2.3m-104.2 2.6c0 1.1.3 1.4.6.6.3-.7.2-1.6-.1-1.9-.3-.4-.6.2-.5 1.3m197.1 6.4c0 1.4.2 1.9.5 1.2.2-.6.2-1.8 0-2.5-.3-.6-.5-.1-.5 1.3m-176.1 2.6c0 1.1.3 1.4.6.6.3-.7.2-1.6-.1-1.9-.3-.4-.6.2-.5 1.3m-22 5c0 1.1.3 1.4.6.6.3-.7.2-1.6-.1-1.9-.3-.4-.6.2-.5 1.3m1806.9 1.9c1.9 1.9 3.6 3.5 3.9 3.5s-1-1.6-2.9-3.5-3.6-3.5-3.9-3.5 1 1.6 2.9 3.5m-1728.8 2c0 1.6.2 2.2.5 1.2.2-.9.2-2.3 0-3-.3-.6-.5.1-.5 1.8m81.1 1.5c0 2.5.2 3.5.4 2.2.2-1.2.2-3.2 0-4.5-.2-1.2-.4-.2-.4 2.3m-138.2-.4c0 1.1.3 1.4.6.6.3-.7.2-1.6-.1-1.9-.3-.4-.6.2-.5 1.3m176.1 2.4c0 1.4.2 1.9.5 1.2.2-.6.2-1.8 0-2.5-.3-.6-.5-.1-.5 1.3m-198 6c0 1.4.2 1.9.5 1.2.2-.6.2-1.8 0-2.5-.3-.6-.5-.1-.5 1.3m454.1 4.5c0 2.2.2 3 .4 1.7.2-1.2.2-3 0-4-.3-.9-.5.1-.4 2.3M675.2 585c0 1.4.2 1.9.5 1.2.2-.6.2-1.8 0-2.5-.3-.6-.5-.1-.5 1.3m99.9.6c0 1.1.3 1.4.6.6.3-.7.2-1.6-.1-1.9-.3-.4-.6.2-.5 1.3m-298 3c0 1.1.3 1.4.6.6.3-.7.2-1.6-.1-1.9-.3-.4-.6.2-.5 1.3m423.2 2.9c0 2.2.2 3 .4 1.7.2-1.2.2-3 0-4-.3-.9-.5.1-.4 2.3m-402.2.1c0 1.1.3 1.4.6.6.3-.7.2-1.6-.1-1.9-.3-.4-.6.2-.5 1.3m434 2c0 1.1.3 1.4.6.6.3-.7.2-1.6-.1-1.9-.3-.4-.6.2-.5 1.3m-456 6c0 1.1.3 1.4.6.6.3-.7.2-1.6-.1-1.9-.3-.4-.6.2-.5 1.3m198 1c0 1.1.3 1.4.6.6.3-.7.2-1.6-.1-1.9-.3-.4-.6.2-.5 1.3m-341.3 1.1c.7.3 1.6.2 1.9-.1.4-.3-.2-.6-1.3-.5-1.1 0-1.4.3-.6.6m164.3.9c0 1.1.3 1.4.6.6.3-.7.2-1.6-.1-1.9-.3-.4-.6.2-.5 1.3m61.2 1.9c0 2.2.2 3 .4 1.7.2-1.2.2-3 0-4-.3-.9-.5.1-.4 2.3m27 9c0 3.8.2 5.3.4 3.2.2-2 .2-5.2 0-7-.2-1.7-.4-.1-.4 3.8m521.2-4.5c1 1.1 2 2 2.3 2s-.3-.9-1.3-2-2-2-2.3-2 .3.9 1.3 2m-631.4.6c0 1.1.3 1.4.6.6.3-.7.2-1.6-.1-1.9-.3-.4-.6.2-.5 1.3m680 0c0 1.1.3 1.4.6.6.3-.7.2-1.6-.1-1.9-.3-.4-.6.2-.5 1.3m-81.1 1.8c0 .2.8 1 1.8 1.7 1.5 1.3 1.6 1.2.3-.4s-2.1-2.1-2.1-1.3M673.2 617c0 1.4.2 1.9.5 1.2.2-.6.2-1.8 0-2.5-.3-.6-.5-.1-.5 1.3m525 2c0 1.4.2 1.9.5 1.2.2-.6.2-1.8 0-2.5-.3-.6-.5-.1-.5 1.3m-109.2 6.5c1.9 1.9 3.6 3.5 3.9 3.5s-1-1.6-2.9-3.5-3.6-3.5-3.9-3.5 1 1.6 2.9 3.5m32-2.1c0 .2.8 1 1.8 1.7 1.5 1.3 1.6 1.2.3-.4s-2.1-2.1-2.1-1.3m33.3 3.6c0 2.5.2 3.5.4 2.2.2-1.2.2-3.2 0-4.5-.2-1.2-.4-.2-.4 2.3m-660.2 6.6c0 1.1.3 1.4.6.6.3-.7.2-1.6-.1-1.9-.3-.4-.6.2-.5 1.3m178.1.4c0 1.4.2 1.9.5 1.2.2-.6.2-1.8 0-2.5-.3-.6-.5-.1-.5 1.3m-112.9 5c0 3.6.2 5 .4 3.2.2-1.7.2-4.7 0-6.5-.2-1.7-.4-.3-.4 3.3m595 0c0 3 .2 4.3.4 2.7.2-1.5.2-3.9 0-5.5-.2-1.5-.4-.2-.4 2.8m-483.1 11c0 1.4.2 1.9.5 1.2.2-.6.2-1.8 0-2.5-.3-.6-.5-.1-.5 1.3m-84.9 3c0 2.5.2 3.5.4 2.2.2-1.2.2-3.2 0-4.5-.2-1.2-.4-.2-.4 2.3m611.8-2.4c0 1.1.3 1.4.6.6.3-.7.2-1.6-.1-1.9-.3-.4-.6.2-.5 1.3m-706 2c0 1.1.3 1.4.6.6.3-.7.2-1.6-.1-1.9-.3-.4-.6.2-.5 1.3m146.1 3.4c0 1.9.2 2.7.5 1.7.2-.9.2-2.5 0-3.5-.3-.9-.5-.1-.5 1.8m-147.1 5.6c0 1.1.3 1.4.6.6.3-.7.2-1.6-.1-1.9-.3-.4-.6.2-.5 1.3m179 2c0 1.1.3 1.4.6.6.3-.7.2-1.6-.1-1.9-.3-.4-.6.2-.5 1.3M637.2 675c0 1.4.2 1.9.5 1.2.2-.6.2-1.8 0-2.5-.3-.6-.5-.1-.5 1.3m31.9-.4c0 1.1.3 1.4.6.6.3-.7.2-1.6-.1-1.9-.3-.4-.6.2-.5 1.3m-180 4c0 1.1.3 1.4.6.6.3-.7.2-1.6-.1-1.9-.3-.4-.6.2-.5 1.3m98.1.4c0 1.4.2 1.9.5 1.2.2-.6.2-1.8 0-2.5-.3-.6-.5-.1-.5 1.3m1687.2 8.2-1.9 2.3 2.3-1.9c2.1-1.8 2.7-2.6 1.9-2.6-.2 0-1.2 1-2.3 2.2M636.2 690c0 1.4.2 1.9.5 1.2.2-.6.2-1.8 0-2.5-.3-.6-.5-.1-.5 1.3m-75.9 7c0 3.6.2 5 .4 3.2.2-1.7.2-4.7 0-6.5-.2-1.7-.4-.3-.4 3.3m592 1.5c0 2.2.2 3 .4 1.7.2-1.2.2-3 0-4-.3-.9-.5.1-.4 2.3m-564.1.5c0 1.4.2 1.9.5 1.2.2-.6.2-1.8 0-2.5-.3-.6-.5-.1-.5 1.3m-102.1 3.6c0 1.1.3 1.4.6.6.3-.7.2-1.6-.1-1.9-.3-.4-.6.2-.5 1.3m149 0c0 1.1.3 1.4.6.6.3-.7.2-1.6-.1-1.9-.3-.4-.6.2-.5 1.3m31 0c0 1.1.3 1.4.6.6.3-.7.2-1.6-.1-1.9-.3-.4-.6.2-.5 1.3m1872.4 1.4c1 1.1 2 2 2.3 2s-.3-.9-1.3-2-2-2-2.3-2 .3.9 1.3 2m-822.7 6.7c.7.3 1.6.2 1.9-.1.4-.3-.2-.6-1.3-.5-1.1 0-1.4.3-.6.6m4.5 0c.9.2 2.5.2 3.5 0 .9-.3.1-.5-1.8-.5s-2.7.2-1.7.5m-1086.2 3.9c0 1.1.3 1.4.6.6.3-.7.2-1.6-.1-1.9-.3-.4-.6.2-.5 1.3m-44.9 1.9c0 1.6.2 2.2.5 1.2.2-.9.2-2.3 0-3-.3-.6-.5.1-.5 1.8m1609 2c0 1.6.2 2.2.5 1.2.2-.9.2-2.3 0-3-.3-.6-.5.1-.5 1.8m-1074.3 2.2-2.4 2.8 2.8-2.4c2.5-2.3 3.2-3.1 2.4-3.1-.2 0-1.4 1.2-2.8 2.7m-460.8 5.9c0 1.1.3 1.4.6.6.3-.7.2-1.6-.1-1.9-.3-.4-.6.2-.5 1.3m-367 5c0 1.1.3 1.4.6.6.3-.7.2-1.6-.1-1.9-.3-.4-.6.2-.5 1.3m1594.9-.2c0 .2.8 1 1.8 1.7 1.5 1.3 1.6 1.2.3-.4s-2.1-2.1-2.1-1.3M590.2 736c0 1.4.2 1.9.5 1.2.2-.6.2-1.8 0-2.5-.3-.6-.5-.1-.5 1.3m1745.6-.3c.7.3 1.6.2 1.9-.1.4-.3-.2-.6-1.3-.5-1.1 0-1.4.3-.6.6m-342.6 2.3c0 1.4.2 1.9.5 1.2.2-.6.2-1.8 0-2.5-.3-.6-.5-.1-.5 1.3m354.6-1.3c.6.2 1.8.2 2.5 0 .6-.3.1-.5-1.3-.5s-1.9.2-1.2.5m15 1c.6.2 1.8.2 2.5 0 .6-.3.1-.5-1.3-.5s-1.9.2-1.2.5m79 0c.7.3 1.6.2 1.9-.1.4-.3-.2-.6-1.3-.5-1.1 0-1.4.3-.6.6m-59 1c1.2.2 3 .2 4 0 .9-.3-.1-.5-2.3-.4-2.2 0-3 .2-1.7.4m39 0c1.2.2 3.2.2 4.5 0 1.2-.2.2-.4-2.3-.4s-3.5.2-2.2.4m-526.5 4.8c0 2.2.2 3 .4 1.7.2-1.2.2-3 0-4-.3-.9-.5.1-.4 2.3m97.9 5.5c0 1.4.2 1.9.5 1.2.2-.6.2-1.8 0-2.5-.3-.6-.5-.1-.5 1.3m-1402.1 2.6c0 1.1.3 1.4.6.6.3-.7.2-1.6-.1-1.9-.3-.4-.6.2-.5 1.3m68.1 8.4c0 1.4.2 1.9.5 1.2.2-.6.2-1.8 0-2.5-.3-.6-.5-.1-.5 1.3m760.6 1.7c.7.3 1.6.2 1.9-.1.4-.3-.2-.6-1.3-.5-1.1 0-1.4.3-.6.6m889 0c.7.3 1.6.2 1.9-.1.4-.3-.2-.6-1.3-.5-1.1 0-1.4.3-.6.6m23 2c.6.2 1.8.2 2.5 0 .6-.3.1-.5-1.3-.5s-1.9.2-1.2.5m-946.5 1c.9.2 2.5.2 3.5 0 .9-.3.1-.5-1.8-.5s-2.7.2-1.7.5m962 0c.9.2 2.3.2 3 0 .6-.3-.1-.5-1.8-.5-1.6 0-2.2.2-1.2.5m-1024.5 1c.7.3 1.6.2 1.9-.1.4-.3-.2-.6-1.3-.5-1.1 0-1.4.3-.6.6m48 0c.6.2 1.8.2 2.5 0 .6-.3.1-.5-1.3-.5s-1.9.2-1.2.5m995.5 0c.9.2 2.5.2 3.5 0 .9-.3.1-.5-1.8-.5s-2.7.2-1.7.5m-1020 1c.9.2 2.3.2 3 0 .6-.3-.1-.5-1.8-.5-1.6 0-2.2.2-1.2.5m-352.5 3c.7.3 1.6.2 1.9-.1.4-.3-.2-.6-1.3-.5-1.1 0-1.4.3-.6.6m889 0c1.2.2 3 .2 4 0 .9-.3-.1-.5-2.3-.4-2.2 0-3 .2-1.7.4m522.2 6.8c1.3 1.4 2.6 2.5 2.8 2.5.3 0-.5-1.1-1.8-2.5s-2.6-2.5-2.8-2.5c-.3 0 .5 1.1 1.8 2.5M372.5 781c1 1.1 2 2 2.3 2s-.3-.9-1.3-2-2-2-2.3-2 .3.9 1.3 2m1089.3 3.7c.7.3 1.6.2 1.9-.1.4-.3-.2-.6-1.3-.5-1.1 0-1.4.3-.6.6m-7 1c.7.3 1.6.2 1.9-.1.4-.3-.2-.6-1.3-.5-1.1 0-1.4.3-.6.6m538.2-.3c0 .2.8 1 1.8 1.7 1.5 1.3 1.6 1.2.3-.4s-2.1-2.1-2.1-1.3m-1660.9 5.2c0 1.1.3 1.4.6.6.3-.7.2-1.6-.1-1.9-.3-.4-.6.2-.5 1.3m53.4 3.4c1 1.1 2 2 2.3 2s-.3-.9-1.3-2-2-2-2.3-2 .3.9 1.3 2m999.3.7c.7.3 1.6.2 1.9-.1.4-.3-.2-.6-1.3-.5-1.1 0-1.4.3-.6.6m-10 1c.7.3 1.6.2 1.9-.1.4-.3-.2-.6-1.3-.5-1.1 0-1.4.3-.6.6m-68 1c.7.3 1.6.2 1.9-.1.4-.3-.2-.6-1.3-.5-1.1 0-1.4.3-.6.6m53 0c1.2.2 3 .2 4 0 .9-.3-.1-.5-2.3-.4-2.2 0-3 .2-1.7.4m-32 1c2.3.2 6.1.2 8.5 0 2.3-.2.4-.4-4.3-.4s-6.6.2-4.2.4m-996.7 2.9c0 1.1.3 1.4.6.6.3-.7.2-1.6-.1-1.9-.3-.4-.6.2-.5 1.3m-1 10c0 1.1.3 1.4.6.6.3-.7.2-1.6-.1-1.9-.3-.4-.6.2-.5 1.3m620.2 2.1c.9.2 2.3.2 3 0 .6-.3-.1-.5-1.8-.5-1.6 0-2.2.2-1.2.5m-13.5 1c.7.3 1.6.2 1.9-.1.4-.3-.2-.6-1.3-.5-1.1 0-1.4.3-.6.6m-20 2c.7.3 1.6.2 1.9-.1.4-.3-.2-.6-1.3-.5-1.1 0-1.4.3-.6.6m-16 2c.7.3 1.6.2 1.9-.1.4-.3-.2-.6-1.3-.5-1.1 0-1.4.3-.6.6m-571.7 2.9c0 1.1.3 1.4.6.6.3-.7.2-1.6-.1-1.9-.3-.4-.6.2-.5 1.3m523.2 1.1c1.5.2 3.9.2 5.5 0 1.5-.2.2-.4-2.8-.4s-4.3.2-2.7.4m1569.1 8.8c0 4.9.1 7.1.3 4.8s.2-6.4 0-9-.3-.8-.3 4.2m-2093.3.1c0 1.1.3 1.4.6.6.3-.7.2-1.6-.1-1.9-.3-.4-.6.2-.5 1.3m-.9 12.4c0 1.9.2 2.7.5 1.7.2-.9.2-2.5 0-3.5-.3-.9-.5-.1-.5 1.8m2092.9 11.6c0 1.1.3 1.4.6.6.3-.7.2-1.6-.1-1.9-.3-.4-.6.2-.5 1.3M327.2 859c0 1.9.2 2.7.5 1.7.2-.9.2-2.5 0-3.5-.3-.9-.5-.1-.5 1.8m85.9 329.6c0 1.1.3 1.4.6.6.3-.7.2-1.6-.1-1.9-.3-.4-.6.2-.5 1.3m1950 78c0 1.1.3 1.4.6.6.3-.7.2-1.6-.1-1.9-.3-.4-.6.2-.5 1.3"/><g fill="#fff" stroke-width="0"><path d="M1157 310v58h14v-28.3c0-25.2.2-28.6 1.9-32.2 4.1-9.1 13.2-13 29-12.3 11.1.4 15.2 2.2 18.6 7.8 1.9 3.3 2 5.4 2.3 34.2l.3 30.8h14l-.3-32.8c-.3-31.8-.4-32.8-2.6-37.4-4.1-8.2-10.9-11.9-24.7-13.3-14-1.4-28.5 2.3-35.2 8.7l-3.3 3.2V252h-14zm298.9-57.6c-.2.2-.3 26.3-.1 58l.2 57.6h14V252h-6.8c-3.8 0-7.1.2-7.3.4m-373.4 32.5c-9.3 1.2-14 2.9-18.6 6.4-8.5 6.4-11.5 17.9-10.7 40.7.9 23.9 6.6 32.7 23.5 36 8.8 1.8 36.3.8 42.4-1.4 9.3-3.4 14.9-12.3 14.9-23.8V338h-14v3.2c0 8.7-4.2 14.7-11.5 16.7-5.1 1.4-22.8 1.4-27.7.1-10.6-3-13.1-9.7-12.6-33.3.3-15 .5-16.5 2.7-20.4 4-7 8.9-8.8 24.1-8.8 10.7 0 13 .3 15.9 2 4.6 2.7 7.1 6.4 7.8 11.3l.6 4.2h14.4l-.8-5.5c-1.5-11.5-6.8-17.9-17.5-21.1-5.7-1.7-24.6-2.6-32.9-1.5m206 .2c-10 1.3-18.9 5.8-22.5 11.6-4.5 7-5.5 13-5.5 31.3 0 13.3.4 17.5 1.8 21.7 3.7 10.7 10.2 16.1 21.7 18.3 7.7 1.5 33.5 1.2 39.5-.4 9.6-2.5 15.7-7.5 19.1-15.4 2.3-5.5 3.4-22.3 2.4-35-1.4-17-5.5-24.5-16.2-29.2-8.3-3.6-24.8-4.8-40.3-2.9m28 11c5.9 1.7 11 7.3 12.4 13.7 1.7 7.9 1.4 30.8-.4 36.9-2.9 9.8-10.4 12.9-29.1 12.1-20-.9-23.6-5-24.2-27.8-.9-29.5 4-35.9 27.3-36 5.5 0 11.8.5 14 1.1m83.8-11c-6.1 1.1-10.9 3.7-14.6 7.5-1.7 1.9-3.5 3.4-4 3.4s-.7-2.3-.5-5l.3-5H1368v82h13.8l.4-27.8.3-27.7 3-6c3.9-7.8 8.7-10.6 19-11.3 12.2-.8 18.5 4 18.5 14v4.8h14.3l-.6-7.5c-.9-12.6-6.1-19.1-16.8-21.4-5.7-1.3-13.5-1.3-19.6 0m121.3-.1c-9.8 1.2-18.6 5.8-22.4 11.6-4.6 6.8-5.7 12.9-5.7 30.9 0 13 .4 17.1 1.9 21.8 2.4 7.4 8 13.8 14.6 16.6 8.9 3.8 32.1 4.8 46.3 2 12.6-2.4 19.7-10.3 19.7-21.7V343h-13.8l-.7 4.2c-1 5.9-5.7 10.4-11.6 11.3-2.5.4-9.9.5-16.5.3-9.7-.2-12.6-.7-15.9-2.4-6-3.1-8.8-8.8-9.3-19.1l-.5-8.3h68.3v-8.8c0-19.7-6.3-30.3-20.5-34.1-5.5-1.5-25.6-2.1-33.9-1.1m32.2 12.5c4.4 2.6 6.8 7.4 7.7 15.2l.7 6.3H1508v-2.5c0-5.3 2.3-12.8 4.9-15.6 4.3-4.9 8.9-5.9 24.1-5.7 11.4.3 14 .6 16.8 2.3m34.2-10.8c0 .6 12.3 28.9 26.7 61.3 3.6 8 7.3 16 8.4 17.8 1.8 3.1 1.8 3.5.2 7.5-4.4 11.1-8.9 15.3-17.4 16.3-6.3.7-6.1.5-6.3 7.3l-.1 3.4 8.6-.6c9.9-.6 15-2.5 19.7-7s7.5-10.4 19.7-42.2c5.9-15.4 13.8-36 17.6-45.7s6.9-17.9 6.9-18.2c0-.4-3.3-.6-7.3-.6h-7.2l-5.4 14.2c-2.9 7.9-8.5 23.1-12.4 33.8-3.8 10.7-7.3 19.8-7.6 20.2-.4.5-7.2-14.7-15.1-33.7l-14.4-34.5h-7.3c-4 0-7.3.3-7.3.7m748.5 99.4c-33.3 6.5-56.4 28.5-67.9 64.4-4.8 15.2-5.9 24.2-5.3 43.5.3 9.6 1.1 21.1 1.7 25.5 1.6 10.8 6.1 24.6 10.7 32.4 5 8.4 20 22.7 33.5 31.8 11.8 8.1 36.9 22.3 52.3 29.7 26.2 12.6 56.9 26.6 75.5 34.3 28 11.6 67.5 32 88.6 46 9.4 6.2 17.7 13.7 17.2 15.6-1.2 3.6-18.8 11.4-38.7 17.2-32 9.2-54.6 11.9-99.1 11.9-59.2.1-94.8-4-135.3-15.4-20.5-5.8-25.4-7.9-26.3-11.6s2.8-7.1 15.3-13.9c17.5-9.5 22.5-15.7 17.3-21.2-2.2-2.5-9.3-3.9-14.4-2.9-22 4.2-56 24.7-61.2 37.1-2 4.9-1.8 11.9.6 16.5 7.8 15.3 48.9 28.2 109.5 34.4 12.9 1.4 30.5 2.5 66 4.4 11.7.7 14.8 1.2 18.9 3.2 6.7 3.2 15.8 12.7 19.6 20.3 12.3 25 7.5 87.3-12 155.5-12 42.1-25 77.8-45.5 125.2-8.8 20.3-11.6 26.5-26.3 58.7-3.3 7.2-6.5 14.7-7.2 16.7-2.4 7.4 1.6 6.7 7.3-1.3 11.3-15.6 144.3-239.9 196.7-331.6 32.3-56.5 41.2-72.9 53.6-98.4l9.9-20.4-3.5-2.8c-8.9-7.5-85.6-51.9-108.5-62.9-7.7-3.7-25-11.6-38.5-17.5-28.5-12.4-69.8-32.4-85.5-41.4-27.7-15.9-45.7-30.7-51.9-42.8-5.1-10.1-5.9-15.4-5.3-32.3 1.1-28.9 9.6-57.2 21.3-70.8 4.5-5.3 12.4-9.2 18.5-9.2 3.8 0 5.6.7 9.5 3.5 16 11.5 21.7 14.2 36.2 16.6 10.8 1.8 29.7 1.5 36.4-.4 7.6-2.3 9.3-4.9 9.2-13.7-.3-15.3-8.4-21.1-42.3-30.7-11.7-3.3-13.8-3.5-29.1-3.9-9.1-.1-18.7.1-21.5.7m-646.2 20.6c-4.8 1.7-13.7 9.2-15.8 13.4-2.2 4.1-1.9 6.2 2.6 21 2.3 7.6 3.8 14.7 3.6 16.4-.2 1.6-2.1 8.4-4.1 15-7.4 23.9-19.6 64.7-28.6 95.5-12 41.5-34.2 114.8-38.6 128-3.8 11.1-6.4 14.9-12.4 18-11.3 5.8-68 26.2-89 32-40.9 11.4-110.8 20.1-161 20.1-41.7 0-71.4-5.4-96.8-17.7-15.5-7.5-28.8-21.8-38.2-40.9-9-18.3-12.8-36.5-13.7-65.6-1.3-40.9 5.9-72.2 24.1-104.2 10.3-18.3 27.1-36.9 42.7-47.4 8.4-5.7 26.6-15.1 36.7-18.9 9.6-3.6 30.7-8.9 44.2-11 8.4-1.4 17.3-1.8 33-1.9 19 0 22.5.3 30.3 2.2 4.8 1.3 10.6 3.2 13 4.4 13 6.6 21.6 19.1 29.6 43.1 1.4 4.2 2.8 6.8 3.7 6.8 5.3 0 15.2-7.7 18.6-14.4 4.1-8.1 2.5-26.4-3.4-38.1-3.1-6-14.5-16.6-22-20.3-14.7-7.2-36.4-11-67.9-11.9-48.8-1.3-88.3 7-124.9 26.5-58.5 31.1-92.4 81.7-100 149.2-1.4 12.1-1.4 41.7 0 54 3.5 32.1 10.9 54.5 24.6 75.3 22.9 34.7 59.9 53.3 119.4 60.3 22.1 2.5 62 1.5 97-2.5 58.9-6.8 183.6-27.2 215.4-35.2 14.5-3.7 13.8-3 24.5-26 23.5-50.8 31.6-76.9 52-167.4 8.3-36.8 13.7-62.8 14.6-70.8.4-3.1 1.1-5.7 1.5-5.7s1.5 2.1 2.5 4.7c7.7 20.3 36.2 79.7 63.7 132.7 27.3 52.7 52.9 103.6 52.1 103.7-.4 0-4 0-8-.1-8.1-.1-15.4-1.6-47.3-9.4-28.7-7-37.5-8.6-47.2-8.7-12.6-.1-18 4.7-18.2 16-.1 7.3 2.7 11.5 9.9 14.7 6.4 2.8 10.4 3.5 42.3 7.4 25.8 3.2 44.2 6.2 88.7 14.5 29.9 5.7 45.6 6.9 49.3 3.8 2.3-1.8 2.4-2.3 2.3-16.3-.2-17.4-.1-17.3-12.2-24.4-23.9-14-48.9-49.7-84.2-120.2-8.9-17.8-31.7-66.6-31.7-67.9 0-.2-4.5-10.4-10.1-22.7-5.5-12.3-14.1-31.8-19.1-43.3-12.2-28.5-17.8-40.2-24.9-52-7.1-11.9-7.8-12.8-10.6-14.3-2.8-1.6-6.8-1.4-12 .5M511.2 424.1c-8.7 2.5-20 31.7-24.6 63.6-1.8 12.5-3.8 33.8-6.1 64.3-5.4 72.9-14 140.1-23.4 183.4-5.5 24.9-16 58.2-18.7 59.3-2.1.8-21.2-13.4-31-23.2-16.2-16.1-30.7-40.6-39.3-66.5-1.8-5.2-7.2-25.7-12.1-45.5-12.2-49.7-15.3-57.5-22.5-57.5-3.8 0-6 2.1-11.4 11.5-10.8 18.5-16.4 42.3-23.1 98-6.5 54.6-10.8 81.6-14 86.5-1.7 2.7-9.3-2.5-20.3-14-14.9-15.3-26.4-33.5-41.8-65.5-16-33.4-26.5-64.3-38.9-114.5-5.4-22.2-8.3-38.3-12-67.2-5.3-40.9-6.7-45-16.3-47.4-6.7-1.6-23.5 10.8-28.3 21.1-4.2 8.9-4.6 7 16.6 80 6.5 22.5 13.9 48.9 16.5 58.5 12.8 48.1 35.1 122 47 155.5 7.9 22.2 29.2 75.5 36.3 91 11.1 24 26.3 56 29.2 61 1.5 2.7 9.3 17.4 17.2 32.5 37.5 71.3 105.2 184.3 118.6 197.7l3.7 3.8.3-2.6c.2-1.5-2.5-9.3-6.2-18.2-13.5-32.5-29.7-79.5-40.1-116.6-12.9-45.8-28.3-117.1-35.9-166.2-3.7-23.4-4.2-36.9-2.2-57.4 7.2-72.8 10.9-101.4 12.8-98.5.2.3 2.6 5 5.3 10.4 10.7 21.2 23.9 38.6 41.2 53.9C403.5 809.4 432 827 439 827c7.7 0 13.7-6.6 23-25.5 15.7-32 25.1-85.6 36-206.5 5.2-57.9 7.2-74.4 11.1-93 2.8-12.9 4.1-17.5 11.1-39 5.5-16.7 6.1-19.4 6.2-27.3.1-8.2-.1-9-2.3-10.8-2.5-2.1-7.4-2.4-12.9-.8m1443.1 3.1c-4 1.9-4.7 5.6-3.9 23.2.6 13.5.4 16.5-.7 17.5-1.1.8-9.3 1.1-29.8 1-31.5-.3-39.3.6-59.4 6.2-13.4 3.8-32.1 11-38.5 15-4.9 3-8.2 8-7.3 10.8 1.2 3.5 5.6 8.2 9.3 10.1 6.2 3.2 17.2 5.8 36 8.5 9.6 1.4 19.5 3 22 3.5 4.9 1 16 1.3 16 .5 0-.3-1.4-3.3-3.1-6.7-3.7-7.3-3.6-7.3 7-11 6.1-2.1 8.3-2.3 28.6-2.3h21.9l2.8 10c6.8 24.7 12.5 57.8 17.3 101.5 3.1 28.6 3.9 33 10.9 64.2 10.6 46.6 11.9 58.9 8.7 83.1-2.4 18.5-2.1 20 5 26.1 7.7 6.5 23.1 12.6 31.9 12.6 5.4-.1 11.4-3.2 14.1-7.6 2.2-3.6 2.4-4.9 2.3-15.4-.1-6.8-1-15.6-2.2-21.5-1-5.5-5.8-29.4-10.5-53-4.8-23.7-11.6-58.5-15.2-77.5s-10.4-53.7-15-77.2c-4.7-23.4-8.5-43.1-8.5-43.7 0-.8 2.4-1 7.8-.6 4.2.3 17.4 1 29.2 1.5 58.2 2.8 100 8.2 124.7 16.1 5.3 1.7 15.5 5.6 22.7 8.6 15.6 6.6 24.7 8.7 33.1 7.8 14-1.5 17.5-6.6 12.1-18-5.8-12.4-18.8-19.9-48.5-28.1-32.7-9-65.2-13.1-148.1-19-21.2-1.5-38.8-3.1-39.1-3.6s-1.4-6.8-2.3-14.1c-2.5-18.4-5.2-23.8-14-27.8-4.5-2-13.7-2.4-17.3-.7m-1301 52.3c-5.9 3-9.3 6.6-12.7 13.4-4.3 8.6-4.5 11.1-2.6 56.6 1.3 32.1 1.3 98.2 0 119.5-3.7 61-8.6 97.9-16.6 123.3-4 12.8-3 27 2.1 30.3 3.7 2.4 10.5 1.2 36.2-6.2 26.6-7.7 38.9-12 84.8-29.7 56.1-21.6 62.6-23.7 75.2-24.7 11.5-.8 13.8-2.3 17.2-10.6 3.2-8.1 3.7-12.4 1.6-16.3-4-7.9-27.6-13.5-42.4-10-2.4.5-18.3 7-35.5 14.3-42.8 18.4-85.5 35.1-93.1 36.3-4.1.7-7.6-3.1-8.2-8.9-.3-2.4 1.6-20.7 4.1-40.8 5.6-45.3 7.1-60.8 9.6-102.5 1.1-18.2 3.2-49.9 4.7-70.5 2.2-32 2.4-39 1.5-47.6-1.4-12.8-4.7-23-8.4-25.7-4.4-3.2-11.4-3.3-17.5-.2"/><path d="M838.5 491.6c-22.4 3.3-38.7 10.7-52.4 23.8-12.5 12-20 24.3-24.5 39.9-3.5 12.2-4.2 20.8-2.2 30.3 2.1 10.6 13 43 15.1 45.4 2.6 2.9 7.9 3.6 11.1 1.5 2.3-1.5 2.6-2.2 2.2-5.9-.3-2.3-2.4-8.4-4.8-13.6-2.3-5.2-4.7-10.9-5.2-12.5-3.1-9.8-2.5-24.9 1.3-35.1 6.6-17.5 28.7-39.1 48.9-47.5 18.9-8 40.5-9.5 64.1-4.6 16.1 3.4 27.1 7 49.1 16.2 74.8 31.3 145 82.8 177.1 129.8 12 17.5 18.1 38.2 14.6 48.8-3.8 11.2-18.6 23-40.9 32.7-24.2 10.4-70.7 24.5-95 28.6l-3.6.6-3.6-12.9c-2.1-7.1-10.1-28.6-17.8-47.7-18.5-45.5-26.7-67.5-32.4-86-5.8-18.9-7.6-28.2-7.6-39.3 0-8.1-.2-8.9-2.6-11.2-2.3-2.1-3.5-2.4-10.2-2.4-8.7 0-13.8 2.3-16.2 7.2-1.9 4-2.4 18.5-1.1 28.9 2.8 21.4 5.9 30.2 36.1 102.9 19.5 46.9 26 64 26 68.5 0 2.3 1 2-24.5 7.4-33.2 7.1-46.2 8.7-77.5 9.5-15.1.5-28.2 1.1-29.2 1.5-.9.4-2.2 2.1-2.9 3.7-2.2 5.6 2.6 15.8 9.1 19.2 3.1 1.6 5.5 1.8 22.5 1.4 10.7-.3 25.6-1.4 34.2-2.6 21.7-2.9 42.2-4.9 61.2-6.1 12.1-.7 18.8-1.6 26-3.6 10.4-2.8 92.3-34.5 113.6-43.9 38-16.8 45.1-22.6 52.3-42.8 2.3-6.5 2.6-8.6 2.6-22.7.1-14-.2-16.5-2.7-25.5-3.4-12.1-10.7-27.7-17.9-38.2-11-16.2-32.9-35.4-62.3-55-23.3-15.4-70.2-43.1-89.6-52.9-41.1-20.6-62.7-28.5-92.4-33.9-8.6-1.6-41.3-2.9-48-1.9m-277.5 11c-4.1 1.4-9.8 4-12.2 5.7-3.1 2-3.6 5.5-1.7 10.4.6 1.5 1.6 8 2.4 14.3 1 9 2 13.2 4.5 19l3.3 7.5.8 23c.4 12.6 1.3 54.9 2 94l1.3 71-2.2 6.4c-2.7 8-2.7 12.1-.2 28.5 2.8 17.9 3.6 18.8 16.6 20.1 8.5.9 14.1-.5 17.8-4.4 3.8-4 4.2-8.7 1.7-21.1-2.8-14.5-3.8-24.2-5.6-56-2.6-48.5-3.5-74.3-4.5-131.5-.9-50.6-1.6-65.9-3.6-75-1.1-5.2-4.4-10.5-7-11.5s-10.7-1.2-13.4-.4m1763.5 688.6c-6.1 25-9.7 33.7-21.1 51.9-7.5 11.8-9.8 18.5-9.8 28.4 0 7 .4 9 3.1 14.8 4 8.4 10.6 15.5 18 19.3 5.1 2.5 6.8 2.9 14.8 2.9 10.7 0 15.9-2.1 23.1-9.2 15.9-16 14.5-40.6-4-69.6-6.3-9.8-12.4-23.2-16.6-36.5-2.3-7.3-4.3-13.2-4.5-13.2-.1 0-1.5 5.1-3 11.2m19.7 61.5c3.3 5.8 5 13.3 4.6 19.9-.3 5.4-.8 6.8-3.3 9.4-3.7 3.9-5.8 4-4.8.2.5-1.5.8-9.3.8-17.5 0-8.1.2-14.7.5-14.7s1.3 1.2 2.2 2.7"/></g><g fill="gray" stroke-width="0"><path d="M1194.8 295.7c.7.3 1.6.2 1.9-.1.4-.3-.2-.6-1.3-.5-1.1 0-1.4.3-.6.6m8 0c.7.3 1.6.2 1.9-.1.4-.3-.2-.6-1.3-.5-1.1 0-1.4.3-.6.6m201 0c.7.3 1.6.2 1.9-.1.4-.3-.2-.6-1.3-.5-1.1 0-1.4.3-.6.6m4 0c.7.3 1.6.2 1.9-.1.4-.3-.2-.6-1.3-.5-1.1 0-1.4.3-.6.6m-285 18c2.3.2 5.9.2 8 0 2-.2.1-.4-4.3-.4s-6.1.2-3.7.4m99.4 2.3c0 1.4.2 1.9.5 1.2.2-.6.2-1.8 0-2.5-.3-.6-.5-.1-.5 1.3m-169.9 12c0 4.7.2 6.6.4 4.2.2-2.3.2-6.1 0-8.5-.2-2.3-.4-.4-.4 4.3m223 .5c0 4.4.2 6.1.4 3.7.2-2.3.2-5.9 0-8-.2-2-.4-.1-.4 4.3m232.8 9.1c0 1.1.3 1.4.6.6.3-.7.2-1.6-.1-1.9-.3-.4-.6.2-.5 1.3m-420.3 21.1c.7.3 1.6.2 1.9-.1.4-.3-.2-.6-1.3-.5-1.1 0-1.4.3-.6.6m12 0c.7.3 1.6.2 1.9-.1.4-.3-.2-.6-1.3-.5-1.1 0-1.4.3-.6.6m199 0c.6.2 1.8.2 2.5 0 .6-.3.1-.5-1.3-.5s-1.9.2-1.2.5m5.5 0c.9.2 2.5.2 3.5 0 .9-.3.1-.5-1.8-.5s-2.7.2-1.7.5m392.5 46c.7.3 1.6.2 1.9-.1.4-.3-.2-.6-1.3-.5-1.1 0-1.4.3-.6.6m-24.7 20.9c0 1.1.3 1.4.6.6.3-.7.2-1.6-.1-1.9-.3-.4-.6.2-.5 1.3m-287.3 4.1c.7.3 1.6.2 1.9-.1.4-.3-.2-.6-1.3-.5-1.1 0-1.4.3-.6.6m-13 29c.7.3 1.6.2 1.9-.1.4-.3-.2-.6-1.3-.5-1.1 0-1.4.3-.6.6m16 0c.7.3 1.6.2 1.9-.1.4-.3-.2-.6-1.3-.5-1.1 0-1.4.3-.6.6m538 10c.7.3 1.6.2 1.9-.1.4-.3-.2-.6-1.3-.5-1.1 0-1.4.3-.6.6m336.5 17.3c0 4.1.2 5.8.4 3.7.2-2 .2-5.4 0-7.5-.2-2-.4-.3-.4 3.8m-1616.4-2.3c-1.3 1.6-1.2 1.7.4.4s2.1-2.1 1.3-2.1c-.2 0-1 .8-1.7 1.7m216.9 7c.7.3 1.6.2 1.9-.1.4-.3-.2-.6-1.3-.5-1.1 0-1.4.3-.6.6m1058 13c.6.2 1.8.2 2.5 0 .6-.3.1-.5-1.3-.5s-1.9.2-1.2.5m19.5 0c.9.2 2.3.2 3 0 .6-.3-.1-.5-1.8-.5-1.6 0-2.2.2-1.2.5m69.5 2c.7.3 1.6.2 1.9-.1.4-.3-.2-.6-1.3-.5-1.1 0-1.4.3-.6.6m39 2c.7.3 1.6.2 1.9-.1.4-.3-.2-.6-1.3-.5-1.1 0-1.4.3-.6.6M636.1 525.6c0 1.1.3 1.4.6.6.3-.7.2-1.6-.1-1.9-.3-.4-.6.2-.5 1.3m1590 3c0 1.1.3 1.4.6.6.3-.7.2-1.6-.1-1.9-.3-.4-.6.2-.5 1.3M796.9 539.7l-2.4 2.8 2.8-2.4c1.5-1.4 2.7-2.6 2.7-2.8 0-.8-.8-.1-3.1 2.4m-159.8 9.9c0 1.1.3 1.4.6.6.3-.7.2-1.6-.1-1.9-.3-.4-.6.2-.5 1.3m732 9.5c-2 2.7-2.1 2.9-.2 1.8 1.1-.7 2.2-2.1 2.4-3.1.7-2.4.4-2.3-2.2 1.3m-4.2 5.6c-1.3 1.6-1.2 1.7.4.4.9-.7 1.7-1.5 1.7-1.7 0-.8-.8-.3-2.1 1.3M557.2 580c0 1.9.2 2.7.5 1.7.2-.9.2-2.5 0-3.5-.3-.9-.5-.1-.5 1.8m28.1 7.5c0 4.4.2 6.1.4 3.7.2-2.3.2-5.9 0-8-.2-2-.4-.1-.4 4.3m776.3-4c-.3.9-.6 2.2-.5 2.8 0 .7.5.1 1-1.2s.8-2.6.5-2.8c-.2-.2-.6.3-1 1.2m-723.3 5c0 2.2.2 3 .4 1.7.2-1.2.2-3 0-4-.3-.9-.5.1-.4 2.3m720.3 6.6c-.8 4.2 0 5 .9.9.4-1.7.5-3.4.2-3.6-.2-.3-.7 1-1.1 2.7m-5.7 12.6-2.4 2.8 2.8-2.4c2.5-2.3 3.2-3.1 2.4-3.1-.2 0-1.4 1.2-2.8 2.7m-794.7 9.8c0 1.6.2 2.2.5 1.2.2-.9.2-2.3 0-3-.3-.6-.5.1-.5 1.8m640 10c0 1.6.2 2.2.5 1.2.2-.9.2-2.3 0-3-.3-.6-.5.1-.5 1.8m244.7 4.2c-1.3 1.6-1.2 1.7.4.4.9-.7 1.7-1.5 1.7-1.7 0-.8-.8-.3-2.1 1.3m-345.9 2.7c0 .2.8 1 1.8 1.7 1.5 1.3 1.6 1.2.3-.4s-2.1-2.1-2.1-1.3m-510.7 4.1c0 2.2.2 3 .4 1.7.2-1.2.2-3 0-4-.3-.9-.5.1-.4 2.3m744.6 3.2c-1.3 1.6-1.2 1.7.4.4.9-.7 1.7-1.5 1.7-1.7 0-.8-.8-.3-2.1 1.3m-132.8.9c0 1.1.3 1.4.6.6.3-.7.2-1.6-.1-1.9-.3-.4-.6.2-.5 1.3m-560 2c0 1.1.3 1.4.6.6.3-.7.2-1.6-.1-1.9-.3-.4-.6.2-.5 1.3M559.3 661c0 2.5.2 3.5.4 2.2.2-1.2.2-3.2 0-4.5-.2-1.2-.4-.2-.4 2.3m1706.5 11.7c.7.3 1.6.2 1.9-.1.4-.3-.2-.6-1.3-.5-1.1 0-1.4.3-.6.6m-962.7 5.9c0 1.1.3 1.4.6.6.3-.7.2-1.6-.1-1.9-.3-.4-.6.2-.5 1.3m-1 4c0 1.1.3 1.4.6.6.3-.7.2-1.6-.1-1.9-.3-.4-.6.2-.5 1.3m13 2c0 1.1.3 1.4.6.6.3-.7.2-1.6-.1-1.9-.3-.4-.6.2-.5 1.3m-727 7c0 1.1.3 1.4.6.6.3-.7.2-1.6-.1-1.9-.3-.4-.6.2-.5 1.3m710 5c0 1.1.3 1.4.6.6.3-.7.2-1.6-.1-1.9-.3-.4-.6.2-.5 1.3m111.8 12.1c-1.3 1.6-1.2 1.7.4.4.9-.7 1.7-1.5 1.7-1.7 0-.8-.8-.3-2.1 1.3m92 6.5c-7.8 10.8-9.9 14-9.9 15.2 0 .6 1.1-.2 2.5-1.8s2.5-3.5 2.5-4.2.9-1.8 2-2.4 2-1.7 2-2.5c0-.7.5-1.7 1.1-2.1 1.8-1.1-.1 3.9-2 5.3-.9.6-1.3 1.5-.8 1.9.4.4.7.2.7-.5s.4-1 .9-.7 1.4-.9 2.1-2.7c.6-1.7 2-5.3 3-8 1.1-2.6 1.7-4.7 1.5-4.7s-2.7 3.3-5.6 7.2m361.1-4.9c0 .2 1.5 1.6 3.3 3.3l3.2 2.9-2.9-3.3c-2.8-3-3.6-3.7-3.6-2.9m-157.1 4.4c-1.3 1.6-1.2 1.7.4.4.9-.7 1.7-1.5 1.7-1.7 0-.8-.8-.3-2.1 1.3m-416.3 2c-.6 1.4-.5 1.5.5.6.7-.7 1-1.5.7-1.8s-.9.2-1.2 1.2m13 7c-.6 1.4-.5 1.5.5.6.7-.7 1-1.5.7-1.8s-.9.2-1.2 1.2m-17 1c-.6 1.4-.5 1.5.5.6.7-.7 1-1.5.7-1.8s-.9.2-1.2 1.2M560.4 735c0 5.2.1 7.4.3 4.7.2-2.6.2-6.8 0-9.5-.2-2.6-.3-.4-.3 4.8m821.7-7.3c-.1.6-.4 2-.7 3-.5 1.7-.5 1.7.6 0 .6-1 .9-2.3.6-3-.3-.9-.5-.9-.5 0m-82.5 2.8c-.9 2.6-.7 3.2.5 1.2.6-1 .9-2.1.6-2.3-.2-.3-.7.2-1.1 1.1m198.7 0c-.3.9-.3 1.8-.1 2.1.3.3.8-.4 1.1-1.6.6-2.3-.1-2.7-1-.5m-100.2 1.2c-.1.6-.4 2-.7 3-.5 1.7-.5 1.7.6 0 .6-1 .9-2.3.6-3-.3-.9-.5-.9-.5 0m90.4 3.2c-.8 1.7-1.2 3.1-.7 3.1 1 0 3.5-5 2.8-5.7-.2-.3-1.2.9-2.1 2.6m-191.9 2.8c-.6 1.4-.5 1.5.5.6.7-.7 1-1.5.7-1.8s-.9.2-1.2 1.2m198.4 2.1c0 1-.3 2.2-.7 2.6s-.9 1.9-1.1 3.4c-.5 3.8.7 2.2 2.3-3.2.8-2.6 1-4.6.5-4.6-.6 0-1 .8-1 1.8m907.8-1.1c1.7.2 4.7.2 6.5 0 1.7-.2.3-.4-3.3-.4s-5 .2-3.2.4M1485 741c-.7 1.4-2.2 4.1-3.2 6-1.8 3.5-1.8 3.5.1 1.2 2.4-2.7 3.5-2.9 2.1-.2-.8 1.6-.8 1.8.4 1.4.9-.3 1.5-.9 1.4-1.2-.2-2 .3-2.5 1.2-1.2.7 1.2.9 1 .7-.7-.1-1.7-.4-1.9-1.4-1.1s-1.3.6-1.3-1c0-1.1.5-2.2 1.2-2.4.6-.2.9-1.1.6-1.8-.3-1.1-.8-.8-1.8 1m-190.4.5c-.9 2.6-.7 3.2.5 1.2.6-1 .9-2.1.6-2.3-.2-.3-.7.2-1.1 1.1m195.5 1.9c-.9 1-.8 1.5.2 1.9.8.3 1.3-.3 1.3-1.4 0-2.3 0-2.3-1.5-.5m405.1 8.1c0 1.6.2 2.2.5 1.2.2-.9.2-2.3 0-3-.3-.6-.5.1-.5 1.8m-415.4.2c.7.3 1.6.2 1.9-.1.4-.3-.2-.6-1.3-.5-1.1 0-1.4.3-.6.6M1273 754c0 .5.5 1 1.1 1 .5 0 .7-.5.4-1-.3-.6-.8-1-1.1-1-.2 0-.4.4-.4 1m15.5.1c-.4.6-.5 1.2-.2 1.5.2.3.7-.2 1-1.1.7-1.7.1-2-.8-.4m85.6 2.6c0 .6-.4 2-.7 3-.5 1.4-.4 1.5.5.7.7-.7 1.1-2 .8-3-.3-1.1-.5-1.4-.6-.7m-88.5 1.8c-1.1.8-1.5 1.5-.9 1.5s1.6-.7 2.3-1.5c1.6-1.9 1.1-1.9-1.4 0m102.5.1c0 1.1.3 1.4.6.6.3-.7.2-1.6-.1-1.9-.3-.4-.6.2-.5 1.3m-15.3 6.1c1.2.2 3 .2 4 0 .9-.3-.1-.5-2.3-.4-2.2 0-3 .2-1.7.4m-816.7 1.9c0 1.1.3 1.4.6.6.3-.7.2-1.6-.1-1.9-.3-.4-.6.2-.5 1.3m808.7-.9c.7.3 1.6.2 1.9-.1.4-.3-.2-.6-1.3-.5-1.1 0-1.4.3-.6.6m993 0c.6.2 1.8.2 2.5 0 .6-.3.1-.5-1.3-.5s-1.9.2-1.2.5m24 1c.6.2 1.8.2 2.5 0 .6-.3.1-.5-1.3-.5s-1.9.2-1.2.5m-335.5 13.8c0 2.2.2 3 .4 1.7.2-1.2.2-3 0-4-.3-.9-.5.1-.4 2.3m-579.3 4.6c1.2.8.7.9-1.7.6q-3.3-.3-3.3.9c0 .7-.8 1-2 .7s-2 0-2 .6c0 .7.4 1 .8.7.4-.2 1.4 0 2.2.6 1.2.8 1.2.9-.2.4-1-.3-1.8-.1-1.8.5 0 .5-.6.4-1.4-.3s-1.2-1.6-.9-2.1c.2-.4 0-.7-.4-.7-.8 0-7.3 11-7.3 12.4 0 1.8 1.9.2 3.1-2.6.8-2 1.5-2.6 1.7-1.7.9 2.8 3.7 5.4 5.9 5.5 1.8 0 2-.3 1.3-1.7-.7-1.3-.6-1.7.5-1.5 2.4.3 2.5 1 .9 5.5-.8 2.4-1.3 4.5-1.1 4.8.3.2 1.2-1.7 2.1-4.3s2.3-5.6 3.3-6.6c.9-1 1.3-1.8.8-1.8-.4 0-1.3.7-1.9 1.5-1 1.3-1.3 1.3-2.3-.4-1.1-1.8-1-1.9.4-1.4 1 .4 1.4.2 1-.4-.5-.7.2-1 1.8-.9 1.3.2 2.2-.1 1.9-.5-.3-.5.1-.9.9-.9 1.4 0 8.2-6.8 7.5-7.5-.2-.2-2 0-4.1.4-2.1.5-3.7.5-3.7 0s-.8-.9-1.7-.9c-1.6 0-1.6.2-.3 1.1m-10.4 9.7c.1 1.2-.3 1.9-.8 1.6-.4-.3-.5-1-.2-1.6.4-.6 0-1.5-.7-2-1.2-.8-1.1-.9.1-.5.8.2 1.6 1.3 1.6 2.5m-585.8-.1c.7.3 1.6.2 1.9-.1.4-.3-.2-.6-1.3-.5-1.1 0-1.4.3-.6.6m500 2c.6.2 1.8.2 2.5 0 .6-.3.1-.5-1.3-.5s-1.9.2-1.2.5m3.5.7c-1.2.7-4 1.1-6.2 1-2.3-.1-4.1.2-4.1.7 0 .4 1.2.6 2.8.5 3.5-.5 4.6.2 3.1 2-.7.9-.8 1.4-.1 1.4.6 0 1.4-.9 1.7-2s1.1-2 1.6-2c.6 0 .6.8-.1 2-.6 1.1-.7 2-.2 2 .4 0 1.6-1.6 2.5-3.5s1.6-3.5 1.4-3.4c-.1.1-1.2.6-2.4 1.3m-25.5.3c.7.3 1.6.2 1.9-.1.4-.3-.2-.6-1.3-.5-1.1 0-1.4.3-.6.6m8.4 3.8c-1.2 2.5-1.8 4.5-1.4 4.5 1-.1 5.4-9 4.4-9-.4 0-1.8 2-3 4.5"/><path d="M1452.4 798.7c1 1.1 3.7 1.2 3 .2-.3-.5-1.2-.9-2.1-.9s-1.3.3-.9.7m-209.9 2.4c-.4.6-.5 1.2-.2 1.5.2.3.7-.2 1-1.1.7-1.7.1-2-.8-.4m123.3.6c.7.3 1.6.2 1.9-.1.4-.3-.2-.6-1.3-.5-1.1 0-1.4.3-.6.6m79.8 5.4c-1.5 3.4-2.5 6.4-2.2 6.6.4.5 3.8-6.6 5.1-10.6 1.3-4.2-.3-1.9-2.9 4m-74.3-1.4c-.3 1-.8 2.2-1 2.8-.3.5.3.1 1.1-.9 1.6-2 2.1-3.6 1.1-3.6-.3 0-.8.8-1.2 1.7m-112.8.4c-.4.6-.5 1.2-.2 1.5.2.3.7-.2 1-1.1.7-1.7.1-2-.8-.4M618.2 809c0 1.4.2 1.9.5 1.2.2-.6.2-1.8 0-2.5-.3-.6-.5-.1-.5 1.3m734.5.9c-1.1 1.9-1.4 3.2-.7 3.6.5.3 1-.3 1-1.4 0-1 .5-2.1 1.2-2.3.6-.2.9-1 .7-1.6-.2-.7-1.2 0-2.2 1.7m-115.1-.2c-.6 1.4-.5 1.5.5.6.7-.7 1-1.5.7-1.8s-.9.2-1.2 1.2m118 1c-.6 1.4-.5 1.5.5.6.7-.7 1-1.5.7-1.8s-.9.2-1.2 1.2m12.6 1.3c-.7 1.1-.8 2-.3 2 .9 0 2.4-3 1.8-3.6-.1-.2-.8.6-1.5 1.6m-133.2 2.1c-.7 1.1-1 2.3-.7 2.5.2.2.9-.7 1.5-2.1 1.4-3 .7-3.3-.8-.4m223.5.9c-.4 1.2-.5 2.4-.2 2.7.3.2.8-.5 1.2-1.7s.5-2.4.2-2.7c-.3-.2-.8.5-1.2 1.7m-118.3 16.9c-5.6 9.9-10.2 18.3-10.2 18.7 0 .9 6.2-9.1 9.4-15.1 1.1-2.2 2.4-4.2 2.7-4.5s.8-1.3 1.2-2.3 1.1-1.6 1.6-1.3.7-.3.4-1.4-.1-2 .5-2c.5 0 1.3-1.1 1.6-2.4.3-1.4 1.3-3.2 2.2-4 .9-.9 1.4-2.1 1.2-2.7-.2-.5-4.9 7.1-10.6 17m25.3-13.8c-.9 1.7-1.5 3.3-1.3 3.5.3.2 1.2-1.2 2.1-3.1 2.1-4.3 1.3-4.7-.8-.4m76.5-1.6c0 .8.4 1.5 1 1.5.5 0 .7-.7.4-1.5-.4-.8-.8-1.5-1-1.5s-.4.7-.4 1.5m-211.5 5.6c-.4.6-.5 1.2-.2 1.5.2.3.7-.2 1-1.1.7-1.7.1-2-.8-.4m225.1.4c-.9 2.6-.7 3.2.5 1.2.6-1 .9-2.1.6-2.3-.2-.3-.7.2-1.1 1.1m-106 .3c-.3.5.1.9.9.9s1.2-.4.9-.9c-.3-.4-.7-.8-.9-.8s-.6.4-.9.8m90 1.8c-.4 1.4-.5 2.9-.2 3.1.3.3.8-.7 1.2-2.1.3-1.5.4-2.9.1-3.2-.2-.3-.8.7-1.1 2.2m-190.5 3.5c-1.5 6.8-.7 7.5.9.9.7-2.8 1-5.3.7-5.6s-1 1.8-1.6 4.7m104.5-4.3c-.2.4-.1 1.4.4 2.2.7 1.1.9.9.7-.8-.1-2.4-.3-2.6-1.1-1.4m8.9.3c-.4.6-.5 1.2-.2 1.5.2.3.7-.2 1-1.1.7-1.7.1-2-.8-.4m-3 4.9c-1 1.1-1.3 2-.7 2s1.6-.9 2.2-2 .9-2 .7-2-1.2.9-2.2 2m92.8 1.5c-.3.9-.3 1.8-.1 2.1.3.3.8-.4 1.1-1.6.6-2.3-.1-2.7-1-.5m-14.1 1.5c0 1.4.2 1.9.5 1.2.2-.6.2-1.8 0-2.5-.3-.6-.5-.1-.5 1.3m-81.1.9c-.7.5-1.2 1.4-1 2s1 .2 1.7-.9c1.4-2.2 1.3-2.3-.7-1.1m-10.5.9c-.3.5.1.9.9.9s1.2-.4.9-.9c-.3-.4-.7-.8-.9-.8s-.6.4-.9.8m100.4.3c0 .5.5.7 1 .4.6-.3 1-.8 1-1.1 0-.2-.4-.4-1-.4-.5 0-1 .5-1 1.1m3 3.9c-.6 2.3-.9 4.4-.7 4.6.2.3.9-1.4 1.5-3.8.6-2.3.9-4.4.7-4.6s-.9 1.5-1.5 3.8m-13-2c0 .5.5 1 1.1 1 .5 0 .7-.5.4-1-.3-.6-.8-1-1.1-1-.2 0-.4.4-.4 1m-97.3 2.3c-.3.8.1 1.4.9 1.4 1.6 0 1.9-1.3.5-2.1-.5-.3-1.1 0-1.4.7m14.8-.2c-.4.6-.5 1.2-.2 1.5.2.3.7-.2 1-1.1.7-1.7.1-2-.8-.4m-4.2 1.4c0 .8.4 1.2.9.9s.6-1 .3-1.5c-.9-1.3-1.2-1.1-1.2.6m91.7 0c-.7.8-.9 1.5-.5 1.5s.2.7-.5 1.5-1.7 1.2-2.3.8c-.6-.3-.7-.1-.3.5.5.9 1.3.9 2.7.2 1.3-.7 1.9-.7 1.9 0 0 .5-.4 1-1 1-.5 0-1 .5-1 1.1 0 .5.5.7 1.1.3.6-.3 1.6 0 2.1.7.7 1 .8.7.3-1.1-.4-1.4-.7-3.7-.8-5.3-.1-3.2-.1-3.2-1.7-1.2m3-.4c0 .5.5.7 1 .4.6-.3 1-.1 1 .4 0 .6-.4 1.1-1 1.1-.5 0-1 .9-1 2s.5 2 1.1 2 .9-.7.6-1.5c-.4-.8-.2-1.7.3-2 1.6-1 1.2-3.5-.5-3.5-.8 0-1.5.5-1.5 1.1m-8.9 1.5c0 1.1.3 1.4.6.6.3-.7.2-1.6-.1-1.9-.3-.4-.6.2-.5 1.3m-191.6 1.4c-.3.5-.1 1 .4 1 .6 0 1.1-.5 1.1-1 0-.6-.2-1-.4-1-.3 0-.8.4-1.1 1m105.6 3.6c-3 6.2-2.2 6.5 1.1.3 1.4-2.7 2.2-4.9 1.8-4.9s-1.8 2.1-2.9 4.6m84.5-1.1c-.3.9-.6 2.2-.5 2.8 0 .7.5.1 1-1.2s.8-2.6.5-2.8c-.2-.2-.6.3-1 1.2m12.4 3.5c-1.5 5.5-.7 6.3.9.9.7-2.2 1-4.3.7-4.6-.2-.3-1 1.4-1.6 3.7m-204.5-1.9c-.4.6-.5 1.2-.2 1.5.2.3.7-.2 1-1.1.7-1.7.1-2-.8-.4m194.9 1.2c-.4.6-.4.9.1.5.4-.4 1.4-.3 2.2.4.7.6 1.5.9 1.8.7.2-.3-.4-1-1.5-1.7-1.5-.9-2.1-.9-2.6.1m-197.4 3.2c-.7.9-1.1 1.7-.9 2 .3.2 1-.5 1.7-1.5 1.4-2.4 1-2.6-.8-.5m193-.7c0 1.5 2.8 2.3 3.6.9.4-.7.4-.9-.1-.5-.4.4-1.4.3-2.2-.3-.8-.7-1.3-.8-1.3-.1m8 1.2c0 .6.4.9.9.6.5-.4 1.2-.1 1.4.4.3.6.4.5.3-.2-.3-1.5-2.6-2.3-2.6-.8m-114.5 4.1c-.4.6-.5 1.2-.2 1.5.2.3.7-.2 1-1.1.7-1.7.1-2-.8-.4m103.6 3c-1.4 4.2-.7 4.9.9.9.7-1.7 1-3.3.8-3.6-.3-.3-1.1.9-1.7 2.7m11.4-2.1c-.3.5-.1 1 .4 1 .6 0 1.1-.5 1.1-1 0-.6-.2-1-.4-1-.3 0-.8.4-1.1 1m2.6 2.6c0 1.1.3 1.4.6.6.3-.7.2-1.6-.1-1.9-.3-.4-.6.2-.5 1.3m-1 4c0 1.1.3 1.4.6.6.3-.7.2-1.6-.1-1.9-.3-.4-.6.2-.5 1.3m-122.2 2.6c-.7 1.3-1.9 3.3-2.7 4.5-.8 1.3-1 2.3-.6 2.3.9-.1 5.8-9 4.9-9-.2 0-1 1-1.6 2.2m106.7-.7c-.3.8-.1 1.5.4 1.5.6 0 1-.7 1-1.5s-.2-1.5-.4-1.5-.6.7-1 1.5m-195 1c-.9 2.6-.7 3.2.5 1.2.6-1 .9-2.1.6-2.3-.2-.3-.7.2-1.1 1.1m105.4 3c-.7.9-1.1 1.7-.9 2 .3.2 1-.5 1.7-1.5 1.4-2.4 1-2.6-.8-.5m88.1.1c0 1.1.3 1.4.6.6.3-.7.2-1.6-.1-1.9-.3-.4-.6.2-.5 1.3m14.2 2.1c-.3 1-1.2 3.3-1.9 5.2-1.6 3.9-1.8 5.3-.3 2.9 1.4-2.5 3.9-9.8 3.3-9.8-.2 0-.7.8-1.1 1.7m-237.8 2.4c-.4.6-.5 1.2-.2 1.5.2.3.7-.2 1-1.1.7-1.7.1-2-.8-.4m132 1c-.4.6-.5 1.2-.2 1.5.2.3.7-.2 1-1.1.7-1.7.1-2-.8-.4m-3.5 5.9c-.6 1.1-.8 2-.6 2 .3 0 1-.9 1.6-2s.8-2 .6-2c-.3 0-1 .9-1.6 2m-132.4.7c-.6 1.4-.5 1.5.5.6.7-.7 1-1.5.7-1.8s-.9.2-1.2 1.2m217.5 7.9c0 1.1.3 1.4.6.6.3-.7.2-1.6-.1-1.9-.3-.4-.6.2-.5 1.3m-198.1 7.9c-.7.9-1.1 1.7-.9 2 .3.2 1-.5 1.7-1.5 1.4-2.4 1-2.6-.8-.5m-28.5 3.6c-.4.6-.5 1.2-.2 1.5.2.3.7-.2 1-1.1.7-1.7.1-2-.8-.4m-3.4 8.5c0 1.1.3 1.4.6.6.3-.7.2-1.6-.1-1.9-.3-.4-.6.2-.5 1.3m209.5 16.1c-.6 1.4-.5 1.5.5.6.7-.7 1-1.5.7-1.8s-.9.2-1.2 1.2m-109.1 1.4c-.4.6-.5 1.2-.2 1.5.2.3.7-.2 1-1.1.7-1.7.1-2-.8-.4m123.7 3.9c-.7 1.1-.8 2-.3 2 .9 0 2.4-3 1.8-3.6-.1-.2-.8.6-1.5 1.6m-208.3 4.7c-1.3 1.6-1.2 1.7.4.4.9-.7 1.7-1.5 1.7-1.7 0-.8-.8-.3-2.1 1.3m206.1-.2c-.7.9-1.1 1.7-.9 2 .3.2 1-.5 1.7-1.5 1.4-2.4 1-2.6-.8-.5m-211.4 9c-.9 2.6-.7 3.2.5 1.2.6-1 .9-2.1.6-2.3-.2-.3-.7.2-1.1 1.1m206.4.5c-.6 1.1-.8 2-.6 2 .3 0 1-.9 1.6-2s.8-2 .6-2c-.3 0-1 .9-1.6 2m-19.4.7c-.6 1.4-.5 1.5.5.6.7-.7 1-1.5.7-1.8s-.9.2-1.2 1.2m-1.6 3.2c0 .6.4 1.3 1 1.6s.7-.1.4-.9c-.7-1.8-1.4-2.1-1.4-.7m10.5 14.2c-.4.6-.5 1.2-.2 1.5.2.3.7-.2 1-1.1.7-1.7.1-2-.8-.4m-202.9 1.6c-.6 1.4-.5 1.5.5.6.7-.7 1-1.5.7-1.8s-.9.2-1.2 1.2m-4.9 12.3c-.9 1.1-1.3 2-.7 2 .5 0 1.4-.9 2-2s.9-2 .8-2c-.2 0-1.1.9-2.1 2m103.4-.4c0 1.1.3 1.4.6.6.3-.7.2-1.6-.1-1.9-.3-.4-.6.2-.5 1.3m-123 1c0 1.1.3 1.4.6.6.3-.7.2-1.6-.1-1.9-.3-.4-.6.2-.5 1.3m-1 4c0 1.1.3 1.4.6.6.3-.7.2-1.6-.1-1.9-.3-.4-.6.2-.5 1.3m95.5.1c-.6 1.4-.5 1.5.5.6.7-.7 1-1.5.7-1.8s-.9.2-1.2 1.2m-97.5 7.9c0 1.1.3 1.4.6.6.3-.7.2-1.6-.1-1.9-.3-.4-.6.2-.5 1.3m122 2c0 1.1.3 1.4.6.6.3-.7.2-1.6-.1-1.9-.3-.4-.6.2-.5 1.3m-108 3c0 1.1.3 1.4.6.6.3-.7.2-1.6-.1-1.9-.3-.4-.6.2-.5 1.3m79 3c0 1.1.3 1.4.6.6.3-.7.2-1.6-.1-1.9-.3-.4-.6.2-.5 1.3m-80 1c0 1.1.3 1.4.6.6.3-.7.2-1.6-.1-1.9-.3-.4-.6.2-.5 1.3m203.4.5c-.4.6-.5 1.2-.2 1.5.2.3.7-.2 1-1.1.7-1.7.1-2-.8-.4m-124.4 2.5c0 1.1.3 1.4.6.6.3-.7.2-1.6-.1-1.9-.3-.4-.6.2-.5 1.3m97.5.1c-.6 1.4-.5 1.5.5.6.7-.7 1-1.5.7-1.8s-.9.2-1.2 1.2m-2 4c-.6 1.4-.5 1.5.5.6.7-.7 1-1.5.7-1.8s-.9.2-1.2 1.2m-97.5 1c-.1.6-.4 2-.7 3-.5 1.7-.5 1.7.6 0 .6-1 .9-2.3.6-3-.3-.9-.5-.9-.5 0m93.5 6c-.6 1.4-.5 1.5.5.6.7-.7 1-1.5.7-1.8s-.9.2-1.2 1.2m-95.5.9c0 1.1.3 1.4.6.6.3-.7.2-1.6-.1-1.9-.3-.4-.6.2-.5 1.3m-80.5 2.9c-.9 2.6-.7 3.2.5 1.2.6-1 .9-2.1.6-2.3-.2-.3-.7.2-1.1 1.1m172.9 1.6c-.4.6-.5 1.2-.2 1.5.2.3.7-.2 1-1.1.7-1.7.1-2-.8-.4m-94.4 1.5c0 1.1.3 1.4.6.6.3-.7.2-1.6-.1-1.9-.3-.4-.6.2-.5 1.3m-94.6 1.5c-.4.6-.5 1.2-.2 1.5.2.3.7-.2 1-1.1.7-1.7.1-2-.8-.4m13.8 1.6c-.3 1-.8 2.2-1.1 2.7s0 .6.5.3c1.1-.7 2.5-4.7 1.7-4.7-.3 0-.7.8-1.1 1.7m173.2-.6c-.4.6-.5 1.2-.2 1.5.2.3.7-.2 1-1.1.7-1.7.1-2-.8-.4m-75.9 12.4c-.9 2.6-.7 3.2.5 1.2.6-1 .9-2.1.6-2.3-.2-.3-.7.2-1.1 1.1m-24.5 15.1c0 1.1.3 1.4.6.6.3-.7.2-1.6-.1-1.9-.3-.4-.6.2-.5 1.3m14.9 2.9c-1.3 1.4-2.2 2.7-1.9 2.9.2.2 1.4-1 2.7-2.5 2.9-3.6 2.4-3.8-.8-.4m95.1 4.1c0 1.1.3 1.4.6.6.3-.7.2-1.6-.1-1.9-.3-.4-.6.2-.5 1.3m-99 4c0 1.1.3 1.4.6.6.3-.7.2-1.6-.1-1.9-.3-.4-.6.2-.5 1.3m-15 3c0 1.1.3 1.4.6.6.3-.7.2-1.6-.1-1.9-.3-.4-.6.2-.5 1.3m14 4c0 1.1.3 1.4.6.6.3-.7.2-1.6-.1-1.9-.3-.4-.6.2-.5 1.3m68 6c0 1.1.3 1.4.6.6.3-.7.2-1.6-.1-1.9-.3-.4-.6.2-.5 1.3m-2 8c0 1.1.3 1.4.6.6.3-.7.2-1.6-.1-1.9-.3-.4-.6.2-.5 1.3m-176.1 3.9c0 .8.4 1.5 1 1.5.5 0 .7-.7.4-1.5-.4-.8-.8-1.5-1-1.5s-.4.7-.4 1.5m195 5c-.7.9-.8 1.5-.2 1.5.5 0 1.2-.7 1.6-1.5.3-.8.4-1.5.2-1.5s-.9.7-1.6 1.5m-103.1 34.1c-.5 1.5-.8 2.9-.5 3.1.2.2.8-1 1.4-2.6 1.3-3.8.5-4.1-.9-.5m66.2 17c0 1.1.3 1.4.6.6.3-.7.2-1.6-.1-1.9-.3-.4-.6.2-.5 1.3m14.1 2.4c0 1.4.2 1.9.5 1.2.2-.6.2-1.8 0-2.5-.3-.6-.5-.1-.5 1.3m-15.1 1.6c0 1.1.3 1.4.6.6.3-.7.2-1.6-.1-1.9-.3-.4-.6.2-.5 1.3m14.1 3.4c0 1.4.2 1.9.5 1.2.2-.6.2-1.8 0-2.5-.3-.6-.5-.1-.5 1.3m-15.1.6c0 1.1.3 1.4.6.6.3-.7.2-1.6-.1-1.9-.3-.4-.6.2-.5 1.3m14.1 4.4c0 1.4.2 1.9.5 1.2.2-.6.2-1.8 0-2.5-.3-.6-.5-.1-.5 1.3m-21.2 19.1c0 .5.5.7 1 .4.6-.3 1-.8 1-1.1 0-.2-.4-.4-1-.4-.5 0-1 .5-1 1.1m-.9 4.5c0 1.1.3 1.4.6.6.3-.7.2-1.6-.1-1.9-.3-.4-.6.2-.5 1.3m9.5 14.9c-.3.9-.6 2.2-.5 2.8 0 .7.5.1 1-1.2s.8-2.6.5-2.8c-.2-.2-.6.3-1 1.2m-15.5 9.1c0 1.1.3 1.4.6.6.3-.7.2-1.6-.1-1.9-.3-.4-.6.2-.5 1.3m-2.5 6.1c-.6 1.4-.5 1.5.5.6.7-.7 1-1.5.7-1.8s-.9.2-1.2 1.2m12.9-.6c-.4.6-.5 1.2-.2 1.5.2.3.7-.2 1-1.1.7-1.7.1-2-.8-.4m-9.9.7c-.3.5.1.9.9.9s1.2-.4.9-.9c-.3-.4-.7-.8-.9-.8s-.6.4-.9.8m4.4 4.2c0 1.1.2 2 .4 2s.6-.9.9-2 .1-2-.4-2-.9.9-.9 2m3.1.7c-1 2.6-1 2.7.4.9.8-1.1 1.5-2.3 1.5-2.8 0-1.5-.7-.8-1.9 1.9m-3.1 6.3c-.6 1.1-.8 2-.6 2 .3 0 1-.9 1.6-2s.8-2 .6-2c-.3 0-1 .9-1.6 2m1055.3 48c0 2.5.2 3.5.4 2.2.2-1.2.2-3.2 0-4.5-.2-1.2-.4-.2-.4 2.3"/></g><path fill="#aaa" d="M1289.8 284.7c.7.3 1.6.2 1.9-.1.4-.3-.2-.6-1.3-.5-1.1 0-1.4.3-.6.6m257 0c.7.3 1.6.2 1.9-.1.4-.3-.2-.6-1.3-.5-1.1 0-1.4.3-.6.6m-176.1 1c1.8.2 5 .2 7 0 2.1-.2.7-.4-3.2-.4-3.8 0-5.5.2-3.8.4m220.1 0c2.3.2 6.1.2 8.5 0 2.3-.2.4-.4-4.3-.4s-6.6.2-4.2.4m69.2-.1c6 .8 13 .8 13 .1 0-.4-3.5-.6-7.7-.6-4.3.1-6.7.3-5.3.5m-599.1 7.1c-1.3 1.6-1.2 1.7.4.4s2.1-2.1 1.3-2.1c-.2 0-1 .8-1.7 1.7m30.8 3c1.8.2 5 .2 7 0 2.1-.2.7-.4-3.2-.4-3.8 0-5.5.2-3.8.4m345.4 12.9c0 1.1.3 1.4.6.6.3-.7.2-1.6-.1-1.9-.3-.4-.6.2-.5 1.3m-215 4c0 1.1.3 1.4.6.6.3-.7.2-1.6-.1-1.9-.3-.4-.6.2-.5 1.3m15.1 26.6-.2 28.7-7.2.4-7.3.3 7.3.2c5.1.1 7.4-.2 7.7-1.1.3-.7.4-13.8.2-29.2l-.2-28zm270.9-23.6c0 1.1.3 1.4.6.6.3-.7.2-1.6-.1-1.9-.3-.4-.6.2-.5 1.3m-232.9 3.4c0 1.4.2 1.9.5 1.2.2-.6.2-1.8 0-2.5-.3-.6-.5-.1-.5 1.3m236.6 10.7c.6.2 1.8.2 2.5 0 .6-.3.1-.5-1.3-.5s-1.9.2-1.2.5m19.5 0c2 .2 5.4.2 7.5 0 2-.2.3-.4-3.8-.4s-5.8.2-3.7.4m14 0c.9.2 2.3.2 3 0 .6-.3-.1-.5-1.8-.5-1.6 0-2.2.2-1.2.5m6 0c.9.2 2.3.2 3 0 .6-.3-.1-.5-1.8-.5-1.6 0-2.2.2-1.2.5m-276.2 7.9c0 1.1.3 1.4.6.6.3-.7.2-1.6-.1-1.9-.3-.4-.6.2-.5 1.3m-153.3.1c.7.3 1.6.2 1.9-.1.4-.3-.2-.6-1.3-.5-1.1 0-1.4.3-.6.6m12.4 5.3c0 1.4.2 1.9.5 1.2.2-.6.2-1.8 0-2.5-.3-.6-.5-.1-.5 1.3m441.9 1.6c0 1.1.3 1.4.6.6.3-.7.2-1.6-.1-1.9-.3-.4-.6.2-.5 1.3m-193.9 3.4c0 1.9.2 2.7.5 1.7.2-.9.2-2.5 0-3.5-.3-.9-.5-.1-.5 1.8m73.1 6.5c0 2.2.2 3 .4 1.7.2-1.2.2-3 0-4-.3-.9-.5.1-.4 2.3m-383.3-2.1c0 .2.8 1 1.8 1.7 1.5 1.3 1.6 1.2.3-.4s-2.1-2.1-2.1-1.3m251.9 1.3c-1.3 1.6-1.2 1.7.4.4.9-.7 1.7-1.5 1.7-1.7 0-.8-.8-.3-2.1 1.3m-29.1 5c.6.2 1.8.2 2.5 0 .6-.3.1-.5-1.3-.5s-1.9.2-1.2.5m15 0c.7.3 1.6.2 1.9-.1.4-.3-.2-.6-1.3-.5-1.1 0-1.4.3-.6.6m145.6 5.3.1 4.5 7.5.1 7.5.1-7.2-.4-7.2-.4-.4-4.2-.4-4.2zm-295.6 4.7c2.3.2 5.9.2 8 0 2-.2.1-.4-4.3-.4s-6.1.2-3.7.4m212 0c2.3.2 5.9.2 8 0 2-.2.1-.4-4.3-.4s-6.1.2-3.7.4m-286.5 1c.9.2 2.3.2 3 0 .6-.3-.1-.5-1.8-.5-1.6 0-2.2.2-1.2.5m17.5 0c.6.2 1.8.2 2.5 0 .6-.3.1-.5-1.3-.5s-1.9.2-1.2.5m190 0c.6.2 1.8.2 2.5 0 .6-.3.1-.5-1.3-.5s-1.9.2-1.2.5m20 0c.7.3 1.6.2 1.9-.1.4-.3-.2-.6-1.3-.5-1.1 0-1.4.3-.6.6m212 0c.7.3 1.6.2 1.9-.1.4-.3-.2-.6-1.3-.5-1.1 0-1.4.3-.6.6m822 15c.7.3 1.6.2 1.9-.1.4-.3-.2-.6-1.3-.5-1.1 0-1.4.3-.6.6m14 0c.7.3 1.6.2 1.9-.1.4-.3-.2-.6-1.3-.5-1.1 0-1.4.3-.6.6m-759 16c1.2.2 3 .2 4 0 .9-.3-.1-.5-2.3-.4-2.2 0-3 .2-1.7.4m693.1 5c-1.3 1.6-1.2 1.7.4.4s2.1-2.1 1.3-2.1c-.2 0-1 .8-1.7 1.7m-929.1 24c3.4.2 9 .2 12.5 0 3.4-.2.6-.3-6.3-.3s-9.7.1-6.2.3m31 1c.7.3 1.6.2 1.9-.1.4-.3-.2-.6-1.3-.5-1.1 0-1.4.3-.6.6m-29.5 28c.9.2 2.3.2 3 0 .6-.3-.1-.5-1.8-.5-1.6 0-2.2.2-1.2.5m23.5 0c.7.3 1.6.2 1.9-.1.4-.3-.2-.6-1.3-.5-1.1 0-1.4.3-.6.6m504 10c.7.3 1.6.2 1.9-.1.4-.3-.2-.6-1.3-.5-1.1 0-1.4.3-.6.6m27 0c.6.2 1.8.2 2.5 0 .6-.3.1-.5-1.3-.5s-1.9.2-1.2.5m-489.3 4.3c1 1.1 2 2 2.3 2s-.3-.9-1.3-2-2-2-2.3-2 .3.9 1.3 2m571.3-1.3c.6.2 1.8.2 2.5 0 .6-.3.1-.5-1.3-.5s-1.9.2-1.2.5m16 1c.7.3 1.6.2 1.9-.1.4-.3-.2-.6-1.3-.5-1.1 0-1.4.3-.6.6m14 1c.7.3 1.6.2 1.9-.1.4-.3-.2-.6-1.3-.5-1.1 0-1.4.3-.6.6m27 2c.7.3 1.6.2 1.9-.1.4-.3-.2-.6-1.3-.5-1.1 0-1.4.3-.6.6m237.3 12.9c0 1.1.3 1.4.6.6.3-.7.2-1.6-.1-1.9-.3-.4-.6.2-.5 1.3m-1446.8 2.1c2 .2 5.4.2 7.5 0 2-.2.3-.4-3.8-.4s-5.8.2-3.7.4m1065.5 13c.6.2 1.8.2 2.5 0 .6-.3.1-.5-1.3-.5s-1.9.2-1.2.5m28.5 0c.9.2 2.5.2 3.5 0 .9-.3.1-.5-1.8-.5s-2.7.2-1.7.5m-475.4 3-2.4 2.8 2.8-2.4c2.5-2.3 3.2-3.1 2.4-3.1-.2 0-1.4 1.2-2.8 2.7m542.9-1c.6.2 1.8.2 2.5 0 .6-.3.1-.5-1.3-.5s-1.9.2-1.2.5m21 1c.6.2 1.8.2 2.5 0 .6-.3.1-.5-1.3-.5s-1.9.2-1.2.5m229.3.9c0 1.1.3 1.4.6.6.3-.7.2-1.6-.1-1.9-.3-.4-.6.2-.5 1.3m-211.3.1c.7.3 1.6.2 1.9-.1.4-.3-.2-.6-1.3-.5-1.1 0-1.4.3-.6.6m14 1c.7.3 1.6.2 1.9-.1.4-.3-.2-.6-1.3-.5-1.1 0-1.4.3-.6.6m-1582.7 1.9c0 1.1.3 1.4.6.6.3-.7.2-1.6-.1-1.9-.3-.4-.6.2-.5 1.3m1594.7-.9c.7.3 1.6.2 1.9-.1.4-.3-.2-.6-1.3-.5-1.1 0-1.4.3-.6.6m-1215 1c.7.3 1.6.2 1.9-.1.4-.3-.2-.6-1.3-.5-1.1 0-1.4.3-.6.6M124.2 519c0 1.4.2 1.9.5 1.2.2-.6.2-1.8 0-2.5-.3-.6-.5-.1-.5 1.3m512 3c0 1.4.2 1.9.5 1.2.2-.6.2-1.8 0-2.5-.3-.6-.5-.1-.5 1.3m-53.1 4.6c0 1.1.3 1.4.6.6.3-.7.2-1.6-.1-1.9-.3-.4-.6.2-.5 1.3m-102 7c0 1.1.3 1.4.6.6.3-.7.2-1.6-.1-1.9-.3-.4-.6.2-.5 1.3m319.8 2.1c-1.3 1.6-1.2 1.7.4.4.9-.7 1.7-1.5 1.7-1.7 0-.8-.8-.3-2.1 1.3M584.2 541c0 1.4.2 1.9.5 1.2.2-.6.2-1.8 0-2.5-.3-.6-.5-.1-.5 1.3m53 4c0 1.9.2 2.7.5 1.7.2-.9.2-2.5 0-3.5-.3-.9-.5-.1-.5 1.8m40.9.6c0 1.1.3 1.4.6.6.3-.7.2-1.6-.1-1.9-.3-.4-.6.2-.5 1.3m-198 1c0 1.1.3 1.4.6.6.3-.7.2-1.6-.1-1.9-.3-.4-.6.2-.5 1.3m197 13c0 1.1.3 1.4.6.6.3-.7.2-1.6-.1-1.9-.3-.4-.6.2-.5 1.3m-198 1c0 1.1.3 1.4.6.6.3-.7.2-1.6-.1-1.9-.3-.4-.6.2-.5 1.3m1810.9 8.8c0 .2.8 1 1.8 1.7 1.5 1.3 1.6 1.2.3-.4s-2.1-2.1-2.1-1.3m-1732.7 4.1c0 2.2.2 3 .4 1.7.2-1.2.2-3 0-4-.3-.9-.5.1-.4 2.3m-79.2.1c0 1.1.3 1.4.6.6.3-.7.2-1.6-.1-1.9-.3-.4-.6.2-.5 1.3m160.2 5.4c0 3.6.2 5 .4 3.2.2-1.7.2-4.7 0-6.5-.2-1.7-.4-.3-.4 3.3m37.8-4.4c0 1.1.3 1.4.6.6.3-.7.2-1.6-.1-1.9-.3-.4-.6.2-.5 1.3m-177 8c0 1.1.3 1.4.6.6.3-.7.2-1.6-.1-1.9-.3-.4-.6.2-.5 1.3m401 4c0 1.1.3 1.4.6.6.3-.7.2-1.6-.1-1.9-.3-.4-.6.2-.5 1.3m32.1 2.4c0 1.9.2 2.7.5 1.7.2-.9.2-2.5 0-3.5-.3-.9-.5-.1-.5 1.8m-257.1-.4c0 1.1.3 1.4.6.6.3-.7.2-1.6-.1-1.9-.3-.4-.6.2-.5 1.3m-177 6c0 1.1.3 1.4.6.6.3-.7.2-1.6-.1-1.9-.3-.4-.6.2-.5 1.3m87.2 6.4c0 3.6.2 5 .4 3.2.2-1.7.2-4.7 0-6.5-.2-1.7-.4-.3-.4 3.3m314.8-4.4c0 1.1.3 1.4.6.6.3-.7.2-1.6-.1-1.9-.3-.4-.6.2-.5 1.3M674.2 604c0 1.4.2 1.9.5 1.2.2-.6.2-1.8 0-2.5-.3-.6-.5-.1-.5 1.3m-115.9 7.5c0 2.2.2 3 .4 1.7.2-1.2.2-3 0-4-.3-.9-.5.1-.4 2.3m640.8-.9c0 1.1.3 1.4.6.6.3-.7.2-1.6-.1-1.9-.3-.4-.6.2-.5 1.3m-122.1 3.8c0 .2.8 1 1.8 1.7 1.5 1.3 1.6 1.2.3-.4s-2.1-2.1-2.1-1.3m-403.9 6.2c0 1.1.3 1.4.6.6.3-.7.2-1.6-.1-1.9-.3-.4-.6.2-.5 1.3m481.1.4c0 1.4.2 1.9.5 1.2.2-.6.2-1.8 0-2.5-.3-.6-.5-.1-.5 1.3m44 2c0 1.4.2 1.9.5 1.2.2-.6.2-1.8 0-2.5-.3-.6-.5-.1-.5 1.3m-703.1 2.6c0 1.1.3 1.4.6.6.3-.7.2-1.6-.1-1.9-.3-.4-.6.2-.5 1.3m293 3c0 1.1.3 1.4.6.6.3-.7.2-1.6-.1-1.9-.3-.4-.6.2-.5 1.3M672.2 638c0 1.4.2 1.9.5 1.2.2-.6.2-1.8 0-2.5-.3-.6-.5-.1-.5 1.3m-85.9 7.5c0 2.2.2 3 .4 1.7.2-1.2.2-3 0-4-.3-.9-.5.1-.4 2.3m567.9.5c0 1.4.2 1.9.5 1.2.2-.6.2-1.8 0-2.5-.3-.6-.5-.1-.5 1.3m44 .5c0 1.6.2 2.2.5 1.2.2-.9.2-2.3 0-3-.3-.6-.5.1-.5 1.8M559.3 651c0 3.6.2 5 .4 3.2.2-1.7.2-4.7 0-6.5-.2-1.7-.4-.3-.4 3.3m79-1.5c0 2.2.2 3 .4 1.7.2-1.2.2-3 0-4-.3-.9-.5.1-.4 2.3m32.8 4.1c0 1.1.3 1.4.6.6.3-.7.2-1.6-.1-1.9-.3-.4-.6.2-.5 1.3m-34 18c0 1.1.3 1.4.6.6.3-.7.2-1.6-.1-1.9-.3-.4-.6.2-.5 1.3m-49.9 2.4c0 1.9.2 2.7.5 1.7.2-.9.2-2.5 0-3.5-.3-.9-.5-.1-.5 1.8m1690.9 6.6c0 1.1.3 1.4.6.6.3-.7.2-1.6-.1-1.9-.3-.4-.6.2-.5 1.3m-1642 6c0 1.1.3 1.4.6.6.3-.7.2-1.6-.1-1.9-.3-.4-.6.2-.5 1.3m32 0c0 1.1.3 1.4.6.6.3-.7.2-1.6-.1-1.9-.3-.4-.6.2-.5 1.3m484 7c0 1.1.3 1.4.6.6.3-.7.2-1.6-.1-1.9-.3-.4-.6.2-.5 1.3M588.2 695c0 1.4.2 1.9.5 1.2.2-.6.2-1.8 0-2.5-.3-.6-.5-.1-.5 1.3m545.1 5.5c0 2.2.2 3 .4 1.7.2-1.2.2-3 0-4-.3-.9-.5.1-.4 2.3m18.8 3.1c0 1.1.3 1.4.6.6.3-.7.2-1.6-.1-1.9-.3-.4-.6.2-.5 1.3m-591.7 10.9c0 6.6.1 9.2.3 5.7.2-3.4.2-8.8 0-12-.2-3.1-.3-.3-.3 6.3m28.7-1.9c0 1.1.3 1.4.6.6.3-.7.2-1.6-.1-1.9-.3-.4-.6.2-.5 1.3m1279.9 3.8c0 .2.8 1 1.8 1.7 1.5 1.3 1.6 1.2.3-.4s-2.1-2.1-2.1-1.3m-1063.7 7.3c.9.2 2.5.2 3.5 0 .9-.3.1-.5-1.8-.5s-2.7.2-1.7.5M590.2 732c0 1.4.2 1.9.5 1.2.2-.6.2-1.8 0-2.5-.3-.6-.5-.1-.5 1.3m1761.6 4.7c.7.3 1.6.2 1.9-.1.4-.3-.2-.6-1.3-.5-1.1 0-1.4.3-.6.6m15 1c.6.2 1.8.2 2.5 0 .6-.3.1-.5-1.3-.5s-1.9.2-1.2.5m72 0c.7.3 1.6.2 1.9-.1.4-.3-.2-.6-1.3-.5-1.1 0-1.4.3-.6.6m-47 1c1.8.2 4.5.2 6 0s0-.4-3.3-.4-4.5.2-2.7.4m22 0c1.2.2 3.2.2 4.5 0 1.2-.2.2-.4-2.3-.4s-3.5.2-2.2.4m-420.5 4.8c0 2.2.2 3 .4 1.7.2-1.2.2-3 0-4-.3-.9-.5.1-.4 2.3m-1433.1 3c0 1.6.2 2.2.5 1.2.2-.9.2-2.3 0-3-.3-.6-.5.1-.5 1.8m31 1.5c0 1.4.2 1.9.5 1.2.2-.6.2-1.8 0-2.5-.3-.6-.5-.1-.5 1.3m895.6 2.7c.7.3 1.6.2 1.9-.1.4-.3-.2-.6-1.3-.5-1.1 0-1.4.3-.6.6m-294.8.6c0 .2 1.5 1.6 3.3 3.3l3.2 2.9-2.9-3.3c-2.8-3-3.6-3.7-3.6-2.9m703.1 4.3c0 1.1.3 1.4.6.6.3-.7.2-1.6-.1-1.9-.3-.4-.6.2-.5 1.3M659.2 765c0 1.9.2 2.7.5 1.7.2-.9.2-2.5 0-3.5-.3-.9-.5-.1-.5 1.8m1657.6-2.3c.7.3 1.6.2 1.9-.1.4-.3-.2-.6-1.3-.5-1.1 0-1.4.3-.6.6m-919 1c.7.3 1.6.2 1.9-.1.4-.3-.2-.6-1.3-.5-1.1 0-1.4.3-.6.6m930 0c.6.2 1.8.2 2.5 0 .6-.3.1-.5-1.3-.5s-1.9.2-1.2.5m-948.5 1c.9.2 2.5.2 3.5 0 .9-.3.1-.5-1.8-.5s-2.7.2-1.7.5m963.5 0c.6.2 1.8.2 2.5 0 .6-.3.1-.5-1.3-.5s-1.9.2-1.2.5m-1017 1c.7.3 1.6.2 1.9-.1.4-.3-.2-.6-1.3-.5-1.1 0-1.4.3-.6.6m42 0c.7.3 1.6.2 1.9-.1.4-.3-.2-.6-1.3-.5-1.1 0-1.4.3-.6.6m994 0c.6.2 1.8.2 2.5 0 .6-.3.1-.5-1.3-.5s-1.9.2-1.2.5m24 1c.7.3 1.6.2 1.9-.1.4-.3-.2-.6-1.3-.5-1.1 0-1.4.3-.6.6m-508 3c.7.3 1.6.2 1.9-.1.4-.3-.2-.6-1.3-.5-1.1 0-1.4.3-.6.6m-401 13c.7.3 1.6.2 1.9-.1.4-.3-.2-.6-1.3-.5-1.1 0-1.4.3-.6.6m-19 3c.7.3 1.6.2 1.9-.1.4-.3-.2-.6-1.3-.5-1.1 0-1.4.3-.6.6m-569 8c.7.3 1.6.2 1.9-.1.4-.3-.2-.6-1.3-.5-1.1 0-1.4.3-.6.6m-14 1c.6.2 1.8.2 2.5 0 .6-.3.1-.5-1.3-.5s-1.9.2-1.2.5m491.5 2c.9.2 2.3.2 3 0 .6-.3-.1-.5-1.8-.5-1.6 0-2.2.2-1.2.5m-47.5 1c1.2.2 3 .2 4 0 .9-.3-.1-.5-2.3-.4-2.2 0-3 .2-1.7.4m23 0c1.2.2 3.2.2 4.5 0 1.2-.2.2-.4-2.3-.4s-3.5.2-2.2.4m-387 15c.6.2 1.8.2 2.5 0 .6-.3.1-.5-1.3-.5s-1.9.2-1.2.5m-505.9 10c-1.3 1.6-1.2 1.7.4.4.9-.7 1.7-1.5 1.7-1.7 0-.8-.8-.3-2.1 1.3m397.9-1c.6.2 1.8.2 2.5 0 .6-.3.1-.5-1.3-.5s-1.9.2-1.2.5m14.5 0c.9.2 2.5.2 3.5 0 .9-.3.1-.5-1.8-.5s-2.7.2-1.7.5m-534 29.3c0 3 .2 4.3.4 2.7.2-1.5.2-3.9 0-5.5-.2-1.5-.4-.2-.4 2.8m2092.8.6c0 1.1.3 1.4.6.6.3-.7.2-1.6-.1-1.9-.3-.4-.6.2-.5 1.3m-91.8 458.1c.9.2 2.3.2 3 0 .6-.3-.1-.5-1.8-.5-1.6 0-2.2.2-1.2.5"/><path fill="#aad4d4" d="M1382.2 342c0 1.4.2 1.9.5 1.2.2-.6.2-1.8 0-2.5-.3-.6-.5-.1-.5 1.3"/><path fill="#558055" d="M1496 728c0 1.9.3 2.1 1.2 1.2s.9-1.5 0-2.4-1.2-.7-1.2 1.2m-47.3 107.9c-.4 1.7-.3 2.1.5 1.3.5-.5.8-1.6.6-2.3-.3-.8-.7-.3-1.1 1M1234 861.1c0 .5.5.7 1 .4.6-.3 1-.8 1-1.1 0-.2-.4-.4-1-.4-.5 0-1 .5-1 1.1m46.7 342.4c-.4.8-.3 1.6.1 1.9s.9-.4.9-1.5c.2-2.3-.3-2.5-1-.4"/><path fill="#558080" d="M1448.1 835.6c0 1.1.3 1.4.6.6.3-.7.2-1.6-.1-1.9-.3-.4-.6.2-.5 1.3"/><path fill="#555580" d="M1292.5 727c-.3.5-.1 1 .4 1 .6 0 1.1-.5 1.1-1 0-.6-.2-1-.4-1-.3 0-.8.4-1.1 1"/></svg>